<?xml version="1.0" encoding="UTF-8" standalone="no"?>
<!-- Created with Inkscape (http://www.inkscape.org/) -->

<svg
   xmlns:dc="http://purl.org/dc/elements/1.1/"
   xmlns:cc="http://creativecommons.org/ns#"
   xmlns:rdf="http://www.w3.org/1999/02/22-rdf-syntax-ns#"
   xmlns:svg="http://www.w3.org/2000/svg"
   xmlns="http://www.w3.org/2000/svg"
   xmlns:sodipodi="http://sodipodi.sourceforge.net/DTD/sodipodi-0.dtd"
   xmlns:inkscape="http://www.inkscape.org/namespaces/inkscape"
   width="400"
   height="400"
   id="svg3253"
   version="1.1"
   inkscape:version="0.92.1 unknown"
   sodipodi:docname="alpinelinux.svg">
  <defs
     id="defs3255" />
  <sodipodi:namedview
     id="base"
     pagecolor="#ffffff"
     bordercolor="#666666"
     borderopacity="1.0"
     inkscape:pageopacity="0.0"
     inkscape:pageshadow="2"
     inkscape:zoom="0.49497475"
     inkscape:cx="-24.767372"
     inkscape:cy="272.32504"
     inkscape:document-units="px"
     inkscape:current-layer="layer1"
     showgrid="false"
     fit-margin-top="0"
     fit-margin-left="0"
     fit-margin-right="0"
     fit-margin-bottom="0"
     inkscape:window-width="1325"
     inkscape:window-height="747"
     inkscape:window-x="41"
     inkscape:window-y="21"
     inkscape:window-maximized="1" />
  <metadata
     id="metadata3258">
    <rdf:RDF>
      <cc:Work
         rdf:about="">
        <dc:format>image/svg+xml</dc:format>
        <dc:type
           rdf:resource="http://purl.org/dc/dcmitype/StillImage" />
        <dc:title></dc:title>
      </cc:Work>
    </rdf:RDF>
  </metadata>
  <g
     inkscape:label="Layer 1"
     inkscape:groupmode="layer"
     id="layer1"
     transform="translate(-473.68505,-74.019466)">
    <g
       id="g56"
       transform="matrix(1.8609845,0,0,-1.8609845,633.27637,305.45869)"
       style="fill:#0d597f;fill-opacity:1">
      <path
         d="M 0,0 V 16.7328 L -12.049067,4.6709333 c 1.298134,-0.9034666 2.5216003,-1.6458666 3.6725337,-2.2496 1.1509333,-0.6048 2.2282666,-1.072 3.232,-1.42719997 C -4.1408,0.63786667 -3.2096,0.39466667 -2.3530667,0.2368 -1.4954667,0.08 -0.71146667,0.0096 0,0 M 61.601067,1.3909333 C 61.6224,1.3728 61.739733,1.2736 61.956267,1.136 62.173867,0.99733333 62.491733,0.8192 62.914133,0.6432 63.335467,0.46826667 63.8624,0.2944 64.498133,0.16533333 65.133867,0.0352 65.8784,-0.05013333 66.736,-0.05013333 c 0.715733,0 1.505067,0.06293333 2.370133,0.21333333 0.866134,0.15146667 1.805867,0.39146667 2.821334,0.7456 1.016533,0.3552 2.107733,0.8245333 3.274666,1.4336 1.166934,0.6101333 2.4096,1.3610667 3.728,2.2784 l -9.143466,8.9568 -30.304,30.417067 L 26.1856,30.6944 8.2485333,49.191467 -36.769067,4.6826667 c 1.317334,-0.9173334 2.557867,-1.6682667 3.723734,-2.2784 1.165866,-0.6090667 2.256,-1.0784 3.271466,-1.43360003 1.0144,-0.35413334 1.954134,-0.59413334 2.8192,-0.74453334 0.864,-0.15146666 1.653334,-0.2144 2.368,-0.2144 0.8576,0 1.602134,0.08533334 2.2368,0.21546667 0.635734,0.12906667 1.1616,0.30293333 1.584,0.47893333 0.4224,0.17493334 0.7392,0.35306667 0.9568,0.49173337 0.2176,0.1386666 0.334934,0.2378666 0.356267,0.256 L 0.86933333,21.776 8.1365333,28.744533 28.260267,8.6208 35.290667,1.3909333 C 35.312,1.3728 35.429333,1.2736 35.646933,1.136 c 0.2176,-0.13866667 0.5344,-0.3168 0.9568,-0.4928 0.4224,-0.17493333 0.949334,-0.3488 1.584,-0.47786667 0.635734,-0.13013333 1.381334,-0.21546666 2.238934,-0.21546666 0.714666,0 1.505066,0.06293333 2.370133,0.21333333 0.865067,0.15146667 1.805867,0.39146667 2.821333,0.7456 1.015467,0.3552 2.106667,0.8245333 3.2736,1.4336 1.166934,0.6101333 2.4096,1.3610667 3.728,2.2784 L 36.471467,20.434133 39.477333,23.44 53.451733,9.4656 61.601067,1.3909333 M 61.4272,85.674667 101.12747,16.893867 61.4272,-51.886933 H -18 L -57.700267,16.893867 -18,85.674667 Z"
         style="fill:#0d597f;fill-opacity:1;fill-rule:nonzero;stroke:none;stroke-width:1.06666672"
         id="path58"
         inkscape:connector-curvature="0" />
    </g>
    <g
       id="g60"
       transform="matrix(1.25,0,0,-1.25,679.77705,281.0888)"
       style="fill:#0d597f;fill-opacity:1">
      <path
         d="M 0,0 -10.573867,10.554667 -9.8218667,11.310933 0.82666667,0.77866667 Z"
         style="fill:#0d597f;fill-opacity:1;fill-rule:nonzero;stroke:none;stroke-width:1.06666672"
         id="path62"
         inkscape:connector-curvature="0" />
    </g>
  </g>
</svg>
