<?xml version="1.0" encoding="UTF-8" standalone="no"?>
<svg
   xmlns:dc="http://purl.org/dc/elements/1.1/"
   xmlns:cc="http://creativecommons.org/ns#"
   xmlns:rdf="http://www.w3.org/1999/02/22-rdf-syntax-ns#"
   xmlns:svg="http://www.w3.org/2000/svg"
   xmlns="http://www.w3.org/2000/svg"
   xmlns:sodipodi="http://sodipodi.sourceforge.net/DTD/sodipodi-0.dtd"
   xmlns:inkscape="http://www.inkscape.org/namespaces/inkscape"
   width="400"
   height="400"
   viewBox="0 0 400 400"
   version="1.1"
   preserveAspectRatio="xMidYMid"
   id="svg10"
   sodipodi:docname="coreos-icon.svg"
   inkscape:version="0.92.1 unknown">
  <metadata
     id="metadata16">
    <rdf:RDF>
      <cc:Work
         rdf:about="">
        <dc:format>image/svg+xml</dc:format>
        <dc:type
           rdf:resource="http://purl.org/dc/dcmitype/StillImage" />
        <dc:title></dc:title>
      </cc:Work>
    </rdf:RDF>
  </metadata>
  <defs
     id="defs14" />
  <sodipodi:namedview
     pagecolor="#ffffff"
     bordercolor="#666666"
     borderopacity="1"
     objecttolerance="10"
     gridtolerance="10"
     guidetolerance="10"
     inkscape:pageopacity="0"
     inkscape:pageshadow="2"
     inkscape:window-width="1366"
     inkscape:window-height="744"
     id="namedview12"
     showgrid="false"
     inkscape:zoom="0.39731116"
     inkscape:cx="499.74618"
     inkscape:cy="189.92727"
     inkscape:window-x="1366"
     inkscape:window-y="24"
     inkscape:window-maximized="1"
     inkscape:current-layer="svg10" />
  <g
     id="g7716"
     transform="translate(72,72)">
    <path
       id="path7710"
       d="M 128.00834,0 C 57.417299,0 0,57.420071 0,127.9994 0,198.5835 57.417299,256 128.00834,256 198.57794,256 256,198.5835 256,127.9994 256,57.420071 198.57794,0 128.00834,0 Z"
       inkscape:connector-curvature="0"
       style="fill:#53a3da" />
    <path
       id="path7712"
       d="m 128.57159,11.252619 c -20.38329,0 -37.6707,32.604065 -43.914358,77.920709 -0.199316,1.457718 -0.392734,2.933128 -0.563745,4.417972 -0.852695,7.13173 -1.430593,14.5477 -1.719542,22.18185 -0.137988,3.49334 -0.206392,7.02441 -0.206392,10.6003 0,3.57236 0.0684,7.11051 0.206392,10.59677 0.288949,7.63297 0.866847,15.05365 1.719542,22.18538 9.557726,1.23718 19.777083,2.0769 30.436353,2.47553 4.60786,0.17219 9.28412,0.2748 14.04293,0.2748 4.74466,0 9.43507,-0.10379 14.02877,-0.2748 10.67224,-0.39863 20.88453,-1.23835 30.45051,-2.47553 1.05201,-0.13445 2.08751,-0.28187 3.13598,-0.43401 39.80892,-5.59028 67.50203,-17.96437 67.50203,-32.34814 C 243.68888,62.790512 192.14391,11.252619 128.57159,11.252619 Z"
       inkscape:connector-curvature="0"
       style="fill:#f1606d" />
    <path
       id="path7714"
       d="m 176.18685,94.021775 c -1.15462,-1.68416 -2.39297,-3.297557 -3.7127,-4.847268 -10.56256,-12.450755 -26.29672,-20.362061 -43.90138,-20.362061 -5.70704,0 -10.789,8.735696 -14.04293,22.300968 -1.2926,5.408655 -2.29625,11.580366 -2.94256,18.278086 -0.50949,5.36738 -0.78429,11.0756 -0.78429,16.98195 0,5.90636 0.2748,11.61575 0.78429,16.97841 5.37092,0.5095 11.07088,0.78311 16.98549,0.78311 5.90753,0 11.60749,-0.27361 16.97841,-0.78311 11.80681,-1.12041 21.99904,-3.39073 29.21923,-6.38164 7.13056,-2.94964 11.35039,-6.62224 11.35039,-10.59677 -0.001,-11.99197 -3.66317,-23.13007 -9.93395,-32.351675 z"
       inkscape:connector-curvature="0"
       style="fill:#ffffff" />
  </g>
</svg>
