<?xml version="1.0" encoding="UTF-8" standalone="no"?>
<svg
   xmlns:dc="http://purl.org/dc/elements/1.1/"
   xmlns:cc="http://creativecommons.org/ns#"
   xmlns:rdf="http://www.w3.org/1999/02/22-rdf-syntax-ns#"
   xmlns:svg="http://www.w3.org/2000/svg"
   xmlns="http://www.w3.org/2000/svg"
   xmlns:sodipodi="http://sodipodi.sourceforge.net/DTD/sodipodi-0.dtd"
   xmlns:inkscape="http://www.inkscape.org/namespaces/inkscape"
   width="400"
   height="400"
   viewBox="0 0 400 400"
   version="1.1"
   preserveAspectRatio="xMidYMid"
   id="svg10"
   sodipodi:docname="django.svg"
   inkscape:version="0.92.1 unknown">
  <metadata
     id="metadata16">
    <rdf:RDF>
      <cc:Work
         rdf:about="">
        <dc:format>image/svg+xml</dc:format>
        <dc:type
           rdf:resource="http://purl.org/dc/dcmitype/StillImage" />
        <dc:title></dc:title>
      </cc:Work>
    </rdf:RDF>
  </metadata>
  <defs
     id="defs14" />
  <sodipodi:namedview
     pagecolor="#ffffff"
     bordercolor="#666666"
     borderopacity="1"
     objecttolerance="10"
     gridtolerance="10"
     guidetolerance="10"
     inkscape:pageopacity="0"
     inkscape:pageshadow="2"
     inkscape:window-width="1366"
     inkscape:window-height="744"
     id="namedview12"
     showgrid="false"
     inkscape:zoom="0.39731116"
     inkscape:cx="499.74618"
     inkscape:cy="189.92727"
     inkscape:window-x="1366"
     inkscape:window-y="24"
     inkscape:window-maximized="1"
     inkscape:current-layer="svg10" />
  <g
     id="g8"
     style="fill:#2ba977"
     transform="translate(72.40655,37.30583)">
    <path
       d="m 114.78426,0 h 53.278 v 244.19111 c -27.29041,5.16217 -47.38108,7.19308 -69.117405,7.19308 C 33.873014,251.31627 0,222.24509 0,166.41212 0,112.61686 35.930079,77.704273 91.607987,77.704273 c 8.639673,0 15.222283,0.679233 23.176273,2.716933 z m 1.86718,124.42665 c -6.23976,-2.0377 -11.38243,-2.71694 -17.965037,-2.71694 -26.947559,0 -42.512689,16.43745 -42.512689,45.24373 0,28.04553 14.879442,43.53205 42.169844,43.53205 5.896922,0 10.696742,-0.33283 18.307882,-1.35168 z"
       id="path2"
       inkscape:connector-curvature="0" />
    <path
       d="M 255.1869,84.260571 V 206.52254 c 0,42.10566 -3.15417,62.3536 -12.41096,79.8099 -8.63968,16.78385 -20.02211,27.3663 -43.54123,39.0559 l -49.43814,-23.29769 c 23.51912,-10.92887 34.90155,-20.58756 42.16985,-35.32692 7.61114,-15.07219 10.01105,-32.52848 10.01105,-78.44464 V 84.260571 Z"
       id="path4"
       inkscape:connector-curvature="0" />
    <path
       d="m 196.608,0 h 53.278 v 54.134883 h -53.278 z"
       id="path6"
       inkscape:connector-curvature="0" />
  </g>
</svg>
