<?xml version="1.0" encoding="UTF-8" standalone="no"?>
<svg
   xmlns:dc="http://purl.org/dc/elements/1.1/"
   xmlns:cc="http://creativecommons.org/ns#"
   xmlns:rdf="http://www.w3.org/1999/02/22-rdf-syntax-ns#"
   xmlns:svg="http://www.w3.org/2000/svg"
   xmlns="http://www.w3.org/2000/svg"
   xmlns:sodipodi="http://sodipodi.sourceforge.net/DTD/sodipodi-0.dtd"
   xmlns:inkscape="http://www.inkscape.org/namespaces/inkscape"
   width="400"
   height="400"
   viewBox="0 0 400 400"
   version="1.1"
   preserveAspectRatio="xMidYMid"
   id="svg26"
   sodipodi:docname="drupal.svg"
   inkscape:version="0.92.1 unknown">
  <metadata
     id="metadata32">
    <rdf:RDF>
      <cc:Work
         rdf:about="">
        <dc:format>image/svg+xml</dc:format>
        <dc:type
           rdf:resource="http://purl.org/dc/dcmitype/StillImage" />
        <dc:title></dc:title>
      </cc:Work>
    </rdf:RDF>
  </metadata>
  <defs
     id="defs30" />
  <sodipodi:namedview
     pagecolor="#ffffff"
     bordercolor="#666666"
     borderopacity="1"
     objecttolerance="10"
     gridtolerance="10"
     guidetolerance="10"
     inkscape:pageopacity="0"
     inkscape:pageshadow="2"
     inkscape:window-width="1325"
     inkscape:window-height="747"
     id="namedview28"
     showgrid="false"
     inkscape:zoom="0.44140625"
     inkscape:cx="458.38479"
     inkscape:cy="24.659065"
     inkscape:window-x="41"
     inkscape:window-y="21"
     inkscape:window-maximized="1"
     inkscape:current-layer="svg26" />
  <g
     id="g24"
     style="fill:none"
     transform="translate(71.588606,52.208808)">
    <path
       d="M 84.790786,47.571175 C 33.308887,69.437759 0.90944747,112.31925 0.90944747,167.41703 c 0,70.41593 57.08401553,127.50095 127.50294253,127.50095 70.41594,0 127.50095,-57.08502 127.50095,-127.50095 0,-84.663287 -78.66372,-118.319816 -78.66372,-118.319816 0,0 -17.18189,-7.135128 -26.78836,-13.540109 0,0 -12.13759,-7.417027 -33.29195,-34.72435792 0,0 0.47913,31.02580492 -32.378524,46.73942392"
       id="path2"
       inkscape:connector-curvature="0"
       style="fill:#136da9" />
    <path
       d="m 115.65323,270.23838 c -4.47851,-3.11284 -3.41367,-13.02213 8.72193,-5.94279 0,0 25.83907,18.97787 66.75125,-3.79118 3.18058,-1.77009 7.07935,4.47452 -3.03415,10.20015 0,0 -41.33951,21.15138 -72.43903,-0.46618 z"
       id="path4"
       inkscape:connector-curvature="0"
       style="fill:#f0f0f0" />
    <path
       d="m 115.65323,270.23838 c -4.47851,-3.11284 -3.41367,-13.02213 8.72193,-5.94279 0,0 25.83907,18.97787 66.75125,-3.79118 3.18058,-1.77009 7.07935,4.47452 -3.03415,10.20015 0,0 -41.33951,21.15138 -72.43903,-0.46618 z"
       id="path6"
       inkscape:connector-curvature="0"
       style="stroke:#fffdff" />
    <path
       d="m 168.3703,238.76034 c 15.04424,1.76212 9.87144,8.99586 13.90768,10.1115 8.2159,2.27711 4.67673,-6.69982 4.67673,-6.69982 -6.06929,-12.1356 -16.56131,-11.37657 -16.56131,-11.37657 -16.4348,-2.52912 -28.6979,13.14765 -28.6979,13.14765 -3.03415,6.69883 1.21127,7.04348 2.78114,6.3213 7.96389,-3.66767 12.80896,-12.80498 23.89366,-11.50406 z"
       id="path8"
       inkscape:connector-curvature="0"
       style="fill:#f0f0f0" />
    <path
       d="m 168.3703,238.76034 c 15.04424,1.76212 9.87144,8.99586 13.90768,10.1115 8.2159,2.27711 4.67673,-6.69982 4.67673,-6.69982 -6.06929,-12.1356 -16.56131,-11.37657 -16.56131,-11.37657 -16.4348,-2.52912 -28.6979,13.14765 -28.6979,13.14765 -3.03415,6.69883 1.21127,7.04348 2.78114,6.3213 7.96389,-3.66767 12.80896,-12.80498 23.89366,-11.50406 z"
       id="path10"
       inkscape:connector-curvature="0"
       style="stroke:#fffdff" />
    <path
       d="m 17.597261,231.53058 c 0,0 45.71642,37.82326 156.967839,-46.44059 0,0 55.87873,-35.07897 54.1953,-95.224029 0,0 -18.08236,-25.987486 -48.59417,-39.389136 -4.34105,-1.907549 -42.46712,-22.71228 -63.05768,-48.8013698 0,0 -3.73143,75.6853538 -100.669764,105.5656348 0,0 -24.4265837,36.02826 -11.1105992,94.58353 0,0 8.5237042,23.74126 12.2690742,29.70596"
       id="path12"
       inkscape:connector-curvature="0"
       style="fill:#008ece" />
    <path
       d="m 90.114988,245.58668 c 0,0 -37.926848,1.01005 -33.37463,-39.44492 0,0 7.922055,-45.51222 61.186992,-35.39773 0,0 11.63256,2.52813 33.37662,19.21594 0,0 14.34895,11.06179 22.24909,10.8536 0,0 6.13204,0.58771 18.88025,-7.48177 0,0 25.99944,-20.06263 35.08893,-19.46796 0.22612,0.0149 18.34434,-1.98126 18.34434,27.22167 0,0 0.33669,32.19623 -23.9345,42.9831 0,0 -6.40598,2.19144 -13.31798,-5.05625 0,0 -19.8903,-22.58777 -29.66711,-26.29628 0,0 -5.64595,-2.21236 -13.14764,0.50602 0,0 -4.88791,0.50602 -24.94556,13.82201 0,0 -33.7143,21.0697 -50.738802,18.54257 z"
       id="path14"
       inkscape:connector-curvature="0"
       style="fill:#f0f0f0" />
    <path
       d="m 90.114988,245.58668 c 0,0 -37.926848,1.01005 -33.37463,-39.44492 0,0 7.922055,-45.51222 61.186992,-35.39773 0,0 11.63256,2.52813 33.37662,19.21594 0,0 14.34895,11.06179 22.24909,10.8536 0,0 6.13204,0.58771 18.88025,-7.48177 0,0 25.99944,-20.06263 35.08893,-19.46796 0.22612,0.0149 18.34434,-1.98126 18.34434,27.22167 0,0 0.33669,32.19623 -23.9345,42.9831 0,0 -6.40598,2.19144 -13.31798,-5.05625 0,0 -19.8903,-22.58777 -29.66711,-26.29628 0,0 -5.64595,-2.21236 -13.14764,0.50602 0,0 -4.88791,0.50602 -24.94556,13.82201 0,0 -33.7143,21.0697 -50.738802,18.54257 z"
       id="path16"
       inkscape:connector-curvature="0"
       style="stroke:#fffdff" />
    <path
       d="M 110.17363,100.4536 C 134.72872,65.282988 117.10855,0.66440467 117.10855,0.66440467 114.94201,35.724451 85.361556,47.294257 85.361556,47.294257 32.398444,70.153961 16.438786,106.22904 16.438786,106.22904 c 11.349665,16.09513 41.479969,69.06522 93.734844,-5.77544"
       id="path18"
       inkscape:connector-curvature="0"
       style="fill:#008ece" />
    <path
       d="m 117.10855,0.66440467 c 0,0 3.17858,29.49877033 -12.83487,39.10624133 0,0 -25.680684,11.954303 -33.520061,15.872996 0,0 -32.978179,19.905245 -43.848716,38.614163 0,0 -23.2631287,31.128405 8.849432,23.769155 0,0 58.070163,-16.39396 81.668985,-65.866711 0,0 1.38957,-4.171704 -3.03614,-8.469914 0,0 17.70085,-13.358818 2.72137,-43.02593033"
       id="path20"
       inkscape:connector-curvature="0"
       style="fill:#a0d8f1" />
    <path
       d="m 117.10855,0.66440467 c 0,0 1.32482,20.14331533 -15.39786,36.83312033 0,0 -5.021383,7.077354 -30.957071,18.146117 0,0 -29.690024,15.479533 -43.001028,36.948669 0,0 -19.7269412,23.796049 7.323393,17.415969 0,0 54.808903,-20.199097 74.892456,-57.29021 0,0 2.71639,-3.897774 -1.41846,-7.914086 0,0 19.66319,-15.357011 8.55857,-44.13957933"
       id="path22"
       inkscape:connector-curvature="0"
       style="fill:#f0f0f0" />
  </g>
</svg>
