<?xml version="1.0" encoding="UTF-8" standalone="no"?>
<svg
   xmlns:dc="http://purl.org/dc/elements/1.1/"
   xmlns:cc="http://creativecommons.org/ns#"
   xmlns:rdf="http://www.w3.org/1999/02/22-rdf-syntax-ns#"
   xmlns:svg="http://www.w3.org/2000/svg"
   xmlns="http://www.w3.org/2000/svg"
   xmlns:sodipodi="http://sodipodi.sourceforge.net/DTD/sodipodi-0.dtd"
   xmlns:inkscape="http://www.inkscape.org/namespaces/inkscape"
   width="400"
   height="400"
   viewBox="0 0 400 400"
   version="1.1"
   preserveAspectRatio="xMidYMid"
   id="svg28"
   sodipodi:docname="ghost.svg"
   inkscape:version="0.92.1 unknown">
  <metadata
     id="metadata34">
    <rdf:RDF>
      <cc:Work
         rdf:about="">
        <dc:format>image/svg+xml</dc:format>
        <dc:type
           rdf:resource="http://purl.org/dc/dcmitype/StillImage" />
        <dc:title></dc:title>
      </cc:Work>
    </rdf:RDF>
  </metadata>
  <defs
     id="defs32" />
  <sodipodi:namedview
     pagecolor="#ffffff"
     bordercolor="#666666"
     borderopacity="1"
     objecttolerance="10"
     gridtolerance="10"
     guidetolerance="10"
     inkscape:pageopacity="0"
     inkscape:pageshadow="2"
     inkscape:window-width="1325"
     inkscape:window-height="747"
     id="namedview30"
     showgrid="false"
     inkscape:zoom="1.4785385"
     inkscape:cx="132.22913"
     inkscape:cy="82.5"
     inkscape:window-x="41"
     inkscape:window-y="21"
     inkscape:window-maximized="1"
     inkscape:current-layer="svg28" />
  <g
     id="g26"
     transform="matrix(0.76314329,0,0,0.76314329,4.8546314,136.90053)">
    <g
       transform="translate(0,37.436559)"
       id="g12"
       style="fill:#3d515b">
      <rect
         x="0.21691182"
         y="70.801338"
         width="34.907391"
         height="17.454245"
         id="rect2" />
      <rect
         x="52.576344"
         y="70.801338"
         width="34.885368"
         height="17.454245"
         id="rect4" />
      <rect
         x="0.19048603"
         y="35.893951"
         width="87.282234"
         height="17.454245"
         id="rect6" />
      <rect
         x="0.21691182"
         y="0.9887656"
         width="52.366039"
         height="17.453144"
         id="rect8" />
      <rect
         x="70.030586"
         y="0.9887656"
         width="17.453144"
         height="17.453144"
         id="rect10" />
    </g>
    <g
       transform="translate(125.52258)"
       id="g24"
       style="fill:#404041">
      <path
         d="m 215.3428,38.325127 c -28.03118,0 -42.50812,19.822658 -42.50812,44.275337 0,24.453776 14.12019,44.278636 42.50812,44.278636 28.38792,0 42.50811,-19.82486 42.50811,-44.278636 10e-4,-24.452679 -14.47804,-44.275337 -42.50811,-44.275337 z m 21.2067,44.354615 v 0 c -0.0198,15.724456 -5.31819,28.460588 -21.2067,28.460588 -15.88852,0 -21.188,-12.735031 -21.20451,-28.460588 v 0 -0.03854 -0.03964 0 c 0.0165,-15.723355 5.31709,-28.458392 21.20561,-28.458392 15.88741,0 21.18579,12.735037 21.2056,28.458392 v 0 0.03964 c 0,0.01321 0,0.02532 0,0.03854 z"
         id="path14"
         inkscape:connector-curvature="0" />
      <path
         d="M 89.830125,125.69105 V 3.2756989 c 0,0 16.146165,-2.29353976 17.398095,-2.46200428 1.41818,-0.19158709 3.30102,0.81809888 3.30102,2.81434838 v 45.379716 c 3.35057,-3.185411 7.04027,-5.753118 11.0614,-7.709729 4.02443,-1.954409 8.74364,-2.933264 14.16533,-2.933264 4.69389,0 8.85265,0.796077 12.484,2.389333 3.63354,1.589953 6.6648,3.827338 9.09488,6.702245 2.43007,2.879312 4.27437,6.314667 5.5318,10.309368 1.25633,3.994701 1.88504,8.394598 1.88504,13.19969 V 125.68994 H 144.05147 V 70.965402 c 0,-5.251028 -1.21558,-9.316198 -3.64566,-12.19551 -2.43117,-2.876008 -6.07683,-4.315113 -10.93918,-4.315113 -3.57519,0 -6.92576,0.810391 -10.05281,2.432275 -3.13036,1.620783 -6.09115,3.825135 -8.88458,6.620765 v 62.183231 z"
         id="path16"
         inkscape:connector-curvature="0" />
      <path
         d="m 366.1791,126.8703 c -14.24461,0 -23.17213,-8.29 -23.17213,-23.7557 V 57.279037 h -16.05368 c 0,0 3.41223,-11.801325 3.682,-12.730633 0.27086,-0.928206 0.97665,-1.92578 2.39373,-2.122873 1.41709,-0.197092 9.95813,-1.388456 9.95813,-1.388456 l 3.94515,-25.097909 c 0,0 11.59102,-1.633996 13.42871,-1.908164 1.7353,-0.259854 3.30874,0.989867 3.30874,2.880413 v 24.12566 h 20.30382 v 16.241962 h -20.30382 v 45.217853 c 0,6.17373 3.75907,8.53334 7.36179,8.53334 2.20215,0 5.21799,-1.16934 7.46859,-2.21316 1.39066,-0.64303 3.54546,-0.16627 4.1026,1.77493 0.49219,1.71988 3.10944,10.84889 3.10944,10.84889 -2.2583,1.45783 -9.39657,5.42941 -19.53307,5.42941 z"
         id="path18"
         inkscape:connector-curvature="0" />
      <path
         d="m 315.57808,57.549901 c -4.03434,-1.31028 -11.61744,-3.407828 -18.83059,-3.407828 -7.34968,0 -13.13252,2.53908 -13.13252,8.650047 0,7.632654 12.46307,9.854624 20.9942,12.966263 5.70357,2.079931 20.99861,6.135191 20.99861,22.585256 0,19.982311 -16.59431,28.525561 -34.2963,28.525561 -17.70418,0 -28.1633,-6.58443 -28.1633,-6.58443 0,0 2.74608,-9.70048 3.30213,-11.61525 0.50319,-1.72318 2.50604,-2.32767 3.78219,-1.83769 4.55625,1.75621 12.78348,4.1973 22.08317,4.1973 9.41529,0 13.97044,-2.87491 13.97044,-9.0035 0,-8.156761 -12.71412,-10.649596 -21.12303,-13.302086 -5.79276,-1.825583 -21.12523,-6.083441 -21.12523,-24.175209 0,-17.822004 15.64958,-26.183569 32.37492,-26.183569 14.15762,0 21.1021,2.960791 26.28927,5.603372 0,0 -2.89032,10.073737 -3.31974,11.574503 -0.5065,1.783742 -1.96983,2.601841 -3.80422,2.00726 z"
         id="path20"
         inkscape:connector-curvature="0" />
      <path
         d="m 81.749333,41.315647 c 0,-1.927983 -1.647208,-3.03126 -3.218443,-2.851785 -6.946684,0.796078 -11.902623,4.06517 -15.108955,7.108542 -6.295948,-4.932817 -15.035182,-7.288017 -24.843561,-7.288017 -19.665204,0 -35.0296084,9.491269 -35.0296084,30.18708 0,11.880602 5.0572387,20.067096 13.0884814,24.886503 -5.964524,2.823157 -9.937204,8.81411 -9.937204,14.70376 0,9.85242 7.783501,12.93763 7.783501,12.93763 0,0 -13.60929024,6.60535 -13.60929024,19.82046 0,16.91692 15.56810324,23.7568 34.59138024,23.7568 27.421179,0 46.287003,-11.32566 46.287003,-32.12167 0,-12.7989 -9.794065,-19.8645 -31.137308,-20.70462 -12.665669,-0.49989 -20.869781,-0.95573 -22.902366,-1.62849 -2.685522,-0.89187 -4.005711,-3.04227 -4.005711,-5.41619 0,-2.62056 2.152602,-5.115594 5.546116,-6.828867 2.95969,0.524112 6.083441,0.782864 9.327208,0.782864 19.681721,0 35.03071,-9.463742 35.03071,-30.187079 0,-5.025308 -0.907286,-9.387768 -2.556697,-13.114908 2.891424,-1.542606 6.448998,-2.628267 10.696947,-2.628267 -0.0022,0 -0.0022,-9.655329 -0.0022,-11.413746 z M 27.55551,125.79785 c 0,0 10.326985,0.39088 20.646262,0.86875 11.593221,0.53622 15.205849,3.03456 15.205849,9.03762 0,7.33427 -10.074838,14.46813 -24.154288,14.46813 -13.364851,0 -20.040671,-4.64984 -20.040671,-12.3915 0,-4.44174 2.345291,-9.41089 8.342848,-11.983 z M 38.615811,84.21354 c -9.316198,0 -16.584396,-4.948232 -16.584396,-15.742073 0,-10.794942 7.274804,-15.743174 16.584396,-15.743174 9.310692,0 16.584395,4.935019 16.584395,15.743174 0,10.808155 -7.264894,15.742073 -16.584395,15.742073 z"
         id="path22"
         inkscape:connector-curvature="0" />
    </g>
  </g>
</svg>
