<?xml version="1.0" encoding="UTF-8" standalone="no"?>
<svg
   xmlns:dc="http://purl.org/dc/elements/1.1/"
   xmlns:cc="http://creativecommons.org/ns#"
   xmlns:rdf="http://www.w3.org/1999/02/22-rdf-syntax-ns#"
   xmlns:svg="http://www.w3.org/2000/svg"
   xmlns="http://www.w3.org/2000/svg"
   xmlns:sodipodi="http://sodipodi.sourceforge.net/DTD/sodipodi-0.dtd"
   xmlns:inkscape="http://www.inkscape.org/namespaces/inkscape"
   width="400"
   height="400"
   viewBox="0 0 400 400"
   version="1.1"
   preserveAspectRatio="xMidYMid"
   id="svg8541"
   sodipodi:docname="gopher.svg"
   inkscape:version="0.92.1 unknown">
  <metadata
     id="metadata8547">
    <rdf:RDF>
      <cc:Work
         rdf:about="">
        <dc:format>image/svg+xml</dc:format>
        <dc:type
           rdf:resource="http://purl.org/dc/dcmitype/StillImage" />
        <dc:title></dc:title>
      </cc:Work>
    </rdf:RDF>
  </metadata>
  <defs
     id="defs8545" />
  <sodipodi:namedview
     pagecolor="#ffffff"
     bordercolor="#666666"
     borderopacity="1"
     objecttolerance="10"
     gridtolerance="10"
     guidetolerance="10"
     inkscape:pageopacity="0"
     inkscape:pageshadow="2"
     inkscape:window-width="1325"
     inkscape:window-height="747"
     id="namedview8543"
     showgrid="false"
     inkscape:zoom="1.4967223"
     inkscape:cx="5.7328334"
     inkscape:cy="174"
     inkscape:window-x="41"
     inkscape:window-y="21"
     inkscape:window-maximized="1"
     inkscape:current-layer="svg8541" />
  <g
     id="g8539"
     transform="translate(72.147235,26.191876)">
    <path
       d="m 3.6856031,188.16498 c 0.4980545,10.25992 10.7579769,5.4786 15.3400779,2.29105 4.382879,-3.08794 5.677821,-0.49805 6.076264,-6.47471 0.298833,-3.98443 0.697277,-7.86926 0.498055,-11.85369 -6.67393,-0.59767 -13.845914,0.9961 -19.3245136,4.98054 -2.888716,1.99222 -8.0684825,8.56654 -2.5898833,11.05681"
       id="path8489"
       inkscape:connector-curvature="0"
       style="fill:#f6d2a2" />
    <path
       d="m 208.18677,314.27237 c 7.86926,4.88094 22.31284,19.62335 10.45914,26.79533 -11.35564,10.35954 -17.73074,-11.45525 -27.69182,-14.44358 4.28326,-5.87704 9.66225,-11.25603 17.23268,-12.35175 z"
       id="path8491"
       inkscape:connector-curvature="0"
       style="fill:#f6d2a2" />
    <path
       d="m 67.336965,330.90739 c -9.263813,1.39456 -14.44358,9.76187 -22.21323,14.04514 -7.271595,4.28327 -10.0607,-1.39455 -10.658365,-2.58988 -1.09572,-0.49806 -0.996109,0.49805 -2.789105,-1.29495 -6.773541,-10.65836 6.972762,-18.42801 14.144747,-23.70739 9.961089,-1.99222 16.236575,6.67393 21.515953,13.54708 z"
       id="path8493"
       inkscape:connector-curvature="0"
       style="fill:#f6d2a2" />
    <path
       d="m 251.91595,186.87004 c -0.49805,10.25992 -10.75797,5.4786 -15.34008,2.29105 -4.38287,-3.08794 -5.67782,-0.49806 -6.07626,-6.47471 -0.29883,-3.98443 -0.69728,-7.86926 -0.49805,-11.8537 6.67393,-0.59766 13.84591,0.99611 19.32451,4.98055 2.7891,1.99222 8.06848,8.56654 2.58988,11.05681"
       id="path8495"
       inkscape:connector-curvature="0"
       style="fill:#f6d2a2" />
    <path
       d="M 224.72218,61.758755 C 260.28327,49.207782 232.49183,0.49805448 201.51284,22.014008 181.19222,4.5821012 153.20156,1.3945525 123.81634,1.3945525 95.028794,3.6856031 67.635798,8.9649805 48.510506,25.699611 17.631128,5.7774319 -10.857587,53.590662 25.400778,65.64358 c -10.160311,39.44591 1.394553,79.68872 -0.199222,119.83191 -1.494163,36.05914 -10.957198,84.37042 9.064592,116.74396 17.033463,27.69183 53.690272,37.55331 83.872372,38.64903 38.54942,1.39455 85.26693,-8.06848 103.99378,-45.42257 17.92996,-35.56109 12.94941,-79.88793 10.65836,-118.23813 -2.29105,-38.74864 1.99222,-78.094939 -8.06848,-115.449025 z"
       id="path8497"
       inkscape:connector-curvature="0"
       style="fill:#69d7e2" />
    <path
       d="m 254.60545,180.79377 c -0.99611,-2.09182 -2.88872,-4.48249 -4.68172,-5.77743 -4.5821,-3.28716 -10.45914,-5.08015 -16.5354,-5.27938 -0.19923,-6.17587 -0.39845,-12.94941 -0.39845,-21.51595 v -7.76965 c -0.0996,-24.50428 -0.39844,-35.26226 -1.79299,-48.709726 -1.09572,-10.558755 -2.78911,-20.320622 -5.17977,-29.484825 8.06848,-3.087937 13.34786,-8.168093 15.43969,-14.742412 1.99222,-6.076265 0.99611,-12.949417 -2.39066,-19.025681 -3.48638,-5.976654 -9.06459,-10.459144 -15.5393,-12.25214 -6.97276,-1.892607 -14.54319,-0.498055 -21.81479,4.382879 C 195.23735,15.140856 187.76654,10.957198 179.39922,7.7696498 164.5572,2.2910506 147.32451,0.19922179 123.91595,0.19922179 V 1.1953307 l -0.0996,-0.99610891 C 98.814008,2.1914397 80.286381,6.0762646 64.946303,13.547082 58.770428,16.535409 53.291829,20.121401 48.510506,24.305058 41.1393,19.722957 33.469261,18.627237 26.396887,20.818677 19.822568,22.810895 14.144747,27.492607 10.757977,33.568872 7.3712062,39.645136 6.5743191,46.617899 8.8653697,52.594552 11.15642,58.571206 16.435798,63.252918 24.305058,66.141634 21.814786,76.202335 20.519844,86.8607 20.320623,98.614786 c -0.199222,11.455254 0.298832,20.619454 2.091828,41.338524 1.294942,15.43969 1.792996,22.51206 1.992218,31.0786 -6.773541,-0.29884 -13.547082,1.49416 -18.6272371,5.17976 -1.7929961,1.29494 -3.785214,3.58599 -4.6817121,5.77743 -1.29494159,2.78911 -0.79688711,5.27938 1.7929962,6.77355 0.3984435,4.78132 3.0879377,6.97276 7.171984,6.57431 2.988327,-0.29883 6.574319,-1.8926 9.662257,-4.08404 0.697276,-0.49806 1.394553,-0.8965 2.091829,-1.19533 0.298833,-0.0996 0.498054,-0.19922 0.796887,-0.29884 0,0 0.597665,-0.19922 0.796887,-0.29883 0.298833,-0.0996 0.597666,-0.19922 0.796887,-0.39844 -0.199221,4.68171 -0.597665,9.56264 -1.494163,20.71906 -0.996109,12.55098 -1.494163,19.42413 -1.693385,27.09417 -0.896498,28.48871 2.490272,49.20778 12.650584,65.64358 3.187548,5.17976 7.072373,9.76187 11.654474,13.94552 -0.896498,0.59767 -4.681712,3.38677 -5.877043,4.28327 -4.183657,3.18755 -7.072373,5.87704 -8.765758,8.86537 -2.19144,3.88483 -2.19144,7.76965 0.298832,11.8537 l 0.09961,0.0996 0.09961,0.0996 c 1.09572,1.09572 1.693385,1.39455 2.490273,1.39455 h 0.09961 0.199222 v 0 c 0.09961,0.19922 0.199222,0.29883 0.298833,0.49806 0.298832,0.49805 0.597665,0.89649 0.896498,1.29494 2.490272,2.88871 5.976654,3.58599 10.658366,0.79689 2.490272,-1.29495 4.283268,-2.78911 8.068482,-5.97666 0.09961,-0.0996 0.09961,-0.0996 0.199222,-0.19922 6.076264,-5.17977 9.064591,-7.07237 13.547082,-7.76965 l 1.593774,-0.29883 c 0.597665,0.29883 1.195331,0.49805 1.892607,0.79688 14.144747,5.67783 30.580543,8.76576 47.215563,9.36343 21.51596,0.79689 42.23502,-1.89261 59.76654,-8.26771 4.68171,-1.69338 9.06459,-3.6856 13.24825,-5.87704 2.58988,0.99611 4.78132,3.08794 8.96498,7.96887 0.19922,0.19923 0.19922,0.19923 0.29883,0.39845 0.19922,0.19922 0.19922,0.29883 0.29883,0.39844 0.19923,0.29883 0.49806,0.49805 0.69728,0.79689 3.28716,3.88482 5.4786,5.77743 7.96887,6.87315 3.28716,1.39455 6.47471,0.69728 9.76187,-2.29105 5.77743,-3.58599 6.17588,-9.1642 2.39066,-15.5393 -2.68949,-4.48249 -7.3712,-9.1642 -11.75408,-12.15253 5.17976,-5.08016 9.66225,-11.15642 13.14863,-18.02957 9.56265,-19.12529 13.24825,-41.43813 13.04903,-70.12607 -0.0996,-10.16031 -0.49805,-19.02568 -1.59377,-35.95954 v -0.49805 c 0.49805,0.19922 0.99611,0.49805 1.49416,0.8965 3.08794,2.09183 6.67393,3.78521 9.66226,4.08404 4.08404,0.39845 6.77354,-1.79299 7.17198,-6.57431 v 0 c 2.49027,-1.59378 2.98833,-4.08405 1.69339,-6.87316 z M 222.92918,18.328405 c 5.97666,1.593774 11.15642,5.777432 14.34397,11.355642 3.18755,5.57821 4.08405,11.853696 2.29105,17.431906 -1.89261,5.877043 -6.67393,10.558755 -14.14475,13.34786 -1.49416,-5.378988 -3.28715,-10.658366 -5.27937,-15.738521 2.88871,-2.490273 4.28327,-5.57821 1.99222,-9.96109 -2.29106,-4.382879 -6.27549,-4.880934 -10.35954,-3.585992 -2.58988,-3.38677 -5.4786,-6.375097 -8.46692,-9.164202 6.57432,-4.183658 13.34786,-5.378989 19.62334,-3.685603 z M 10.558755,51.996887 C 8.4669261,46.617899 9.1642023,40.242802 12.351751,34.664591 c 3.187549,-5.57821 8.367315,-9.961089 14.543191,-11.754085 6.375097,-1.892607 13.248249,-0.996109 20.021789,2.988327 -3.884824,3.486381 -7.371206,7.470817 -10.359533,11.853696 -5.179766,-2.689494 -10.459144,-3.187549 -13.44747,2.291051 -3.087938,5.877043 0.498054,9.562646 5.57821,12.351751 -0.697276,1.693385 -1.394553,3.486381 -1.992218,5.279377 -0.697276,2.19144 -1.394553,4.48249 -1.992218,6.773541 C 17.431907,61.659144 12.650584,57.375875 10.558755,51.996887 Z M 22.611673,187.76654 c -0.09961,0 -0.697276,0.19922 -0.697276,0.29883 -0.298833,0.0996 -0.597666,0.19922 -0.896498,0.39844 -0.796887,0.29884 -1.593774,0.79689 -2.390662,1.39456 -2.789105,1.99221 -6.175875,3.48638 -8.7657584,3.6856 -2.9883269,0.29883 -4.6817121,-0.99611 -4.9805448,-4.5821 2.0918288,-0.69728 2.9883269,-1.19533 3.7852141,-2.39066 l -1.5937744,-1.19534 c -0.5976653,0.79689 -1.1953307,1.09572 -2.9883268,1.69339 v 0 c -0.099611,0 -0.099611,0 -0.1992218,0.0996 -1.5937743,-0.8965 -1.892607,-2.29105 -0.9961089,-4.28327 0.7968871,-1.79299 2.5898832,-3.88482 4.0840466,-4.98054 4.7813234,-3.48638 11.1564204,-5.17977 17.5315174,-4.78133 0,2.49028 0.09961,4.98055 0,7.37121 0,0.29883 0,0.49806 -0.09961,0.79689 -0.09961,1.39455 -0.09961,1.99222 -0.199222,2.68949 v 0 c -0.298832,2.88872 -0.498054,3.28716 -1.593774,3.78522 z m 30.08249,150.31284 c -0.09961,0.0996 -0.09961,0.0996 -0.199221,0.19922 -3.685603,3.18755 -5.4786,4.48249 -7.76965,5.77743 -3.785214,2.29105 -6.375097,1.793 -8.168094,-0.39844 -0.298832,-0.29884 -0.498054,-0.69728 -0.697276,-0.99611 -0.09961,-0.0996 -0.199222,-0.29883 -0.298832,-0.39845 0,0 0,0 0,-0.0996 0.199221,-1.79299 0.896498,-3.08793 2.689494,-5.87704 0.09961,-0.0996 0.09961,-0.0996 0.09961,-0.19922 1.095719,-1.59378 1.593774,-2.49027 2.091828,-3.58599 l -1.792996,-0.79689 c -0.398443,0.8965 -0.896498,1.69339 -1.892607,3.28716 -0.09961,0.0996 -0.09961,0.0996 -0.09961,0.19922 -1.792996,2.58989 -2.589883,4.18366 -2.988326,5.97665 h -0.09961 c 0,0 0,0 -0.09961,0 h -0.199222 c -0.199222,-0.0996 -0.498055,-0.29883 -0.896498,-0.69727 -3.884825,-6.17588 -0.796887,-11.45525 7.968872,-18.02957 1.095719,-0.79689 4.781322,-3.38677 5.777431,-4.18366 0.199222,0 0.398444,-0.0996 0.597666,-0.19922 5.378988,4.5821 11.654474,8.56653 18.627237,11.85369 v 0 c 0,0.0996 0.09961,0.19923 0.199222,0.29884 -4.084047,0.99611 -7.271596,3.08793 -12.849806,7.86926 z M 219.94086,327.22179 c 3.08793,5.17977 2.98832,9.36342 -0.8965,12.25214 -0.29884,-0.59767 -0.49806,-1.29494 -0.8965,-2.29105 0,-0.0996 0,-0.0996 -0.0996,-0.19922 -1.39455,-3.78522 -2.29105,-5.37899 -3.98444,-7.17199 l -1.39455,1.39456 c 1.49416,1.39455 2.19144,2.88871 3.58599,6.37509 0,0.0996 0,0.0996 0.0996,0.19923 0.49806,1.29494 0.79689,2.09182 1.09572,2.7891 -2.58988,2.19144 -4.88093,2.58988 -7.27159,1.49416 -2.09183,-0.8965 -4.08405,-2.7891 -7.2716,-6.37509 -0.19922,-0.19923 -0.39844,-0.49806 -0.59766,-0.79689 -0.0996,-0.0996 -0.19922,-0.19922 -0.29884,-0.39845 -0.19922,-0.19922 -0.19922,-0.19922 -0.29883,-0.39844 -3.6856,-4.28327 -5.87704,-6.57432 -8.2677,-7.86926 5.57821,-3.18755 10.55875,-6.77354 15.04124,-10.9572 4.18366,3.08794 8.86537,7.67004 11.45526,11.95331 z m 1.39455,-32.27393 c -8.56654,17.23268 -23.70739,29.38521 -44.02802,36.75642 -17.33229,6.27549 -37.85214,8.86537 -59.06926,8.06848 -36.557196,-1.29494 -68.233461,-14.04513 -83.075484,-38.15097 -9.96109,-16.03735 -13.248249,-36.45759 -12.351751,-64.54786 0.298833,-7.67004 0.697276,-14.54319 1.693385,-27.09416 1.09572,-14.14475 1.394553,-18.2288 1.693385,-24.6039 0.199222,-4.5821 0.199222,-9.26381 0.09961,-14.24435 C 26.098054,162.36576 25.6,155.393 24.305058,139.75409 22.512062,119.03502 22.014008,109.97043 22.21323,98.614786 22.512062,83.673152 24.50428,70.524514 28.687938,58.073152 35.461479,37.85214 47.912841,24.205447 65.842802,15.340078 80.884047,7.9688716 99.112841,4.1836576 123.91595,2.1914397 c 23.20934,0 40.14319,2.0918288 54.786,7.4708171 17.53151,6.4747082 30.58054,17.8303502 39.54552,35.2622572 5.77743,14.144747 9.1642,29.385214 10.9572,46.916731 1.39455,13.347855 1.69338,24.105835 1.79299,48.510505 v 7.76965 c 0.0996,12.05292 0.29884,20.51984 0.79689,28.98677 0.19922,3.28716 0.29883,4.68171 0.79689,12.55097 1.09572,16.93386 1.49416,25.69961 1.59377,35.85993 0.19923,28.58832 -3.38677,50.60233 -12.8498,69.42879 z m 30.48093,-109.07393 v 0 c -0.0996,0 -0.19922,-0.0996 -0.29883,-0.0996 -1.793,-0.59767 -2.39066,-0.99611 -2.98833,-1.69339 l -1.59377,1.19533 c 0.8965,1.19533 1.79299,1.69339 3.78521,2.39067 -0.39844,3.58599 -2.09183,4.88093 -4.98054,4.5821 -2.58989,-0.19923 -5.97666,-1.793 -8.76576,-3.68561 -0.79689,-0.59766 -1.59378,-0.99611 -2.39066,-1.39455 -0.0996,0 -0.19922,-0.0996 -0.29884,-0.0996 -0.39844,-5.4786 -0.39844,-6.87315 -0.59766,-9.76187 -0.0996,-1.79299 -0.19922,-3.58599 -0.29883,-5.37899 5.57821,0.0996 11.05681,1.793 15.24046,4.88094 1.49417,1.09572 3.28716,3.18755 4.08405,4.98054 0.99611,1.69339 0.79689,3.18755 -0.8965,4.08405 z"
       id="path8499"
       inkscape:connector-curvature="0"
       style="fill:#000000" />
    <g
       transform="translate(108.93491,96.951015)"
       id="g8507">
      <path
         d="m 29.982879,7.1719844 c 0.09961,5.0801556 1.09572,10.6583656 0.199222,16.0373536 -1.394552,2.589884 -3.984436,2.888716 -6.275486,3.884825 -3.187549,-0.498054 -5.877043,-2.589883 -7.171985,-5.57821 -0.796887,-6.076264 0.199222,-11.8536962 0.498055,-17.9299608 0,-0.1992218 3.785214,0.099611 7.171984,1.0957199 2.888716,0.896498 5.57821,2.3906614 5.57821,2.4902723 z"
         id="path8501"
         inkscape:connector-curvature="0"
         style="fill:#ffffff" />
      <path
         d="M 1.7929961,7.570428 C -0.99610895,18.129183 5.4785992,35.361868 16.136965,21.217121 15.340078,15.240467 16.236576,9.463035 16.535409,3.5859922 16.635019,3.0879377 1.892607,6.8731517 1.7929961,7.570428 Z"
         id="path8503"
         inkscape:connector-curvature="0"
         style="fill:#ffffff" />
      <path
         d="M 31.17821,11.853697 C 30.978988,8.8653697 30.879377,7.6700389 30.879377,6.1758755 V 5.4785992 L 30.182101,5.2793774 17.631128,1.3945525 V 0.69727626 l -1.294941,0.29883269 h -0.09961 V 1.0957198 L 2.0918288,4.6817121 1.5937743,4.781323 1.3945525,5.2793774 C -0.79688716,10.558755 -0.29883269,18.527626 2.4902724,23.40856 5.677821,28.98677 10.857587,29.086381 16.136965,22.711284 17.631128,25.6 20.420233,27.592218 23.607782,28.090272 h 0.298833 l 0.298832,-0.09961 c 0.398444,-0.199222 0.796888,-0.298833 1.494164,-0.597666 0.09961,0 0.09961,0 0.199222,-0.09961 2.888716,-0.996109 4.084046,-1.792996 5.080155,-3.685603 l 0.09961,-0.09961 v -0.199222 c 0.298833,-1.792996 0.398444,-3.685603 0.398444,-5.777432 0,-1.494163 -0.09961,-2.888715 -0.298833,-5.67782 z M 15.240467,8.1680934 c -0.09961,1.7929961 -0.199222,2.4902726 -0.298833,3.4863816 -0.199221,3.685603 -0.199221,6.474708 0.09961,9.263813 C 10.359533,26.894942 6.67393,26.894942 4.1836576,22.412451 1.7929961,18.228794 1.2949416,11.15642 3.0879377,6.4747082 L 15.638911,3.2871595 C 15.5393,4.5821012 15.439689,5.8770428 15.240467,8.1680934 Z M 29.185992,22.910506 c -0.697276,1.195331 -1.593774,1.792996 -3.984436,2.589883 -0.09961,0 -0.09961,0 -0.199221,0.09961 -0.597666,0.199222 -0.996109,0.398444 -1.294942,0.498054 -2.689494,-0.498054 -4.980545,-2.29105 -6.076265,-4.781323 -0.298832,-2.689494 -0.298832,-5.478599 -0.09961,-9.164202 0.09961,-0.996109 0.09961,-1.693385 0.298833,-3.4863811 0.199222,-2.2910506 0.298833,-3.6856032 0.298833,-4.9805448 L 28.98677,6.9727626 c 0,1.2949417 0.09961,2.4902724 0.298833,5.0801554 0.199222,2.689495 0.298833,4.084047 0.298833,5.677821 0,1.892607 -0.09961,3.585992 -0.398444,5.179767 z"
         id="path8505"
         inkscape:connector-curvature="0"
         style="fill:#000000" />
    </g>
    <g
       transform="translate(48.475508,21.975564)"
       id="g8517">
      <path
         d="M 2.2910506,38.748638 C 11.455253,74.409339 68.532296,65.245136 66.340856,29.484825 63.750973,-13.34786 -6.4747082,-5.0801556 2.2910506,38.748638"
         id="path8509"
         inkscape:connector-curvature="0"
         style="fill:#ffffff" />
      <path
         d="M 67.336965,29.385214 C 66.7393,19.025681 62.157198,10.957198 54.58677,5.8770428 47.81323,1.2949416 38.848249,-0.49805448 29.982879,0.59766537 21.11751,1.7929961 12.949416,5.7774319 7.570428,12.052918 1.5937743,19.025681 -0.69727626,28.189883 1.3945525,38.748638 L 2.2910506,38.549416 1.3945525,38.748638 C 10.757977,75.405447 69.528405,66.540078 67.336965,29.385214 Z M 3.1875486,38.549416 C 1.1953307,28.488716 3.3867704,19.922179 8.9649805,13.447471 14.045136,7.570428 21.715175,3.6856031 30.182101,2.5898833 c 8.466926,-1.0957199 16.933852,0.5976653 23.30895,4.9805447 7.072373,4.781323 11.355642,12.25214 11.953307,22.113619 2.091829,34.764202 -53.39144,43.131517 -62.2568094,8.865369 z"
         id="path8511"
         inkscape:connector-curvature="0"
         style="fill:#000000" />
      <ellipse
         cx="18.029572"
         cy="32.871593"
         rx="9.6622572"
         ry="10.459144"
         id="ellipse8513"
         style="fill:#000000" />
      <ellipse
         cx="22.412451"
         cy="35.262257"
         rx="2.2910507"
         ry="2.6894941"
         id="ellipse8515"
         style="fill:#ffffff" />
    </g>
    <g
       transform="translate(129.61779,18.097523)"
       id="g8527">
      <path
         d="M 1.1953307,35.959533 C 8.2677043,76.899611 75.206226,66.042023 65.543969,24.803113 56.877821,-12.25214 -1.1953307,-1.9922179 1.1953307,35.959533"
         id="path8519"
         inkscape:connector-curvature="0"
         style="fill:#ffffff" />
      <path
         d="M 66.440467,24.603891 C 57.575097,-13.547082 -2.1914397,-3.0879377 0.19922179,36.059144 v 0.09961 C 3.4863813,55.483268 20.719066,65.344747 39.744747,62.157198 48.410895,60.663035 56.180545,56.479377 61.2607,50.303502 66.83891,43.43035 68.831128,34.56498 66.440467,24.603891 Z m -6.67393,24.50428 C 54.985214,54.885603 47.713619,58.870039 39.445914,60.264591 21.416342,63.252918 5.2793774,53.989105 2.0918288,35.859922 -0.09961089,-0.99610895 56.280156,-10.857587 64.647471,25.002335 66.83891,34.46537 65.045914,42.733074 59.766537,49.108171 Z"
         id="path8521"
         inkscape:connector-curvature="0"
         style="fill:#000000" />
      <ellipse
         cx="17.631128"
         cy="34.166538"
         rx="9.4630346"
         ry="10.459144"
         id="ellipse8523"
         style="fill:#000000" />
      <ellipse
         cx="22.014008"
         cy="36.557198"
         rx="2.1914396"
         ry="2.6894941"
         id="ellipse8525"
         style="fill:#ffffff" />
    </g>
    <g
       transform="translate(99.536375,70.451072)"
       id="g8537">
      <path
         d="M 13.248249,12.550973 C 5.3789883,13.248249 -0.99610895,22.512062 3.0879377,29.883268 8.4669261,39.645136 20.519844,28.98677 27.990662,29.982878 36.656809,30.1821 43.729183,39.147081 50.602335,31.576653 58.272373,23.209337 47.315175,15.041244 38.649027,11.455252 Z"
         id="path8529"
         inkscape:connector-curvature="0"
         style="fill:#f6d2a2" />
      <path
         d="M 51.598444,19.224903 C 48.908949,15.838132 44.227237,12.750195 39.147082,10.658366 L 38.94786,10.558755 H 38.748638 L 13.248249,11.554864 C 4.3828794,12.351751 -1.9922179,22.611673 2.2910506,30.381323 c 1.6933852,2.988327 3.9844358,4.48249 7.0723735,4.681712 2.2910509,0.09961 4.6817119,-0.398444 8.3673149,-1.693385 0.298833,-0.09961 0.697277,-0.199222 1.195331,-0.398444 4.980545,-1.693385 6.972763,-2.19144 8.964981,-1.892607 h 0.09961 c 2.390661,0 4.382879,0.697277 8.168093,2.19144 4.183658,1.693385 5.478599,2.19144 7.570428,2.390661 2.888716,0.199222 5.378988,-0.796887 7.670039,-3.287159 3.884825,-4.283269 3.685603,-8.86537 0.199222,-13.148638 z m -1.693386,11.754085 c -1.892607,2.091829 -3.785214,2.789105 -6.076264,2.689495 -1.792996,-0.09961 -2.988327,-0.597666 -6.972763,-2.19144 C 32.871595,29.783658 30.680156,29.185992 28.090272,29.086381 25.6,28.787549 23.508171,29.285603 18.228794,31.078599 17.730739,31.277821 17.332296,31.377432 17.033463,31.477043 9.7618677,33.967315 6.2754864,33.768093 3.8848249,29.385214 0.29883269,22.910506 5.7774319,14.144747 13.248249,13.447471 l 25.201556,-0.996109 c 4.781323,1.992218 9.064592,4.880934 11.554864,7.968871 2.988327,3.585993 3.087938,7.171985 -0.09961,10.558755 z"
         id="path8531"
         inkscape:connector-curvature="0"
         style="fill:#231f20" />
      <g
         transform="translate(11.953307)"
         id="g8535"
         style="fill:#000000">
        <path
           d="M 28.687938,8.2677043 C 25.6,-3.0879377 -0.29883269,-1.3945525 0.29883269,12.152529 1.5937743,22.21323 31.676265,19.523735 28.687938,8.2677043 Z"
           id="path8533"
           inkscape:connector-curvature="0" />
      </g>
    </g>
  </g>
</svg>
