<?xml version="1.0" encoding="UTF-8" standalone="no"?>
<svg
   xmlns:dc="http://purl.org/dc/elements/1.1/"
   xmlns:cc="http://creativecommons.org/ns#"
   xmlns:rdf="http://www.w3.org/1999/02/22-rdf-syntax-ns#"
   xmlns:svg="http://www.w3.org/2000/svg"
   xmlns="http://www.w3.org/2000/svg"
   xmlns:sodipodi="http://sodipodi.sourceforge.net/DTD/sodipodi-0.dtd"
   xmlns:inkscape="http://www.inkscape.org/namespaces/inkscape"
   width="400"
   height="400"
   viewBox="0 0 400 400"
   version="1.1"
   preserveAspectRatio="xMidYMid"
   id="svg12"
   sodipodi:docname="joomla.svg"
   inkscape:version="0.92.1 unknown">
  <metadata
     id="metadata18">
    <rdf:RDF>
      <cc:Work
         rdf:about="">
        <dc:format>image/svg+xml</dc:format>
        <dc:type
           rdf:resource="http://purl.org/dc/dcmitype/StillImage" />
        <dc:title></dc:title>
      </cc:Work>
    </rdf:RDF>
  </metadata>
  <defs
     id="defs16" />
  <sodipodi:namedview
     pagecolor="#ffffff"
     bordercolor="#666666"
     borderopacity="1"
     objecttolerance="10"
     gridtolerance="10"
     guidetolerance="10"
     inkscape:pageopacity="0"
     inkscape:pageshadow="2"
     inkscape:window-width="1325"
     inkscape:window-height="747"
     id="namedview14"
     showgrid="false"
     inkscape:zoom="0.71376588"
     inkscape:cx="228.34648"
     inkscape:cy="57.105242"
     inkscape:window-x="41"
     inkscape:window-y="21"
     inkscape:window-maximized="1"
     inkscape:current-layer="svg12" />
  <g
     id="g10"
     transform="translate(71.834646,70.852484)">
    <path
       d="m 255.6673,35.56109 c 0,-18.607316 -15.08408,-33.6913935 -33.69139,-33.6913935 -16.98964,0 -31.03477,12.5778675 -33.34874,28.9289965 -0.21615,-0.114553 -0.34166,-0.1793 -0.34166,-0.1793 -27.55237,-12.427455 -50.76171,9.583564 -50.76171,9.583564 l -61.391193,61.692013 24.257243,23.35975 49.41298,-48.545366 c 23.07387,-23.074864 35.63779,-7.456872 35.63779,-7.456872 17.37015,14.673681 0.59866,32.043828 0.59866,32.043828 l 24.85691,23.95841 C 231.1939,103.33236 232.3713,84.199097 226.2014,68.978553 242.81251,66.898677 255.6673,52.736 255.6673,35.56109"
       id="path2"
       inkscape:connector-curvature="0"
       style="fill:#f9ae41" />
    <path
       d="m 226.51418,190.50683 c 0.11455,-0.21516 0.1793,-0.34067 0.1793,-0.34067 12.42845,-27.55337 -9.58357,-50.76171 -9.58357,-50.76171 l -61.69301,-61.393182 -23.35875,24.258242 48.54537,49.41298 c 23.07486,23.07486 7.45687,35.63879 7.45687,35.63879 -14.67368,17.37014 -32.04383,0.59866 -32.04383,0.59866 l -23.95841,24.8559 c 21.92137,20.29772 41.05562,21.47512 56.27517,15.30522 2.07988,16.61211 16.24355,29.46689 33.41846,29.46689 18.60732,0 33.6904,-15.08408 33.6904,-33.69139 0,-16.98963 -12.57687,-31.03477 -28.928,-33.34973"
       id="path4"
       inkscape:connector-curvature="0"
       style="fill:#ee4035" />
    <path
       d="m 155.94185,133.04031 -49.41298,48.54437 c -23.074862,23.07587 -35.638784,7.45887 -35.638784,7.45887 -17.370148,-14.67468 -0.598662,-32.04383 -0.598662,-32.04383 L 45.435518,133.04131 c -20.297713,21.92137 -21.475113,41.05463 -15.306211,56.27517 -16.612109,2.07988 -29.46589844,16.24156 -29.46589844,33.41747 0,18.60731 15.08407744,33.69039 33.69139344,33.69039 16.989634,0.001 31.03477,-12.57587 33.348731,-28.927 0.216156,0.11455 0.341665,0.1783 0.341665,0.1783 27.55337,12.42945 50.761712,-9.58356 50.761712,-9.58356 l 61.39219,-61.69301 -24.25725,-23.35876"
       id="path6"
       inkscape:connector-curvature="0"
       style="fill:#4f91cd" />
    <path
       d="M 75.727191,106.61254 C 52.652327,83.537681 68.268327,70.973759 68.268327,70.973759 82.944,53.603611 100.31315,70.375097 100.31315,70.375097 l 23.95841,-24.85491 C 102.3502,25.222475 83.216934,24.045074 67.997385,30.213977 65.916514,13.600872 51.754833,0.74708171 34.57793,0.74708171 15.971611,0.74708171 0.88852918,15.83116 0.88753307,34.438475 c 0,16.99063 12.57687193,31.035766 28.92799993,33.349727 -0.114553,0.216156 -0.178303,0.341666 -0.178303,0.341666 -12.430444,27.552373 9.582568,50.759722 9.582568,50.759722 l 61.694002,61.39318 23.35876,-24.25725 -48.545369,-49.41298"
       id="path8"
       inkscape:connector-curvature="0"
       style="fill:#7ac043" />
  </g>
</svg>
