<?xml version="1.0" encoding="UTF-8" standalone="no"?>
<svg
   xmlns:dc="http://purl.org/dc/elements/1.1/"
   xmlns:cc="http://creativecommons.org/ns#"
   xmlns:rdf="http://www.w3.org/1999/02/22-rdf-syntax-ns#"
   xmlns:svg="http://www.w3.org/2000/svg"
   xmlns="http://www.w3.org/2000/svg"
   xmlns:sodipodi="http://sodipodi.sourceforge.net/DTD/sodipodi-0.dtd"
   xmlns:inkscape="http://www.inkscape.org/namespaces/inkscape"
   width="400"
   height="400"
   viewBox="0 0 400 400"
   version="1.1"
   preserveAspectRatio="xMidYMid"
   id="svg9391"
   sodipodi:docname="laravel.svg"
   inkscape:version="0.92.1 unknown">
  <metadata
     id="metadata9397">
    <rdf:RDF>
      <cc:Work
         rdf:about="">
        <dc:format>image/svg+xml</dc:format>
        <dc:type
           rdf:resource="http://purl.org/dc/dcmitype/StillImage" />
        <dc:title></dc:title>
      </cc:Work>
    </rdf:RDF>
  </metadata>
  <defs
     id="defs9395" />
  <sodipodi:namedview
     pagecolor="#ffffff"
     bordercolor="#666666"
     borderopacity="1"
     objecttolerance="10"
     gridtolerance="10"
     guidetolerance="10"
     inkscape:pageopacity="0"
     inkscape:pageshadow="2"
     inkscape:window-width="1325"
     inkscape:window-height="747"
     id="namedview9393"
     showgrid="false"
     inkscape:zoom="2.0346069"
     inkscape:cx="38.056337"
     inkscape:cy="128"
     inkscape:window-x="41"
     inkscape:window-y="21"
     inkscape:window-maximized="1"
     inkscape:current-layer="svg9391" />
  <g
     id="g9389"
     style="fill:#f35045"
     transform="translate(72,72)">
    <path
       d="m 160.44467,208 c 2,2.88867 3.222,2.66667 4.77733,2 1.55533,-0.66667 81.556,-27.66667 84,-28.55533 2.444,-0.88867 1.66667,-1.66667 0.88933,-2.88934 -0.77733,-1.22266 -27.44466,-37.444 -28.778,-39.55533 -1.33333,-2.11133 -2,-1.66667 -4.11133,-1 l -84.80533,22.06667 c 0,0 26.028,45.04466 28.028,47.93333 z"
       id="path9377"
       inkscape:connector-curvature="0" />
    <path
       d="m 256,171.11533 v -42.39866 c -9.54133,2.54266 -21.60867,5.756 -26.37267,7.02333 C 236.814,145.356 248.05,160.40467 256,171.11533 Z"
       id="path9379"
       inkscape:connector-curvature="0" />
    <path
       d="m 229.54533,83.521333 c -1.30733,0.296667 -30.24733,5.526667 -32.03,5.764 -1.78266,0.237334 -1.18866,1.248 -0.47533,2.258 L 222.50733,126.486 c 0,0 31.13867,-7.72533 33.04067,-8.14133 0.154,-0.034 0.30467,-0.07 0.452,-0.10667 v -4.62667 c -5.66,-7.17733 -21.08067,-26.717997 -22.41333,-28.543997 -1.604,-2.199333 -2.734,-1.842666 -4.04134,-1.546 z"
       id="path9381"
       inkscape:connector-curvature="0" />
    <path
       d="m 47.456,28.634 c 6.266667,-0.284667 6.838667,1.141333 9.592,5.224 L 126.21867,149.5 213.192,128.66467 c -4.81867,-6.83067 -26.69533,-37.846003 -28.80933,-40.805337 -2.37667,-3.328 0.0593,-4.873333 3.922,-5.526666 3.86266,-0.653334 37.14,-6.239334 39.99266,-6.655334 2.85267,-0.416 5.11134,-1.426 9.746,4.16 2.37134,2.858 10.412,12.87 17.95667,22.254667 V 48 C 256,34.778 251.30533,23.472 241.91667,14.083333 232.528,4.6946667 221.222,0 208,0 H 48 C 34.778,0 23.472,4.6946667 14.083333,14.083333 8.698,19.468667 4.8653333,25.487333 2.5686667,32.134 18.246667,30.846 43.07,28.833333 47.456,28.634 Z"
       id="path9383"
       inkscape:connector-curvature="0" />
    <path
       d="m 168.28867,223.564 c -7.334,2.222 -10.62267,3.32467 -15.4,-3.342 -3.578,-4.99333 -22.92667,-39.84333 -32.414,-57.02333 C 102.52,167.90133 69.660667,176.47733 60.185333,178.754 50.936667,180.976 46.987333,175.43133 45.468,172.01333 44.402667,169.61667 17.289333,111.15933 0,73.650667 V 208 c 0,13.22267 4.6946667,24.52733 14.083333,33.91667 C 23.472,251.30533 34.778,256 48,256 h 160 c 13.222,0 24.528,-4.69467 33.91667,-14.08333 C 251.30533,232.52733 256,221.22267 256,208 v -15.78133 c -19.64067,7.184 -82.77,29.848 -87.71133,31.34533 z"
       id="path9385"
       inkscape:connector-curvature="0" />
    <path
       d="m 60.412,165.288 c 2.599333,-0.59467 51.31267,-12.25333 52.35267,-12.476 1.04,-0.22267 1.708,-0.81733 0.594,-2.74733 -1.114,-1.93 -64.933337,-112.089337 -64.933337,-112.089337 C 47.836,36.964 48.004,36.627333 46.403333,36.711333 44.976,36.786667 8.8653333,40.008667 0.50466667,40.707333 0.258,42.446 0.10933333,44.224667 0.044,46.038 c 8.4873333,17.374667 57.198667,117.83667 57.472,118.65533 0.297333,0.89134 0.296667,1.18867 2.896,0.59467 z"
       id="path9387"
       inkscape:connector-curvature="0" />
  </g>
</svg>
