<?xml version="1.0" encoding="UTF-8" standalone="no"?>
<svg
   xmlns:dc="http://purl.org/dc/elements/1.1/"
   xmlns:cc="http://creativecommons.org/ns#"
   xmlns:rdf="http://www.w3.org/1999/02/22-rdf-syntax-ns#"
   xmlns:svg="http://www.w3.org/2000/svg"
   xmlns="http://www.w3.org/2000/svg"
   xmlns:sodipodi="http://sodipodi.sourceforge.net/DTD/sodipodi-0.dtd"
   xmlns:inkscape="http://www.inkscape.org/namespaces/inkscape"
   width="400"
   height="400"
   viewBox="0 0 400 400"
   version="1.1"
   preserveAspectRatio="xMidYMid"
   id="svg10"
   sodipodi:docname="mariadb.svg"
   inkscape:version="0.92.1 unknown">
  <metadata
     id="metadata16">
    <rdf:RDF>
      <cc:Work
         rdf:about="">
        <dc:format>image/svg+xml</dc:format>
        <dc:type
           rdf:resource="http://purl.org/dc/dcmitype/StillImage" />
        <dc:title></dc:title>
      </cc:Work>
    </rdf:RDF>
  </metadata>
  <defs
     id="defs14" />
  <sodipodi:namedview
     pagecolor="#ffffff"
     bordercolor="#666666"
     borderopacity="1"
     objecttolerance="10"
     gridtolerance="10"
     guidetolerance="10"
     inkscape:pageopacity="0"
     inkscape:pageshadow="2"
     inkscape:window-width="1366"
     inkscape:window-height="744"
     id="namedview12"
     showgrid="false"
     inkscape:zoom="0.39731116"
     inkscape:cx="499.74618"
     inkscape:cy="189.92727"
     inkscape:window-x="1366"
     inkscape:window-y="24"
     inkscape:window-maximized="1"
     inkscape:current-layer="svg10" />
  <g
     id="g7546"
     transform="translate(71.792014,115.13818)">
    <path
       id="path7530"
       d="m 250.39164,0.00446862 c -3.94997,0.12621373 -2.70078,1.26434028 -11.23582,3.36474698 -8.61884,2.1210301 -19.1469,1.4706456 -28.42805,5.363074 C 183.02187,20.351627 177.46305,60.064874 152.27575,74.290937 133.44887,84.925296 114.45429,85.773472 97.377045,91.124763 86.154257,94.643965 73.877557,101.86112 63.709393,110.62357 c -7.892622,6.80389 -8.0987,12.78627 -16.345246,21.31989 -8.820747,9.12775 -35.057353,0.15424 -46.94816378,14.12442 3.83047268,3.87312 5.50978328,4.95796 13.05842978,3.95307 -1.562847,2.96217 -10.7755107,5.45847 -8.9721184,9.81603 1.897555,4.58508 24.1699134,7.69326 44.4164274,-4.53048 9.429075,-5.69276 16.939374,-13.89806 31.624497,-15.85666 19.003124,-2.53281 40.894401,1.62459 62.893661,4.79697 -3.26194,9.72613 -9.81104,16.19423 -15.05717,23.94045 -1.62457,1.74966 3.26299,1.94578 8.83887,0.88833 10.0303,-2.48021 17.25882,-4.47717 24.82878,-8.88328 9.29974,-5.41383 10.709,-19.29377 22.11938,-22.29705 6.35759,9.77161 23.64877,12.07986 34.37832,4.26398 -9.41486,-2.66499 -12.01693,-22.70497 -8.83887,-31.53567 3.01037,-8.35881 5.98489,-21.729933 9.01653,-32.779319 3.25484,-11.866648 4.45562,-26.823472 8.39471,-32.868156 5.92643,-9.094339 12.4749,-12.217361 18.16016,-17.345575 5.68525,-5.128214 10.88908,-10.120123 10.71831,-21.854531 -0.055,-3.7795893 -2.00925,-5.88640613 -5.60426,-5.77152038 z"
       inkscape:connector-curvature="0"
       style="fill:#002b64" />
    <path
       id="path7532"
       d="m 8.5942912,159.00088 c 14.4179278,2.06519 23.1860858,0 34.7642048,-5.02154 9.851208,-4.27251 19.365563,-13.08046 30.999113,-16.81429 17.085756,-5.48205 35.821671,0.007 54.085711,1.10153 4.44732,0.26721 8.86623,0.27005 13.22827,-0.20467 6.80389,-4.18154 6.66318,-19.82323 13.28513,-21.25592 -0.19472,21.94526 -9.19171,35.09395 -18.60088,47.82618 19.83033,-3.50214 31.69698,-14.97224 39.71183,-30.29129 2.43189,-4.64489 4.50845,-9.64227 6.3448,-14.87986 2.83839,2.1789 1.22945,8.80796 2.65646,12.39965 13.65894,-7.60836 21.4805,-24.9727 26.65981,-42.534595 5.99231,-20.324957 8.44551,-40.905753 12.3101,-46.919382 3.7722,-5.870075 9.64227,-9.48877 15.00067,-13.246755 6.08896,-4.272505 11.51984,-8.725519 12.45792,-16.866872 -6.42155,-0.594114 -7.90684,-2.0794 -8.85628,-5.3157583 -3.21504,1.8121902 -6.1714,2.2002121 -9.51151,2.2997049 -2.89809,0.088122 -6.08186,-0.041218 -9.9706,0.3581741 -32.16034,3.3031613 -36.24665,38.7496023 -56.86014,58.8443043 -1.49949,1.461123 -3.12123,2.824174 -4.83535,4.103368 -7.21891,5.379717 -16.07519,9.224403 -24.21939,12.337107 -13.18279,5.037178 -25.71604,5.395352 -38.084418,9.743187 -9.079428,3.190876 -18.305253,7.820137 -25.762949,12.924117 -1.864779,1.27493 -3.621538,2.58113 -5.237585,3.90296 -4.376262,3.58032 -7.248761,7.55292 -10.027453,11.63923 -2.865392,4.21139 -5.632713,8.54359 -9.851208,12.68249 -6.833734,6.71008 -32.369271,1.95717 -41.3591561,8.17973 -1.0020346,0.69219 -1.797977,1.52366 -2.3395021,2.52143 4.9049949,2.22864 8.1811502,0.86133 13.8238132,1.48529 0.740511,5.35413 -11.6420783,8.53648 -9.8114108,11.00248 z"
       inkscape:connector-curvature="0"
       style="fill:#ffffff" />
    <path
       id="path7534"
       d="m 203.4351,120.42605 c 0.38376,6.14296 3.94987,18.33083 7.0981,21.29288 -6.16571,1.49949 -16.78728,-0.97788 -19.51196,-5.32713 1.40001,-6.27942 8.68572,-12.02015 12.41386,-15.96575 z"
       inkscape:connector-curvature="0"
       style="fill:#ffffff" />
    <path
       id="path7536"
       d="m 212.46763,22.934787 c 4.5525,3.952707 14.10523,0.780308 12.39822,-7.083887 -7.07394,-0.585586 -11.17162,1.815033 -12.39822,7.083887 z"
       inkscape:connector-curvature="0"
       style="fill:#002b64" />
    <path
       id="path7538"
       d="m 244.20725,13.744495 c -1.21097,2.539909 -3.52915,5.814643 -3.52915,12.280254 -0.01,1.110055 -0.84285,1.870465 -0.85706,0.159188 0.0625,-6.319214 1.73544,-9.051002 3.5121,-12.64127 0.82579,-1.471072 1.32325,-0.864166 0.87411,0.201828 z"
       inkscape:connector-curvature="0"
       style="fill:#002b64" />
    <path
       id="path7540"
       d="m 242.98775,12.787943 c -1.42843,2.42336 -4.86804,6.843683 -5.43657,13.285131 -0.10518,1.10437 -1.00345,1.788028 -0.86701,0.08102 0.6197,-6.287945 3.36855,-10.223596 5.45505,-13.644727 0.9466,-1.391478 1.39148,-0.743353 0.84853,0.27858 v 0 z"
       inkscape:connector-curvature="0"
       style="fill:#002b64" />
    <path
       id="path7542"
       d="m 241.87628,11.52012 c -1.62742,2.29402 -6.92186,7.602672 -8.02907,13.974475 -0.19899,1.090156 -1.15128,1.698484 -0.87128,0.0085 1.14559,-6.215457 5.70947,-11.100553 8.07598,-14.331226 1.06031,-1.3090414 1.44833,-0.625384 0.82437,0.348224 v 0 z"
       inkscape:connector-curvature="0"
       style="fill:#002b64" />
    <path
       id="path7544"
       d="m 240.88419,10.105901 c -1.933,2.042445 -8.24511,8.81222 -10.23496,14.963717 -0.35249,1.051781 -1.38011,1.520819 -0.86417,-0.113706 2.00691,-5.992309 7.53445,-12.446549 10.33162,-15.3119415 1.23513,-1.1470098 1.52223,-0.4150271 0.76751,0.4619305 z"
       inkscape:connector-curvature="0"
       style="fill:#002b64" />
  </g>
</svg>
