<?xml version="1.0" encoding="UTF-8" standalone="no"?>
<svg
   xmlns:dc="http://purl.org/dc/elements/1.1/"
   xmlns:cc="http://creativecommons.org/ns#"
   xmlns:rdf="http://www.w3.org/1999/02/22-rdf-syntax-ns#"
   xmlns:svg="http://www.w3.org/2000/svg"
   xmlns="http://www.w3.org/2000/svg"
   xmlns:sodipodi="http://sodipodi.sourceforge.net/DTD/sodipodi-0.dtd"
   xmlns:inkscape="http://www.inkscape.org/namespaces/inkscape"
   width="400"
   height="400"
   viewBox="0 0 400 400"
   version="1.1"
   id="svg26"
   sodipodi:docname="mongodb.svg"
   inkscape:version="0.92.1 unknown">
  <metadata
     id="metadata30">
    <rdf:RDF>
      <cc:Work
         rdf:about="">
        <dc:format>image/svg+xml</dc:format>
        <dc:type
           rdf:resource="http://purl.org/dc/dcmitype/StillImage" />
        <dc:title></dc:title>
      </cc:Work>
    </rdf:RDF>
  </metadata>
  <sodipodi:namedview
     pagecolor="#ffffff"
     bordercolor="#666666"
     borderopacity="1"
     objecttolerance="10"
     gridtolerance="10"
     guidetolerance="10"
     inkscape:pageopacity="0"
     inkscape:pageshadow="2"
     inkscape:window-width="1366"
     inkscape:window-height="744"
     id="namedview28"
     showgrid="false"
     inkscape:zoom="0.73534393"
     inkscape:cx="205.89175"
     inkscape:cy="193.42978"
     inkscape:window-x="1366"
     inkscape:window-y="24"
     inkscape:window-maximized="1"
     inkscape:current-layer="svg26" />
  <defs
     id="defs2" />
  <g
     id="g24"
     style="fill:none;fill-rule:evenodd;stroke:none;stroke-width:1"
     transform="matrix(0.76259509,0,0,0.76259509,4.9997036,144.28533)">
    <g
       id="g22">
      <path
         d="m 476.71344,60.462624 c -0.46106,0.09238 -0.92212,1.10775 -0.92212,1.661194 -0.0924,3.691062 -0.18476,13.473457 -0.18476,20.117369 0,0.184769 0.27629,0.553444 0.55344,0.553444 1.38404,0.09238 4.70643,0.184769 7.56689,0.184769 3.96822,0 6.27524,-0.553444 7.56776,-1.106888 3.32152,-1.661193 4.89033,-5.260735 4.89033,-9.228951 0,-8.950934 -6.27523,-12.365706 -15.59571,-12.365706 -0.64582,-0.09152 -2.49092,-0.09152 -3.87583,0.184769 z m 23.8093,41.250106 c 0,-9.135705 -6.73716,-14.211671 -18.9181,-14.211671 -0.55344,0 -4.42927,-0.09238 -5.35226,0.09238 -0.27715,0.09239 -0.64582,0.277154 -0.64582,0.554307 0,6.551528 -0.0924,16.979754 0.18476,21.039494 0.18391,1.75358 1.47643,4.24537 3.04524,4.98358 1.66033,0.92298 5.44464,1.10689 8.02795,1.10689 7.29061,0 13.65823,-4.05974 13.65823,-13.56498 z M 457.88859,55.387521 c 0.92212,0 3.69107,0.27629 10.7969,0.27629 6.7363,0 12.08855,-0.183906 18.64094,-0.183906 8.02796,0 19.10201,2.860466 19.10201,14.856634 0,5.906564 -4.15299,10.612992 -9.59763,12.920014 -0.27629,0.09238 -0.27629,0.27629 0,0.368674 7.75166,1.938348 14.58121,6.737161 14.58121,15.780479 0,8.859414 -5.53703,14.487964 -13.56584,17.995114 -4.8912,2.12226 -10.98167,2.86047 -17.16452,2.86047 -4.70643,0 -17.34843,-0.55344 -24.36188,-0.36868 -0.73821,-0.27715 0.64583,-3.59954 1.29166,-4.15298 1.66119,-0.0924 2.95285,-0.18477 4.70643,-0.73821 2.49179,-0.64583 2.76808,-1.38404 3.13762,-5.16749 0.18477,-3.23 0.18477,-14.673593 0.18477,-22.79393 0,-11.166435 0.0924,-18.733329 0,-22.424391 -0.0924,-2.860466 -1.10775,-3.783447 -3.13762,-4.337754 -1.56881,-0.27629 -4.15299,-0.645828 -6.27524,-0.922118 -0.46192,-0.461923 1.10689,-3.599542 1.66119,-3.968216 z m -53.24713,57.399259 c 2.2155,1.75271 6.55239,2.49093 10.42822,2.49093 4.98358,0 9.9663,-0.92212 14.76511,-5.25987 4.8912,-4.42928 8.30511,-11.257962 8.30511,-22.147243 0,-10.428223 -3.96822,-18.918098 -12.08855,-23.900816 -4.61405,-2.861329 -10.52061,-4.060601 -17.34929,-4.060601 -2.02987,0 -3.96822,0.09239 -5.16749,0.645828 -0.27715,0.184769 -0.92298,1.015366 -0.92298,1.476425 -0.18477,1.845963 -0.18477,16.056769 -0.18477,24.362739 0,8.58226 0,20.578428 0.18477,21.962468 0,1.38491 0.64583,3.50716 2.02987,4.43014 z M 383.69349,55.387521 c 1.75358,0 8.48988,0.27629 11.71988,0.27629 5.81418,0 9.9663,-0.27629 20.94796,-0.27629 9.22809,0 16.97976,2.491791 22.51678,7.197356 6.7363,5.814178 10.24345,13.842995 10.24345,23.624526 0,13.934517 -6.36762,21.963337 -12.73524,26.577377 -6.36676,4.70643 -14.67273,7.47451 -26.48413,7.47451 -6.27524,0 -17.07213,-0.18477 -26.02393,-0.27716 h -0.0924 c -0.46105,-0.82973 0.73822,-4.05973 1.47643,-4.15212 2.39941,-0.27715 3.04523,-0.36954 4.24537,-0.83059 1.93748,-0.73822 2.30702,-1.75358 2.58417,-5.16749 0.27629,-6.36762 0.18391,-14.026901 0.18391,-22.701546 0,-6.182853 0.0924,-18.272269 -0.0924,-22.148101 -0.27629,-3.22914 -1.66034,-4.059737 -4.42928,-4.614044 -1.38404,-0.27629 -3.23,-0.645828 -5.81331,-0.922118 -0.36954,-0.646691 1.29165,-3.507157 1.75271,-4.0606 v 0 z"
         id="path4"
         inkscape:connector-curvature="0"
         style="fill:#8e714e" />
      <path
         d="m 272.03346,116.38546 c -2.30703,-0.27716 -3.96822,-0.64583 -5.99895,-1.56881 -0.27629,-0.18477 -0.73821,-1.10689 -0.73821,-1.47643 -0.18477,-3.23 -0.18477,-12.45809 -0.18477,-18.640942 0,-4.983582 -0.82974,-9.320472 -2.95285,-12.365706 -2.49179,-3.507157 -6.09047,-5.537026 -10.70452,-5.537026 -4.0606,0 -9.50524,2.768945 -14.0269,6.644776 -0.0924,0.09152 -0.83059,0.738212 -0.73821,-0.277154 0,-1.015365 0.18477,-3.045234 0.27716,-4.429274 0.0924,-1.29252 -0.64583,-1.938348 -0.64583,-1.938348 -2.95372,1.476425 -11.25882,3.414773 -14.30406,3.691063 -2.21463,0.461922 -2.76808,2.584175 -0.46106,3.322387 h 0.0924 c 2.49093,0.738213 4.15212,1.56881 5.44378,2.399407 0.92298,0.738212 0.83059,1.753578 0.83059,2.584175 0.0924,6.921066 0.0924,17.533192 -0.1839,23.347372 -0.0924,2.30702 -0.73822,3.13676 -2.39941,3.50629 l 0.18391,-0.0924 c -1.29166,0.27715 -2.30703,0.55344 -3.87584,0.73821 -0.55344,0.55345 -0.55344,3.50716 0,4.15299 1.01537,0 6.36763,-0.27716 10.79777,-0.27716 6.09046,0 9.22808,0.27716 10.79689,0.27716 0.64583,-0.73821 0.8306,-3.50716 0.46106,-4.15299 -1.75358,-0.0924 -3.04523,-0.27629 -4.2445,-0.64583 -1.6612,-0.36953 -2.12312,-1.19927 -2.2155,-3.13761 -0.18391,-4.8912 -0.18391,-15.226177 -0.18391,-22.239627 0,-1.938347 0.55344,-2.861329 1.10689,-3.414772 2.12225,-1.8451 5.53702,-3.137619 8.58226,-3.137619 2.95285,0 4.89119,0.922981 6.36762,2.123116 2.02987,1.660331 2.6757,4.059737 2.95285,5.813316 0.46106,3.968216 0.27715,11.812266 0.27715,18.640946 0,3.69106 -0.27715,4.61404 -1.66119,5.0751 -0.64583,0.27715 -2.30702,0.64669 -4.24537,0.8306 -0.64583,0.64583 -0.46106,3.50716 0,4.15298 2.67656,0 5.81418,-0.27715 10.42822,-0.27715 5.72093,0 9.41286,0.27715 10.88928,0.27715 0.46106,-0.55344 0.64583,-3.23 0.27629,-3.96821 h 8.7e-4 z M 297.59547,81.1343 c -4.8912,0 -7.93644,3.783447 -7.93644,9.689147 0,5.998084 2.6757,12.919153 10.24346,12.919153 1.29165,0 3.69106,-0.55345 4.79795,-1.8451 1.75358,-1.6612 2.95371,-4.983584 2.95371,-8.489878 0,-7.659278 -3.78431,-12.273322 -10.05868,-12.273322 z m -0.64669,40.78818 c -1.8451,0 -3.13762,0.55345 -3.96736,1.01537 -3.87669,2.49093 -5.62941,4.89033 -5.62941,7.75166 0,2.6757 1.01451,4.79795 3.23001,6.64391 2.67569,2.30702 6.36676,3.41477 11.07318,3.41477 9.41286,0 13.56584,-5.07596 13.56584,-10.05868 0,-3.50716 -1.75357,-5.81418 -5.35225,-7.10583 -2.58418,-1.10775 -7.29061,-1.6612 -12.92001,-1.6612 z m 0.64669,23.9932 c -5.62941,0 -9.69001,-1.20013 -13.19631,-3.87583 -3.41477,-2.58417 -4.89119,-6.46001 -4.89119,-9.1357 0,-0.73821 0.18476,-2.76895 1.84596,-4.61405 1.0145,-1.10775 3.22914,-3.23 8.48987,-6.82868 0.18391,-0.0924 0.27629,-0.18477 0.27629,-0.36953 0,-0.18477 -0.18477,-0.36954 -0.36867,-0.46106 -4.33775,-1.6612 -5.62941,-4.33776 -5.99895,-5.81418 v -0.18477 c -0.0915,-0.55344 -0.27629,-1.10689 0.55431,-1.6612 0.64583,-0.46105 1.56881,-1.0145 2.58331,-1.66033 1.56881,-0.92298 3.23,-1.93834 4.24537,-2.76894 0.18477,-0.18477 0.18477,-0.36867 0.18477,-0.55344 0,-0.18477 -0.18477,-0.36954 -0.36954,-0.46106 -6.45914,-2.12312 -9.68915,-6.92193 -9.68915,-14.119288 0,-4.706428 2.12226,-8.951798 5.9057,-11.627494 2.58418,-2.030732 9.04332,-4.521659 13.28869,-4.521659 h 0.27716 c 4.33689,0.09152 6.73629,1.014502 10.1502,2.214637 1.84596,0.645828 3.59954,0.922118 5.99895,0.922118 3.59868,0 5.16749,-1.106887 6.45914,-2.398543 0.0924,0.183906 0.27716,0.645828 0.36954,1.8451 0.0924,1.200135 -0.27715,2.95285 -1.20013,4.245369 -0.73822,1.014502 -2.39855,1.753578 -4.05974,1.753578 h -0.46192 c -1.6612,-0.184769 -2.39941,-0.369538 -2.39941,-0.369538 l -0.36868,0.184769 c -0.0924,0.184769 0,0.368675 0.0924,0.645828 l 0.0924,0.184769 c 0.18391,0.830597 0.55345,3.321525 0.55345,3.968216 0,7.566894 -3.04524,10.888418 -6.27524,13.380208 -3.13762,2.30702 -6.7363,3.78345 -10.7969,4.15299 -0.0924,0 -0.46106,0 -1.29165,0.0924 -0.46193,0 -1.10775,0.0924 -1.20014,0.0924 h -0.0924 c -0.73822,0.1839 -2.58331,1.10688 -2.58331,2.67569 0,1.38404 0.83059,3.04524 4.79794,3.32239 0.8306,0.0924 1.6612,0.0924 2.58418,0.18477 5.25987,0.36867 11.81226,0.83059 14.8575,1.8451 4.2445,1.56881 6.92106,5.35225 6.92106,9.87478 0,6.82868 -4.89119,13.1963 -13.01153,17.16365 -3.96822,1.75358 -7.93643,2.67656 -12.27332,2.67656 v 0 z m 52.60044,-64.320321 c -1.93835,0 -3.69192,0.461059 -4.98358,1.384041 -3.59868,2.214637 -5.44464,6.644775 -5.44464,13.103919 0,12.089421 6.09047,20.579291 14.76511,20.579291 2.58418,0 4.61405,-0.73821 6.36762,-2.21464 2.6757,-2.2155 4.0606,-6.64477 4.0606,-12.82763 0,-11.996165 -5.99894,-20.024981 -14.76511,-20.024981 z m 1.6612,39.496531 c -15.6881,0 -21.31751,-11.53511 -21.31751,-22.332012 0,-7.566893 3.04524,-13.381072 9.1357,-17.534057 4.33776,-2.675696 9.50525,-4.152121 14.11929,-4.152121 11.99617,0 20.39452,8.582259 20.39452,20.947966 0,8.397494 -3.32239,15.041404 -9.69001,19.102004 -3.04523,2.02987 -8.3051,3.96822 -12.64286,3.96822 z M 187.41099,81.595359 c -1.93834,0 -3.69106,0.461059 -4.98358,1.384041 -3.59868,2.214637 -5.44464,6.644775 -5.44464,13.103919 0,12.089421 6.09047,20.579291 14.76511,20.579291 2.58418,0 4.61405,-0.73821 6.36763,-2.21464 2.67569,-2.2155 4.0606,-6.64477 4.0606,-12.82763 0,-11.996165 -5.90657,-20.024981 -14.76512,-20.024981 z m 1.6612,39.496531 c -15.6881,0 -21.31751,-11.53511 -21.31751,-22.332012 0,-7.566893 3.04524,-13.381072 9.13571,-17.534057 4.33775,-2.675696 9.50524,-4.152121 14.11928,-4.152121 11.99703,0 20.39452,8.582259 20.39452,20.947966 0,8.397494 -3.32238,15.041404 -9.69001,19.102004 -2.95285,2.02987 -8.21272,3.96822 -12.64199,3.96822 z M 83.594144,120.1689 c -0.184769,-0.27629 -0.369538,-1.10688 -0.277153,-2.12225 0,-0.73821 0.184769,-1.20013 0.277153,-1.38404 1.937484,-0.27715 2.95285,-0.55431 4.059737,-0.8306 1.845963,-0.46192 2.584176,-1.47642 2.67656,-3.78344 0.277154,-5.53703 0.277154,-16.057636 0.184769,-23.347376 v -0.184769 c 0,-0.830597 0,-1.845963 -1.015366,-2.584176 -1.476425,-0.922118 -3.230003,-1.752715 -5.537025,-2.399406 -0.830597,-0.27629 -1.384041,-0.738212 -1.291656,-1.291656 0,-0.553443 0.553443,-1.199271 1.753578,-1.38404 3.045235,-0.277154 10.980803,-2.214638 14.118422,-3.598678 0.184769,0.183905 0.461922,0.738212 0.461922,1.476425 l -0.09238,1.014502 c -0.09238,1.015366 -0.184769,2.215501 -0.184769,3.414772 0,0.368675 0.369538,0.645828 0.738212,0.645828 0.184769,0 0.369538,-0.09238 0.554302,-0.184769 5.9057,-4.614043 11.25796,-6.275237 14.02604,-6.275237 4.52252,0 8.02882,2.123116 10.70537,6.552391 0.18391,0.277153 0.36868,0.368674 0.64583,0.368674 0.18477,0 0.46106,-0.09152 0.55345,-0.27629 5.44464,-4.152984 10.88928,-6.644775 14.48796,-6.644775 8.58225,0 13.65822,6.367622 13.65822,17.164519 0,3.045235 0,7.013451 -0.0924,10.612991 0,3.22914 -0.0924,6.18285 -0.0924,8.30511 0,0.46106 0.64583,1.93748 1.6612,2.21463 1.29165,0.64583 3.04523,0.92299 5.35225,1.29166 h 0.0924 c 0.18477,0.64583 -0.18477,3.04523 -0.55345,3.50716 -0.5543,0 -1.3849,0 -2.30702,-0.0924 -1.75358,-0.0924 -4.24537,-0.18477 -7.01345,-0.18477 -5.72179,0 -8.67464,0.0924 -11.53597,0.27716 -0.18391,-0.73821 -0.27629,-2.95285 0,-3.50716 1.66119,-0.27629 2.49179,-0.55344 3.50715,-0.8306 1.84597,-0.55344 2.30703,-1.38404 2.39941,-3.78344 0,-1.75272 0.36868,-16.7026 -0.18477,-20.302142 -0.55344,-3.691062 -3.32239,-8.027953 -9.41285,-8.027953 -2.30703,0 -5.9057,0.922982 -9.41286,3.598678 -0.18391,0.184769 -0.36868,0.645828 -0.36868,0.922982 v 0.09238 c 0.36868,1.937484 0.36868,4.152985 0.36868,7.566894 v 5.998091 c 0,4.15298 -0.0924,8.02881 0,10.98166 0,2.03073 1.20013,2.49179 2.2155,2.86133 0.55344,0.0915 0.92212,0.18391 1.38404,0.27629 0.8306,0.18477 1.66119,0.36954 2.95285,0.64583 0.18477,0.36954 0.18477,1.56881 -0.0924,2.58418 -0.0924,0.55344 -0.27716,0.83059 -0.36868,0.92298 -3.13762,-0.0924 -6.36762,-0.18477 -11.07405,-0.18477 -1.38404,0 -3.78345,0.0924 -5.81418,0.0924 -1.66119,0 -3.23,0.0924 -4.15212,0.0924 -0.0924,-0.18477 -0.27715,-0.8306 -0.27715,-1.84597 0,-0.83059 0.18477,-1.47642 0.36954,-1.66119 0.46105,-0.0924 0.82973,-0.18391 1.29165,-0.18391 1.10689,-0.18476 2.02987,-0.36953 2.95285,-0.5543 1.56881,-0.46106 2.12225,-1.29166 2.21464,-3.32153 0.27715,-4.61404 0.55344,-17.810348 -0.0924,-21.132736 -1.10688,-5.352256 -4.15212,-8.028816 -9.04331,-8.028816 -2.86047,0 -6.46001,1.38404 -9.412857,3.599541 -0.461059,0.368675 -0.830597,1.291656 -0.830597,2.122253 v 5.444641 c 0,6.643917 0,14.949887 0.09238,18.548567 0.09238,1.10688 0.461059,2.3994 2.584174,2.86046 0.46106,0.0924 1.19927,0.27716 2.12226,0.36954 l 1.66119,0.27629 c 0.18477,0.55431 0.0924,2.76895 -0.27715,3.50716 -0.92299,0 -2.02987,-0.0924 -3.32239,-0.0924 -1.937487,-0.0924 -4.429278,-0.18477 -7.197358,-0.18477 -3.230004,0 -5.537026,0.0924 -7.382989,0.18477 -1.291656,-0.18477 -2.307022,-0.18477 -3.413909,-0.18477 v 0 z"
         id="path6"
         inkscape:connector-curvature="0"
         style="fill:#442d22" />
      <g
         id="g20">
        <path
           d="m 35.053436,142.317 -3.783447,-1.29251 c 0,0 0.461923,-19.28678 -6.459143,-20.67082 -4.614044,-5.35225 0.738212,-227.01285 17.348425,-0.73821 0,0 -5.720931,2.86047 -6.736297,7.75166 -1.10775,4.79882 -0.369538,14.94988 -0.369538,14.94988 z"
           id="path8"
           inkscape:connector-curvature="0"
           style="fill:#ffffff" />
        <path
           d="m 35.053436,142.317 -3.783447,-1.29251 c 0,0 0.461923,-19.28678 -6.459143,-20.67082 -4.614044,-5.35225 0.738212,-227.01285 17.348425,-0.73821 0,0 -5.720931,2.86047 -6.736297,7.75166 -1.10775,4.79882 -0.369538,14.94988 -0.369538,14.94988 z"
           id="path10"
           inkscape:connector-curvature="0"
           style="fill:#a6a385" />
        <path
           d="m 37.084168,123.67606 c 0,0 33.128904,-21.77856 25.377241,-67.089267 C 54.9869,23.642658 37.360458,12.845761 35.422974,8.6927757 33.300721,5.7399258 31.269989,0.57243845 31.269989,0.57243845 L 32.654893,92.207487 c 0,0.09238 -2.861329,28.053803 4.429275,31.468573"
           id="path12"
           inkscape:connector-curvature="0"
           style="fill:#ffffff" />
        <path
           d="m 37.084168,123.67606 c 0,0 33.128904,-21.77856 25.377241,-67.089267 C 54.9869,23.642658 37.360458,12.845761 35.422974,8.6927757 33.300721,5.7399258 31.269989,0.57243845 31.269989,0.57243845 L 32.654893,92.207487 c 0,0.09238 -2.861329,28.053803 4.429275,31.468573"
           id="path14"
           inkscape:connector-curvature="0"
           style="fill:#499d4a" />
        <path
           d="m 29.332506,124.87533 c 0,0 -31.0990355,-21.22512 -29.25307261,-58.598527 C 1.8321484,28.90253 23.795481,10.538739 28.039987,7.2163508 c 2.768944,-2.95285 2.861328,-4.0606004 3.046097,-7.01345029 1.937484,4.15298479 1.56881,62.10568649 1.8451,68.93436749 0.830597,26.300223 -1.476425,50.755342 -3.598678,55.738062 z"
           id="path16"
           inkscape:connector-curvature="0"
           style="fill:#ffffff" />
        <path
           d="m 29.332506,124.87533 c 0,0 -31.0990355,-21.22512 -29.25307261,-58.598527 C 1.8321484,28.90253 23.795481,10.538739 28.039987,7.2163508 c 2.768944,-2.95285 2.861328,-4.0606004 3.046097,-7.01345029 1.937484,4.15298479 1.56881,62.10568649 1.8451,68.93436749 0.830597,26.300223 -1.476425,50.755342 -3.598678,55.738062 z"
           id="path18"
           inkscape:connector-curvature="0"
           style="fill:#58aa50" />
      </g>
    </g>
  </g>
</svg>
