<?xml version="1.0" encoding="UTF-8" standalone="no"?>
<svg
   xmlns:dc="http://purl.org/dc/elements/1.1/"
   xmlns:cc="http://creativecommons.org/ns#"
   xmlns:rdf="http://www.w3.org/1999/02/22-rdf-syntax-ns#"
   xmlns:svg="http://www.w3.org/2000/svg"
   xmlns="http://www.w3.org/2000/svg"
   xmlns:sodipodi="http://sodipodi.sourceforge.net/DTD/sodipodi-0.dtd"
   xmlns:inkscape="http://www.inkscape.org/namespaces/inkscape"
   width="400"
   height="400"
   viewBox="0 0 400 400"
   version="1.1"
   preserveAspectRatio="xMidYMid"
   id="svg8236"
   sodipodi:docname="mysql.svg"
   inkscape:version="0.92.1 unknown">
  <metadata
     id="metadata8242">
    <rdf:RDF>
      <cc:Work
         rdf:about="">
        <dc:format>image/svg+xml</dc:format>
        <dc:type
           rdf:resource="http://purl.org/dc/dcmitype/StillImage" />
        <dc:title></dc:title>
      </cc:Work>
    </rdf:RDF>
  </metadata>
  <defs
     id="defs8240" />
  <sodipodi:namedview
     pagecolor="#ffffff"
     bordercolor="#666666"
     borderopacity="1"
     objecttolerance="10"
     gridtolerance="10"
     guidetolerance="10"
     inkscape:pageopacity="0"
     inkscape:pageshadow="2"
     inkscape:window-width="1325"
     inkscape:window-height="747"
     id="namedview8238"
     showgrid="false"
     inkscape:zoom="2.0669023"
     inkscape:cx="39.461707"
     inkscape:cy="126"
     inkscape:window-x="41"
     inkscape:window-y="21"
     inkscape:window-maximized="1"
     inkscape:current-layer="svg8236" />
  <g
     id="g8789"
     transform="translate(72.072987,-73.552225)">
    <path
       style="fill:#00546b"
       inkscape:connector-curvature="0"
       id="path8232"
       d="m 235.64828,342.21163 c -13.91843,-0.34707 -24.70541,1.04564 -33.75268,4.87233 -2.6097,1.04345 -6.78567,1.04454 -7.13383,4.3495 1.39273,1.39273 1.56626,3.65426 2.78433,5.56759 2.08909,3.4785 5.74115,8.17729 9.04722,10.61346 3.65314,2.78324 7.30737,5.56648 11.1341,8.00264 6.78567,4.17597 14.4412,6.61102 21.05226,10.78697 3.8289,2.43395 7.65444,5.56759 11.48225,8.17729 1.91448,1.39052 3.13145,3.65313 5.56762,4.52304 v -0.52172 c -1.21811,-1.56625 -1.56627,-3.82778 -2.78324,-5.56759 -1.73872,-1.7398 -3.47961,-3.30606 -5.21941,-5.04586 -5.04588,-6.78458 -11.30877,-12.7003 -18.09435,-17.57153 -5.56649,-3.8278 -17.7462,-9.0472 -20.00779,-15.4847 0,0 -0.17462,-0.17354 -0.34816,-0.34708 3.82777,-0.34818 8.35082,-1.73979 12.00509,-2.78435 5.91578,-1.56625 11.30877,-1.21807 17.39799,-2.78324 2.78324,-0.69635 5.56761,-1.56625 8.35085,-2.43616 v -1.56515 c -3.13031,-3.13254 -5.39294,-7.30739 -8.69901,-10.26529 -8.87256,-7.65667 -18.61614,-15.13651 -28.70676,-21.39939 -5.39408,-3.4796 -12.35329,-5.74224 -18.09435,-8.69902 -2.08687,-1.04564 -5.56761,-1.56625 -6.78459,-3.30607 -3.13252,-3.82778 -4.87232,-8.87254 -7.13384,-13.39672 -5.04365,-9.56998 -9.91712,-20.18127 -14.26657,-30.27191 -3.13031,-6.78568 -5.04476,-13.57138 -8.87255,-19.83415 -17.91969,-29.57662 -37.40576,-47.49641 -67.330552,-65.06906 -6.437485,-3.65316 -14.09193,-5.21941 -22.269245,-7.13275 -4.348398,-0.17464 -8.699016,-0.52171 -13.048556,-0.69636 -2.783241,-1.21809 -5.567588,-4.52304 -8.003761,-6.08931 -9.91487,-6.26394 -35.491323,-19.83311 -42.7986912,-1.91334 -4.6976906,11.30875 6.9592127,22.44278 10.9604932,28.18498 2.958988,4.00134 6.785671,8.52437 8.873657,13.04857 1.218089,2.95567 1.565157,6.0893 2.783246,9.22073 2.784342,7.65336 5.392941,16.17989 9.047189,23.31383 1.914445,3.65315 4.001326,7.48093 6.43749,10.78586 1.391616,1.91334 3.826679,2.78434 4.349499,5.91577 -2.435054,3.47959 -2.609701,8.69901 -4.002431,13.04855 -6.262843,19.6595 -3.826684,44.01681 5.045873,58.4569 2.783241,4.34841 9.395336,13.91953 18.267961,10.26529 7.829109,-3.13144 6.089302,-13.04855 8.350828,-21.74757 0.522829,-2.08909 0.174642,-3.47959 1.218085,-4.87123 9.06e-4,0.17354 0,0.34818 0,0.34818 2.436159,4.87123 4.871226,9.56895 7.132744,14.4401 5.394047,8.52436 14.788354,17.39801 22.617411,23.31384 4.17708,3.13031 7.48204,8.52438 12.70142,10.43881 v -0.52283 h -0.34818 c -1.04454,-1.56625 -2.6097,-2.26152 -4.00132,-3.47959 -3.13143,-3.13143 -6.61214,-6.95923 -9.04719,-10.43881 -7.306285,-9.74359 -13.744889,-20.52945 -19.485981,-31.66458 -2.783241,-5.39295 -5.219401,-11.30877 -7.480928,-16.70169 -1.044543,-2.08908 -1.044543,-5.2194 -2.784346,-6.26284 -2.609701,3.82668 -6.436384,7.13275 -8.350829,11.83045 -3.303854,7.48092 -3.653143,16.70168 -4.871227,26.27053 -0.695269,0.17465 -0.348187,0 -0.69637,0.34819 -5.566486,-1.39273 -7.480931,-7.13275 -9.568954,-12.00509 -5.219405,-12.35212 -6.089301,-32.18637 -1.565156,-46.45181 1.218084,-3.65425 6.437489,-15.13653 4.349503,-18.61614 -1.043442,-3.30607 -4.52415,-5.2194 -6.437489,-7.8291 -2.261527,-3.30607 -4.697686,-7.48094 -6.262843,-11.13514 -4.175972,-9.74248 -6.263949,-20.52945 -10.786975,-30.27305 -2.087985,-4.52414 -5.741128,-9.22073 -8.699016,-13.3956 -3.304955,-4.69768 -6.959212,-8.00375 -9.5689488,-13.57136 -0.8688005,-1.91334 -2.0879858,-5.04476 -0.6963607,-7.13275 0.3481826,-1.39162 1.0434378,-1.91334 2.4361595,-2.26153 2.261527,-1.91444 8.699016,0.52172 10.960493,1.56517 6.437489,2.60858 11.830444,5.04587 17.224491,8.69901 2.435058,1.7398 5.044758,5.04587 8.176187,5.91577 h 3.654243 c 5.567588,1.21698 11.830444,0.34817 17.049845,1.91334 9.221836,2.95679 17.571536,7.30739 25.053642,12.00509 22.79206,14.4401 41.58058,34.97066 54.28209,59.50149 2.08799,4.00023 2.95679,7.65557 4.87123,11.83045 3.65425,8.52547 8.17729,17.22449 11.83044,25.57533 3.65314,8.17618 7.13274,16.52814 12.35213,23.31383 2.61081,3.65204 13.04854,5.56648 17.74617,7.48092 3.4796,1.56517 8.87368,2.9579 12.00508,4.87124 5.91469,3.65203 11.83047,7.82912 17.39803,11.83044 2.78433,2.08688 11.48226,6.43749 12.00509,9.916 z" />
    <path
       style="fill:#00546b"
       inkscape:connector-curvature="0"
       id="path8234"
       d="m 58.186489,191.02226 c -2.957883,0 -5.044758,0.34929 -7.132744,0.87102 0,-9.1e-4 0,0.17464 0,0.34818 h 0.348187 c 1.392726,2.78324 3.826683,4.69769 5.566482,7.13274 1.392731,2.78324 2.6097,5.56759 4.002431,8.35194 0.173532,-0.17465 0.347072,-0.34818 0.347072,-0.34818 2.437275,-1.74091 3.654249,-4.52415 3.654249,-8.69902 -1.044548,-1.21808 -1.218089,-2.43616 -2.087986,-3.65425 -1.043443,-1.74091 -3.306075,-2.6097 -4.697691,-4.00243 z" />
  </g>
</svg>
