<?xml version="1.0" encoding="UTF-8" standalone="no"?>
<svg
   xmlns:dc="http://purl.org/dc/elements/1.1/"
   xmlns:cc="http://creativecommons.org/ns#"
   xmlns:rdf="http://www.w3.org/1999/02/22-rdf-syntax-ns#"
   xmlns:svg="http://www.w3.org/2000/svg"
   xmlns="http://www.w3.org/2000/svg"
   xmlns:sodipodi="http://sodipodi.sourceforge.net/DTD/sodipodi-0.dtd"
   xmlns:inkscape="http://www.inkscape.org/namespaces/inkscape"
   width="400"
   height="400"
   viewBox="0 0 400 400"
   version="1.1"
   preserveAspectRatio="xMidYMid"
   id="svg8"
   sodipodi:docname="rails.svg"
   inkscape:version="0.92.1 unknown">
  <metadata
     id="metadata14">
    <rdf:RDF>
      <cc:Work
         rdf:about="">
        <dc:format>image/svg+xml</dc:format>
        <dc:type
           rdf:resource="http://purl.org/dc/dcmitype/StillImage" />
        <dc:title></dc:title>
      </cc:Work>
    </rdf:RDF>
  </metadata>
  <defs
     id="defs12" />
  <sodipodi:namedview
     pagecolor="#ffffff"
     bordercolor="#666666"
     borderopacity="1"
     objecttolerance="10"
     gridtolerance="10"
     guidetolerance="10"
     inkscape:pageopacity="0"
     inkscape:pageshadow="2"
     inkscape:window-width="1325"
     inkscape:window-height="747"
     id="namedview10"
     showgrid="false"
     inkscape:zoom="0.5227423"
     inkscape:cx="124.68685"
     inkscape:cy="187.38542"
     inkscape:window-x="41"
     inkscape:window-y="21"
     inkscape:window-maximized="1"
     inkscape:current-layer="svg8" />
  <g
     id="g6"
     style="fill:#cc0000"
     transform="matrix(0.74331089,0,0,0.74331089,9.9999991,133.23159)">
    <path
       d="m 219.11536,150.63375 c 0,0 22.56927,-1.93451 22.56927,-31.08111 0,-29.146595 -27.34105,-31.854907 -27.34105,-31.854907 h -49.26549 v 91.953647 h 24.76171 v -22.18236 l 21.40856,22.18236 h 36.6267 z m -9.54357,-18.82922 H 189.8398 v -21.02166 h 19.86096 c 0,0 5.54559,2.06348 5.54559,10.44635 0,8.38287 -5.67456,10.57531 -5.67456,10.57531 z M 302.81511,88.342569 H 277.6665 c -17.92645,0 -23.98791,16.249871 -23.98791,23.987911 v 67.3209 h 25.14861 v -16.1209 h 23.60101 v 16.1209 h 24.37481 v -67.3209 c 0,-19.603024 -17.79748,-23.987911 -23.98791,-23.987911 z m -0.3869,49.136521 h -23.72997 v -22.31133 c 0,0 0,-5.02972 7.867,-5.02972 h 8.64081 c 6.96423,0 7.09319,5.02972 7.09319,5.02972 v 22.31133 z m 35.8529,-49.136521 h 26.18035 v 91.308811 h -26.18035 z m 62.93602,67.707811 V 88.342569 h -26.05139 v 67.707811 23.601 h 26.05139 35.20806 v -23.601 z m 43.84886,0.25793 v 23.34307 h 42.1723 c 8.6408,0 23.47204,-6.31939 23.98791,-23.9879 v -9.02771 c 0,-15.08917 -12.38086,-23.98791 -23.98791,-23.98791 h -21.02166 v -10.83325 h 41.65642 V 88.342569 H 467.8932 c -10.31738,0 -24.11688,8.511839 -24.11688,24.374811 v 8.12494 c 0,15.86297 13.67053,23.98791 24.11688,23.98791 29.01763,0.12896 -6.96423,0 19.86096,0 v 11.34911 z"
       id="path2"
       inkscape:connector-curvature="0" />
    <path
       d="M 9.0277078,179.52242 H 110.91184 c 0,0 -19.474057,-88.85844 45.00957,-124.840304 14.05743,-6.835265 58.80907,-32.370781 132.06247,21.795466 2.32141,-1.934509 4.51385,-3.482116 4.51385,-3.482116 0,0 -67.06297,-66.934005 -141.73501,-59.453904 C 113.23325,16.89471 67.062972,51.071033 39.979849,96.209572 12.896725,141.34811 9.0277078,179.52242 9.0277078,179.52242 Z M 221.30781,20.763728 l 0.51587,-8.640806 c -1.16071,-0.644836 -4.38489,-2.1924434 -12.50983,-4.513854 l -0.51587,8.511839 c 4.25592,1.41864 8.38288,2.966247 12.50983,4.642821 z m -12.25189,27.341058 -0.51587,8.124937 c 4.25592,0.128967 8.51184,0.644836 12.76776,1.547607 l 0.51587,-7.99597 c -4.38489,-0.902771 -8.64081,-1.41864 -12.76776,-1.676574 z M 161.33803,7.8670025 h 1.28968 L 160.04836,0 c -3.99798,0 -8.12493,0.25793451 -12.38085,0.77380353 l 2.45037,7.60906797 c 3.74005,-0.3869017 7.4801,-0.515869 11.22015,-0.515869 z m 6.19043,47.4599495 2.96625,8.898741 c 3.74005,-1.805542 7.4801,-3.353149 11.22015,-4.513854 L 178.87758,51.2 c -4.38489,1.289672 -8.12494,2.708312 -11.34912,4.126952 z m -58.55113,-33.918388 -5.80353,-8.89874 c -3.224178,1.676574 -6.577326,3.482116 -10.059442,5.545592 l 5.932493,9.027707 C 102.4,25.019647 105.62418,23.085138 108.97733,21.408564 Z m 26.43829,58.035265 6.19042,9.285642 c 2.19245,-3.224181 4.77179,-6.190428 7.60907,-9.156675 l -5.80352,-8.769773 c -2.96625,2.708312 -5.67456,5.674559 -7.99597,8.640806 z m -18.70025,41.527451 10.44634,8.25391 c 0.51587,-5.02972 1.41864,-10.05945 2.70831,-15.08917 l -9.28564,-7.35113 c -1.67657,4.77179 -2.83728,9.54357 -3.86901,14.18639 z M 60.227708,59.711839 51.071033,51.715869 c -3.353149,3.224181 -6.57733,6.448363 -9.543577,9.672544 l 9.930478,8.511839 c 2.708313,-3.482116 5.67456,-6.964232 8.769774,-10.188413 z M 21.279597,117.3602 6.4483627,111.94358 C 3.9979849,117.48917 1.2896725,123.93753 0,127.41965 l 14.831234,5.41662 c 1.676575,-4.38489 4.384887,-10.70428 6.448363,-15.47607 z m 93.501263,36.36877 c 0.25793,6.83526 0.90277,12.38085 1.5476,16.24987 l 15.47607,5.54559 c -1.1607,-5.02972 -2.32141,-10.70428 -3.09521,-16.76574 z"
       id="path4"
       inkscape:connector-curvature="0" />
  </g>
</svg>
