<?xml version="1.0" encoding="UTF-8" standalone="no"?>
<svg
   xmlns:dc="http://purl.org/dc/elements/1.1/"
   xmlns:cc="http://creativecommons.org/ns#"
   xmlns:rdf="http://www.w3.org/1999/02/22-rdf-syntax-ns#"
   xmlns:svg="http://www.w3.org/2000/svg"
   xmlns="http://www.w3.org/2000/svg"
   xmlns:sodipodi="http://sodipodi.sourceforge.net/DTD/sodipodi-0.dtd"
   xmlns:inkscape="http://www.inkscape.org/namespaces/inkscape"
   width="400"
   height="400"
   viewBox="0 0 400 400"
   version="1.1"
   preserveAspectRatio="xMidYMid"
   id="svg9569"
   sodipodi:docname="wordpress-icon.svg"
   inkscape:version="0.92.1 unknown">
  <metadata
     id="metadata9575">
    <rdf:RDF>
      <cc:Work
         rdf:about="">
        <dc:format>image/svg+xml</dc:format>
        <dc:type
           rdf:resource="http://purl.org/dc/dcmitype/StillImage" />
        <dc:title></dc:title>
      </cc:Work>
    </rdf:RDF>
  </metadata>
  <defs
     id="defs9573" />
  <sodipodi:namedview
     pagecolor="#ffffff"
     bordercolor="#666666"
     borderopacity="1"
     objecttolerance="10"
     gridtolerance="10"
     guidetolerance="10"
     inkscape:pageopacity="0"
     inkscape:pageshadow="2"
     inkscape:window-width="1325"
     inkscape:window-height="747"
     id="namedview9571"
     showgrid="false"
     inkscape:object-nodes="false"
     inkscape:zoom="2.0425858"
     inkscape:cx="38.40768"
     inkscape:cy="127.5"
     inkscape:window-x="41"
     inkscape:window-y="21"
     inkscape:window-maximized="1"
     inkscape:current-layer="svg9569" />
  <g
     id="g9567"
     style="fill:#464342"
     transform="translate(72.49223,72.49639)">
    <path
       d="m 18.123967,127.50049 c 0,43.29522 25.160846,80.71076 61.646049,98.44136 L 27.593886,82.985626 c -6.069073,13.603382 -9.469919,28.657434 -9.469919,44.514864 z m 183.221073,-5.51961 c 0,-13.51805 -4.85567,-22.879742 -9.02036,-30.166376 -5.54458,-9.009951 -10.74159,-16.64 -10.74159,-25.649951 0,-10.054764 7.62589,-19.414374 18.36748,-19.414374 0.48494,0 0.94491,0.06036 1.41736,0.08741 -19.46016,-17.828422 -45.38692,-28.713626 -73.86328,-28.713626 -38.212683,0 -71.831935,19.605854 -91.389918,49.301854 2.566244,0.07701 4.984715,0.131122 7.038959,0.131122 11.440911,0 29.150699,-1.388228 29.150699,-1.388228 5.896325,-0.347577 6.59148,8.312716 0.701399,9.009952 0,0 -5.925464,0.697235 -12.519025,1.042731 L 100.3187,194.69945 124.25574,122.90914 107.21405,76.217236 C 101.32397,75.87174 95.744,75.174504 95.744,75.174504 c -5.894244,-0.345496 -5.203252,-9.357528 0.690992,-9.009951 0,0 18.063608,1.388227 28.811448,1.388227 11.43883,0 29.1507,-1.388227 29.1507,-1.388227 5.90049,-0.347577 6.59356,8.312715 0.7014,9.009951 0,0 -5.93796,0.697236 -12.51903,1.042732 l 39.52807,117.581004 10.91018,-36.45814 c 4.72871,-15.12898 8.32728,-25.99545 8.32728,-35.35922 z m -71.92143,15.08735 -32.817951,95.36312 c 9.798761,2.88052 20.161561,4.45606 30.898991,4.45606 12.73756,0 24.95272,-2.20201 36.32286,-6.20019 -0.29346,-0.46829 -0.55987,-0.96572 -0.7784,-1.50686 z m 94.05815,-62.045661 c 0.47037,3.484098 0.73678,7.224195 0.73678,11.24735 0,11.099577 -2.07298,23.576971 -8.31688,39.178401 l -33.41112,96.59942 c 32.51824,-18.96273 54.39063,-54.19291 54.39063,-94.54517 0.002,-19.01685 -4.85567,-36.899383 -13.39941,-52.480001 z M 127.50465,0 C 57.20039,0 0,57.196228 0,127.50049 c 0,70.31258 57.20039,127.50673 127.50465,127.50673 70.30218,0 127.51089,-57.19415 127.51089,-127.50673 C 255.01346,57.196228 197.80683,0 127.50465,0 Z m 0,249.16293 c -67.080325,0 -121.658276,-54.57795 -121.658276,-121.66244 0,-67.080327 54.57587,-121.654116 121.658276,-121.654116 67.07824,0 121.65203,54.573789 121.65203,121.654116 0,67.08449 -54.57379,121.66244 -121.65203,121.66244 z"
       id="path9565"
       inkscape:connector-curvature="0" />
  </g>
</svg>
