<?xml version="1.0" encoding="UTF-8" standalone="no"?>
<!-- Created with Inkscape (http://www.inkscape.org/) -->

<svg
   xmlns:dc="http://purl.org/dc/elements/1.1/"
   xmlns:cc="http://creativecommons.org/ns#"
   xmlns:rdf="http://www.w3.org/1999/02/22-rdf-syntax-ns#"
   xmlns:svg="http://www.w3.org/2000/svg"
   xmlns="http://www.w3.org/2000/svg"
   xmlns:sodipodi="http://sodipodi.sourceforge.net/DTD/sodipodi-0.dtd"
   xmlns:inkscape="http://www.inkscape.org/namespaces/inkscape"
   width="1087.3979"
   height="172.037"
   viewBox="0 0 287.70736 45.518125"
   version="1.1"
   id="svg8261"
   inkscape:version="0.92.1 unknown"
   sodipodi:docname="orcinus-logo-header__black.svg">
  <defs
     id="defs8255" />
  <sodipodi:namedview
     id="base"
     pagecolor="#ffffff"
     bordercolor="#666666"
     borderopacity="1.0"
     inkscape:pageopacity="0.0"
     inkscape:pageshadow="2"
     inkscape:zoom="1.2055078"
     inkscape:cx="408.93942"
     inkscape:cy="13.180425"
     inkscape:document-units="mm"
     inkscape:current-layer="layer1"
     showgrid="false"
     units="px"
     inkscape:window-width="1325"
     inkscape:window-height="747"
     inkscape:window-x="41"
     inkscape:window-y="38"
     inkscape:window-maximized="1" />
  <metadata
     id="metadata8258">
    <rdf:RDF>
      <cc:Work
         rdf:about="">
        <dc:format>image/svg+xml</dc:format>
        <dc:type
           rdf:resource="http://purl.org/dc/dcmitype/StillImage" />
        <dc:title />
      </cc:Work>
    </rdf:RDF>
  </metadata>
  <g
     inkscape:label="Layer 1"
     inkscape:groupmode="layer"
     id="layer1"
     transform="translate(0,-251.48184)">
    <g
       id="g7548"
       transform="matrix(0.14551811,0,0,0.14551811,37.956803,225.51982)">
      <path
         style="fill:#ffffff"
         inkscape:connector-curvature="0"
         id="path22"
         d="m 228.178,265.75896 c 0,0 -30.725,23.347 -57.794,30.528 4.209,-7.443 5.889,-13.148 6.147,-14.075 l 5.039,-18.144 -18.574,3.096 c -4.086,0.682 -7.955,1.026 -11.5,1.027 -10.633,0 -18.52,-3.012 -24.111,-9.207 -5.513,-6.107 -14.207,-21.745 -10.498,-57.856 l 0.048,-0.63 c 0.404,-8.144 -2.674,-13.178 -5.328,-15.967 -2.657,-2.792 -7.535,-6.12 -15.689,-6.12 -10.607,0 -22.398,5.792 -23.708,6.452 l -0.856,0.432 -0.777,0.562 c -35.096,25.407 -45.983,64.505 -49.171,81.604 -5.612,1.216 -11.9980003,1.83 -19.0710003,1.83 -25.5359997,0.001 -54.7929997,-8.01 -71.1699997,-15.454 -12.557,-5.707 -77.133,-34.273 -115.475,-36.19 -1.308,-0.065 -2.622,-0.098 -3.906,-0.098 -27.953,0 -42.919,15.179 -48.837,23.123 -14.102,5.124 -20.028,15.242 -21.032,25.071 -0.294,0.426 -0.569,0.868 -0.823,1.328 -1.942,3.509 -2.437,7.552 -1.403,11.416 l 3.657,12.729 0.073,0.243 c 0.316,1.019 0.667,2.025 1.021,3.031 0.155,0.444 0.312,0.889 0.495,1.429 l 2.833,8.151 0.128,0.352 c 0.721,1.882 1.472,3.709 2.197,5.477 0.372,0.904 0.744,1.81 1.134,2.775 l 1.634,3.997 0.116,0.275 c 0.434,0.991 0.902,1.967 1.374,2.94 0.201,0.417 0.403,0.833 0.639,1.335 l 3.732,7.786 4.419,8.197 c 0.229,0.414 0.452,0.83 0.676,1.246 0.501,0.93 1.004,1.859 1.534,2.773 l 2.348,3.88 0.056,0.091 c 0.506,0.818 1.001,1.645 1.496,2.47 1.009,1.681 2.053,3.419 3.222,5.189 l 4.847,7.184 c 1.236,1.885 2.494,3.54 3.711,5.144 0.562,0.739 1.124,1.478 1.67,2.229 l 0.486,0.654 c 1.647,2.21 3.35,4.495 5.271,6.775 l 5.412,6.602 5.938,6.726 c 1.6,1.859 3.207,3.52 4.764,5.125 0.501,0.517 1.001,1.033 1.566,1.625 l 2.997,3.089 0.099,0.101 c 0.724,0.729 1.467,1.439 2.21,2.149 0.347,0.331 0.694,0.662 1.038,0.996 l 0.117,0.111 c 0.697,0.659 1.386,1.326 2.076,1.993 1.4,1.354 2.848,2.755 4.396,4.137 l 6.4,5.736 1.06,0.905 c 4.12,3.497 8.379,7.111 12.901,10.525 2.52,1.994 5.029,3.835 7.081,5.319 2.409,1.774 4.78,3.509 7.281,5.201 4.614,3.243 9.606,6.52 14.832,9.735 5.107,3.148 10.238,6.151 15.249,8.925 2.985,1.653 5.49,2.987 7.876,4.193 2.526,1.315 5.188,2.647 7.829,3.918 5.089,2.501 10.409,4.896 16.224,7.302 5.659,2.368 11.355,4.478 16.931,6.272 0,0 67.4419997,26.559 150.581,10.562 18.78,0 34.396,-4.922 41.772,-13.166 4.607,-5.149 6.347,-10.466 5.168,-15.802 -1.83,-8.285 -9.144,-11.43 -15.596,-14.204 -10.312,-4.434 -24.061,-10.347 -30.598,-33.31 38.392,-3.516 67.892,-46.355 67.892,-46.355 0,0 -8.293,3.802 -19.959,7 l 0.977,-0.881 c 26.724,-15.434 48.982,-40.278 48.982,-40.278 0,0 -12.383,5.516 -28.35,10.168 l 6.361,-8.061 c 34.341,-14.415 68.213,-65.438 68.213,-65.438 z" />
      <path
         inkscape:connector-curvature="0"
         id="path24"
         d="m 164.969,279.00196 c -61.202,10.2 -63.249,-47.652 -60.02,-79.098 0.915,-18.41 -27.231,-4.378 -27.337,-4.325 -41.08,29.739 -45.482,81.324 -45.482,81.324 -32.6790003,11.438 -83.466,-1.927 -105.933,-12.139 -22.467,-10.212 -78.43,-33.496 -111.109,-35.13 -32.679,-1.634 -44.525,21.241 -44.525,21.241 -16.364,4.165 -17.34,14.826 -16.663,20.313 l -0.274,0.078 -0.01,0.003 c -1.797,0.516 -2.835,2.392 -2.318,4.189 l 0.003,0.012 2.382,8.285 1.193,4.145 c 0.427,1.372 0.93,2.72 1.391,4.081 l 2.833,8.152 c 1.028,2.685 2.157,5.333 3.231,8.003 l 1.634,3.997 c 0.578,1.318 1.231,2.601 1.843,3.903 l 3.732,7.786 4.108,7.593 c 0.694,1.26 1.354,2.541 2.077,3.784 l 2.236,3.691 c 1.512,2.447 2.936,4.952 4.521,7.352 l 4.827,7.154 c 1.574,2.41 3.404,4.634 5.094,6.96 1.719,2.305 3.424,4.619 5.279,6.815 l 5.464,6.665 5.708,6.452 c 1.87,2.181 3.913,4.2 5.894,6.276 l 2.997,3.089 c 1.011,1.018 2.063,1.993 3.092,2.991 2.084,1.969 4.102,4.008 6.241,5.916 l 6.4,5.736 c 4.367,3.706 8.719,7.428 13.292,10.872 2.241,1.779 4.542,3.476 6.858,5.153 2.302,1.696 4.607,3.383 6.976,4.983 4.673,3.287 9.457,6.41 14.318,9.401 4.859,2.995 9.778,5.882 14.765,8.642 2.494,1.38 5.002,2.731 7.546,4.016 2.525,1.317 5.073,2.588 7.638,3.823 5.108,2.51 10.309,4.827 15.562,7.001 5.243,2.194 10.577,4.182 15.977,5.92 -5.201,-2.262 -10.238,-4.863 -15.268,-7.441 -5.019,-2.603 -9.955,-5.357 -14.848,-8.169 -4.903,-2.793 -9.698,-5.773 -14.463,-8.777 -4.77,-2.999 -9.461,-6.116 -14.08,-9.33 -4.602,-3.238 -9.175,-6.51 -13.647,-9.911 -2.263,-1.664 -4.461,-3.413 -6.653,-5.168 -2.206,-1.736 -4.396,-3.49 -6.521,-5.323 -4.319,-3.582 -8.51,-7.306 -12.692,-11.034 l -6.119,-5.758 c -2.043,-1.914 -3.963,-3.953 -5.95,-5.922 -0.981,-0.998 -1.984,-1.973 -2.945,-2.989 l -2.846,-3.081 c -1.869,-2.08 -3.878,-4.031 -5.668,-6.178 l -5.503,-6.321 -5.257,-6.521 c -1.786,-2.148 -3.423,-4.408 -5.073,-6.659 -1.62,-2.27 -3.383,-4.441 -4.887,-6.791 l -4.695,-6.924 c -1.556,-2.314 -2.951,-4.729 -4.436,-7.088 l -2.196,-3.559 c -0.709,-1.199 -1.356,-2.434 -2.038,-3.649 l -4.039,-7.321 -3.672,-7.51 c -0.602,-1.256 -1.247,-2.494 -1.816,-3.765 l -1.67,-3.832 c -1.102,-2.56 -2.259,-5.099 -3.319,-7.677 l -2.934,-7.835 c -0.479,-1.309 -1.002,-2.605 -1.447,-3.927 l -1.253,-3.993 -1.528,-4.864 1.565,-0.511 0.812,-0.265 0.074,-0.024 0.124,-0.027 0.387,-0.085 c 2.051,-0.501 4.157,-0.849 6.291,-1.088 1.075,-0.079 2.145,-0.202 3.226,-0.25 l 3.258,-0.078 3.28,0.082 3.292,0.229 c 2.196,0.207 4.394,0.467 6.591,0.806 2.199,0.32 4.398,0.699 6.588,1.156 2.195,0.429 4.378,0.947 6.562,1.472 2.181,0.542 4.357,1.121 6.526,1.737 8.673,2.485 17.287,5.366 25.881,8.385 1.242,0.422 2.488,0.842 3.731,1.263 8.966,4.076 16.075,7.443 20.029,8.258 13.889,2.859 29.411,-2.042 44.117,24.918 14.706,26.96 88.233,80.88 88.233,80.88 27.777,81.697 112.742,76.796 126.631,61.273 13.889,-15.522 -35.13,-2.451 -45.751,-61.273 11.726,-6.335 22.149,-13.977 31.394,-22.315 -38.94,5.095 -86.661,-12.306 -115.74,-26.881 123.09,21.786 140.863,-0.736 140.863,-0.736 -38.464,12.284 -80.952,-9.612 -80.952,-9.612 69.171,8.714 88.778,-11.854 88.778,-11.854 -17.156,8.987 -43.028,-7.481 -43.028,-7.481 59.638,3.269 73.26,-45.767 73.26,-45.767 z m -225.086,27.388 c -3.126,6.549 -19.526,5.24 -36.631,-2.923 -17.105,-8.164 -28.437,-20.091 -25.311,-26.64 3.126,-6.549 19.525,-5.24 36.631,2.923 17.104,8.163 28.437,20.091 25.311,26.64 z" />
    </g>
    <g
       style="stroke-width:0.99999809;fill:#000000;fill-opacity:1"
       transform="matrix(0.29398203,0,0,0.29398203,76.013783,168.40723)"
       id="g7604">
      <path
         inkscape:connector-curvature="0"
         id="path2-4"
         d="m 70.747,317.997 c -32.768,0 -64.126,26.649 -69.9,59.404 -2.848,16.144 0.852,31.311 10.416,42.71 9.364,11.16 23.231,17.305 39.048,17.305 32.767,0 64.124,-26.649 69.9,-59.404 2.848,-16.144 -0.852,-31.313 -10.418,-42.71 -9.364,-11.159 -23.231,-17.305 -39.046,-17.305 z m 23.122,59.404 c -3.27,18.538 -21.002,33.619 -39.526,33.619 -8.723,0 -16.348,-3.361 -21.469,-9.466 -5.243,-6.247 -7.262,-14.607 -5.687,-23.542 3.269,-18.537 20.998,-33.619 39.524,-33.619 8.723,0 16.348,3.361 21.469,9.464 5.244,6.249 7.263,14.609 5.689,23.544 z"
         style="fill:#000000;fill-opacity:1;stroke-width:0.99999809" />
      <path
         inkscape:connector-curvature="0"
         id="path4-8"
         d="m 443.397,334.309 c -9.34,-10.519 -22.901,-16.312 -38.183,-16.312 -11.878,0 -23.81,3.444 -34.738,9.993 l 1.397,-7.927 c 0.091,-0.512 -0.05,-1.038 -0.385,-1.437 -0.333,-0.399 -0.827,-0.629 -1.347,-0.629 h -22.877 c -0.854,0 -1.584,0.614 -1.732,1.454 L 325.095,435.35 c -0.091,0.512 0.05,1.038 0.385,1.437 0.333,0.399 0.827,0.629 1.347,0.629 h 22.877 c 0.854,0 1.584,-0.613 1.732,-1.454 l 10.218,-57.95 c 3.269,-18.537 20.998,-33.619 39.524,-33.619 8.723,0 16.348,3.361 21.469,9.464 5.243,6.248 7.262,14.609 5.688,23.543 l -10.218,57.95 c -0.091,0.512 0.05,1.038 0.385,1.437 0.333,0.399 0.827,0.629 1.347,0.629 h 22.877 c 0.854,0 1.584,-0.613 1.732,-1.454 l 10.808,-61.297 c 0.04,-0.217 0.026,-0.435 -0.026,-0.644 1.666,-15.141 -2.53,-29.225 -11.843,-39.712 z"
         style="fill:#000000;fill-opacity:1;stroke-width:0.99999809" />
      <path
         inkscape:connector-curvature="0"
         id="path6-0"
         d="m 290.77,324.607 c -0.132,-0.479 -0.461,-0.882 -0.906,-1.105 -7.022,-3.528 -14.865,-5.374 -23.313,-5.485 -0.082,-0.012 -0.167,-0.019 -0.253,-0.019 l -0.357,0.005 c -0.022,-0.002 -0.18,-0.005 -0.203,-0.005 -32.768,0 -64.126,26.649 -69.9,59.404 -2.848,16.144 0.852,31.311 10.416,42.71 9.364,11.16 23.231,17.305 39.048,17.305 l 0.359,-0.005 c 0.024,0.002 0.177,0.005 0.201,0.005 0.076,0 0.15,-0.005 0.223,-0.014 6.8,-0.088 13.636,-1.297 20.323,-3.597 0.827,-0.284 1.32,-1.133 1.157,-1.992 l -4.071,-21.485 c -0.095,-0.502 -0.404,-0.937 -0.845,-1.194 -0.442,-0.256 -0.973,-0.311 -1.456,-0.141 -3.791,1.304 -7.683,1.981 -11.541,2.012 -8.658,-0.064 -16.219,-3.449 -21.289,-9.536 -5.193,-6.236 -7.19,-14.566 -5.623,-23.458 3.25,-18.433 20.897,-33.509 39.314,-33.609 4.729,0.046 9.096,1.06 12.978,3.013 0.806,0.406 1.787,0.134 2.274,-0.626 l 13.251,-20.77 c 0.268,-0.42 0.345,-0.932 0.213,-1.413 z"
         style="fill:#000000;fill-opacity:1;stroke-width:0.99999809" />
      <path
         inkscape:connector-curvature="0"
         id="path8-4"
         d="m 200.976,342.94 4.035,-22.877 c 0.091,-0.512 -0.05,-1.038 -0.385,-1.437 -0.333,-0.399 -0.827,-0.629 -1.347,-0.629 -11.878,0 -23.81,3.444 -34.738,9.993 l 1.397,-7.927 c 0.091,-0.512 -0.05,-1.038 -0.385,-1.437 -0.333,-0.399 -0.827,-0.629 -1.347,-0.629 H 145.33 c -0.854,0 -1.584,0.614 -1.732,1.454 L 123.161,435.35 c -0.091,0.512 0.05,1.038 0.385,1.437 0.333,0.399 0.827,0.629 1.347,0.629 h 22.877 c 0.854,0 1.584,-0.613 1.732,-1.454 l 10.218,-57.95 c 3.269,-18.537 20.998,-33.619 39.524,-33.619 0.854,0 1.585,-0.613 1.732,-1.453 z"
         style="fill:#000000;fill-opacity:1;stroke-width:0.99999809" />
      <path
         inkscape:connector-curvature="0"
         id="path10-2"
         d="m 331.873,318.626 c -0.333,-0.399 -0.827,-0.629 -1.347,-0.629 h -22.877 c -0.854,0 -1.584,0.614 -1.732,1.454 L 285.48,435.35 c -0.091,0.512 0.05,1.038 0.385,1.437 0.333,0.399 0.827,0.629 1.347,0.629 h 22.877 c 0.854,0 1.584,-0.613 1.732,-1.454 l 20.436,-115.899 c 0.092,-0.512 -0.049,-1.038 -0.384,-1.437 z"
         style="fill:#000000;fill-opacity:1;stroke-width:0.99999809" />
      <path
         inkscape:connector-curvature="0"
         id="path12-9"
         d="m 594.62,317.997 h -22.877 c -0.854,0 -1.584,0.614 -1.732,1.454 l -10.218,57.95 c -3.27,18.538 -21.002,33.619 -39.526,33.619 -8.723,0 -16.348,-3.361 -21.469,-9.466 -5.243,-6.247 -7.262,-14.607 -5.687,-23.542 l 10.218,-57.95 c 0.091,-0.512 -0.05,-1.038 -0.385,-1.437 -0.333,-0.399 -0.827,-0.629 -1.347,-0.629 H 478.72 c -0.854,0 -1.584,0.614 -1.732,1.454 l -11.014,62.462 c -0.058,0.327 -0.022,0.656 0.098,0.957 -1.255,14.755 3.098,28.429 12.299,38.586 9.325,10.292 22.772,15.96 37.862,15.96 11.877,0 23.808,-3.444 34.738,-9.993 l -1.397,7.927 c -0.091,0.512 0.05,1.038 0.385,1.437 0.333,0.399 0.827,0.629 1.347,0.629 h 22.877 c 0.854,0 1.584,-0.613 1.732,-1.454 l 20.436,-115.899 c 0.091,-0.512 -0.05,-1.038 -0.385,-1.437 -0.332,-0.398 -0.825,-0.628 -1.346,-0.628 z"
         style="fill:#000000;fill-opacity:1;stroke-width:0.99999809" />
      <path
         inkscape:connector-curvature="0"
         id="path14-6"
         d="m 719.677,365.136 c -0.333,-0.399 -0.827,-0.629 -1.347,-0.629 h -45.425 c -0.854,0 -1.584,0.613 -1.732,1.454 l -4.033,22.877 c -0.091,0.512 0.05,1.038 0.385,1.437 0.333,0.399 0.827,0.629 1.347,0.629 l 17.611,0.002 C 679,403.042 665.56,411.02 652.18,411.02 h -40.017 c -0.854,0 -1.584,0.614 -1.732,1.454 l -4.033,22.877 c -0.091,0.512 0.05,1.038 0.385,1.437 0.333,0.399 0.827,0.629 1.347,0.629 h 40.017 c 32.767,0 64.124,-26.649 69.9,-59.405 l 2.016,-11.438 c 0.091,-0.514 -0.05,-1.04 -0.386,-1.438 z"
         style="fill:#000000;fill-opacity:1;stroke-width:0.99999809" />
      <path
         inkscape:connector-curvature="0"
         id="path16-1"
         d="m 646.069,389.449 4.033,-22.877 c 0.091,-0.512 -0.05,-1.038 -0.385,-1.437 -0.333,-0.399 -0.827,-0.629 -1.347,-0.629 h -18.123 c 7.482,-12.136 20.923,-20.113 34.301,-20.113 h 40.017 c 0.854,0 1.584,-0.613 1.732,-1.454 l 4.035,-22.877 c 0.091,-0.512 -0.05,-1.038 -0.385,-1.437 -0.333,-0.399 -0.827,-0.629 -1.347,-0.629 h -40.017 c -32.768,0 -64.126,26.649 -69.9,59.404 l -2.024,11.476 c -0.091,0.512 0.05,1.04 0.385,1.438 0.333,0.397 0.827,0.627 1.347,0.627 h 0.002 l 45.946,-0.04 c 0.852,0.002 1.582,-0.612 1.73,-1.452 z"
         style="fill:#000000;fill-opacity:1;stroke-width:0.99999809" />
      <path
         inkscape:connector-curvature="0"
         id="path18-0"
         d="m 338.117,283.213 c -0.333,-0.399 -0.827,-0.629 -1.347,-0.629 h -22.877 c -0.854,0 -1.584,0.613 -1.732,1.454 l -1.533,8.693 c 0.133,0 0.25,0 0.385,0 14.86,0 21.224,13.043 22.634,16.45 0.368,-0.26 0.644,-0.644 0.727,-1.115 l 4.13,-23.416 c 0.089,-0.512 -0.052,-1.038 -0.387,-1.437 z"
         style="fill:#000000;fill-opacity:1;stroke-width:0.99999809" />
    </g>
  </g>
</svg>
