<?xml version="1.0" encoding="UTF-8" standalone="no"?>
<!-- Generator: Adobe Illustrator 17.0.0, SVG Export Plug-In . SVG Version: 6.00 Build 0)  -->

<svg
   xmlns:dc="http://purl.org/dc/elements/1.1/"
   xmlns:cc="http://creativecommons.org/ns#"
   xmlns:rdf="http://www.w3.org/1999/02/22-rdf-syntax-ns#"
   xmlns:svg="http://www.w3.org/2000/svg"
   xmlns="http://www.w3.org/2000/svg"
   xmlns:sodipodi="http://sodipodi.sourceforge.net/DTD/sodipodi-0.dtd"
   xmlns:inkscape="http://www.inkscape.org/namespaces/inkscape"
   version="1.1"
   id="Layer_1"
   x="0px"
   y="0px"
   width="800.19897"
   height="172.037"
   viewBox="0 0 720.17908 154.8333"
   enable-background="new 0 0 720 720"
   xml:space="preserve"
   sodipodi:docname="OrcinusFix_Logotype_whtie.svg"
   inkscape:version="0.92.0 unknown"><metadata
     id="metadata27"><rdf:RDF><cc:Work
         rdf:about=""><dc:format>image/svg+xml</dc:format><dc:type
           rdf:resource="http://purl.org/dc/dcmitype/StillImage" /><dc:title></dc:title></cc:Work></rdf:RDF></metadata><defs
     id="defs25" /><sodipodi:namedview
     pagecolor="#ffffff"
     bordercolor="#666666"
     borderopacity="1"
     objecttolerance="10"
     gridtolerance="10"
     guidetolerance="10"
     inkscape:pageopacity="0"
     inkscape:pageshadow="2"
     inkscape:window-width="1325"
     inkscape:window-height="747"
     id="namedview23"
     showgrid="false"
     inkscape:zoom="1.8541911"
     inkscape:cx="174.19837"
     inkscape:cy="130.03041"
     inkscape:window-x="41"
     inkscape:window-y="21"
     inkscape:window-maximized="1"
     inkscape:current-layer="Layer_1"
     fit-margin-top="1"
     fit-margin-left="1"
     fit-margin-bottom="1"
     fit-margin-right="1" /><g
     id="g7604"
     transform="matrix(1.0000019,0,0,1.0000019,0.08842125,-282.58453)"
     style="stroke-width:0.99999809"><path
       style="fill:#ffffff;fill-opacity:1;stroke-width:0.99999809"
       d="m 70.747,317.997 c -32.768,0 -64.126,26.649 -69.9,59.404 -2.848,16.144 0.852,31.311 10.416,42.71 9.364,11.16 23.231,17.305 39.048,17.305 32.767,0 64.124,-26.649 69.9,-59.404 2.848,-16.144 -0.852,-31.313 -10.418,-42.71 -9.364,-11.159 -23.231,-17.305 -39.046,-17.305 z m 23.122,59.404 c -3.27,18.538 -21.002,33.619 -39.526,33.619 -8.723,0 -16.348,-3.361 -21.469,-9.466 -5.243,-6.247 -7.262,-14.607 -5.687,-23.542 3.269,-18.537 20.998,-33.619 39.524,-33.619 8.723,0 16.348,3.361 21.469,9.464 5.244,6.249 7.263,14.609 5.689,23.544 z"
       id="path2"
       inkscape:connector-curvature="0" /><path
       style="fill:#ffffff;fill-opacity:1;stroke-width:0.99999809"
       d="m 443.397,334.309 c -9.34,-10.519 -22.901,-16.312 -38.183,-16.312 -11.878,0 -23.81,3.444 -34.738,9.993 l 1.397,-7.927 c 0.091,-0.512 -0.05,-1.038 -0.385,-1.437 -0.333,-0.399 -0.827,-0.629 -1.347,-0.629 h -22.877 c -0.854,0 -1.584,0.614 -1.732,1.454 L 325.095,435.35 c -0.091,0.512 0.05,1.038 0.385,1.437 0.333,0.399 0.827,0.629 1.347,0.629 h 22.877 c 0.854,0 1.584,-0.613 1.732,-1.454 l 10.218,-57.95 c 3.269,-18.537 20.998,-33.619 39.524,-33.619 8.723,0 16.348,3.361 21.469,9.464 5.243,6.248 7.262,14.609 5.688,23.543 l -10.218,57.95 c -0.091,0.512 0.05,1.038 0.385,1.437 0.333,0.399 0.827,0.629 1.347,0.629 h 22.877 c 0.854,0 1.584,-0.613 1.732,-1.454 l 10.808,-61.297 c 0.04,-0.217 0.026,-0.435 -0.026,-0.644 1.666,-15.141 -2.53,-29.225 -11.843,-39.712 z"
       id="path4"
       inkscape:connector-curvature="0" /><path
       style="fill:#ffffff;fill-opacity:1;stroke-width:0.99999809"
       d="m 290.77,324.607 c -0.132,-0.479 -0.461,-0.882 -0.906,-1.105 -7.022,-3.528 -14.865,-5.374 -23.313,-5.485 -0.082,-0.012 -0.167,-0.019 -0.253,-0.019 l -0.357,0.005 c -0.022,-0.002 -0.18,-0.005 -0.203,-0.005 -32.768,0 -64.126,26.649 -69.9,59.404 -2.848,16.144 0.852,31.311 10.416,42.71 9.364,11.16 23.231,17.305 39.048,17.305 l 0.359,-0.005 c 0.024,0.002 0.177,0.005 0.201,0.005 0.076,0 0.15,-0.005 0.223,-0.014 6.8,-0.088 13.636,-1.297 20.323,-3.597 0.827,-0.284 1.32,-1.133 1.157,-1.992 l -4.071,-21.485 c -0.095,-0.502 -0.404,-0.937 -0.845,-1.194 -0.442,-0.256 -0.973,-0.311 -1.456,-0.141 -3.791,1.304 -7.683,1.981 -11.541,2.012 -8.658,-0.064 -16.219,-3.449 -21.289,-9.536 -5.193,-6.236 -7.19,-14.566 -5.623,-23.458 3.25,-18.433 20.897,-33.509 39.314,-33.609 4.729,0.046 9.096,1.06 12.978,3.013 0.806,0.406 1.787,0.134 2.274,-0.626 l 13.251,-20.77 c 0.268,-0.42 0.345,-0.932 0.213,-1.413 z"
       id="path6"
       inkscape:connector-curvature="0" /><path
       style="fill:#ffffff;fill-opacity:1;stroke-width:0.99999809"
       d="m 200.976,342.94 4.035,-22.877 c 0.091,-0.512 -0.05,-1.038 -0.385,-1.437 -0.333,-0.399 -0.827,-0.629 -1.347,-0.629 -11.878,0 -23.81,3.444 -34.738,9.993 l 1.397,-7.927 c 0.091,-0.512 -0.05,-1.038 -0.385,-1.437 -0.333,-0.399 -0.827,-0.629 -1.347,-0.629 H 145.33 c -0.854,0 -1.584,0.614 -1.732,1.454 L 123.161,435.35 c -0.091,0.512 0.05,1.038 0.385,1.437 0.333,0.399 0.827,0.629 1.347,0.629 h 22.877 c 0.854,0 1.584,-0.613 1.732,-1.454 l 10.218,-57.95 c 3.269,-18.537 20.998,-33.619 39.524,-33.619 0.854,0 1.585,-0.613 1.732,-1.453 z"
       id="path8"
       inkscape:connector-curvature="0" /><path
       style="fill:#ffffff;fill-opacity:1;stroke-width:0.99999809"
       d="m 331.873,318.626 c -0.333,-0.399 -0.827,-0.629 -1.347,-0.629 h -22.877 c -0.854,0 -1.584,0.614 -1.732,1.454 L 285.48,435.35 c -0.091,0.512 0.05,1.038 0.385,1.437 0.333,0.399 0.827,0.629 1.347,0.629 h 22.877 c 0.854,0 1.584,-0.613 1.732,-1.454 l 20.436,-115.899 c 0.092,-0.512 -0.049,-1.038 -0.384,-1.437 z"
       id="path10"
       inkscape:connector-curvature="0" /><path
       style="fill:#ffffff;fill-opacity:1;stroke-width:0.99999809"
       d="m 594.62,317.997 h -22.877 c -0.854,0 -1.584,0.614 -1.732,1.454 l -10.218,57.95 c -3.27,18.538 -21.002,33.619 -39.526,33.619 -8.723,0 -16.348,-3.361 -21.469,-9.466 -5.243,-6.247 -7.262,-14.607 -5.687,-23.542 l 10.218,-57.95 c 0.091,-0.512 -0.05,-1.038 -0.385,-1.437 -0.333,-0.399 -0.827,-0.629 -1.347,-0.629 H 478.72 c -0.854,0 -1.584,0.614 -1.732,1.454 l -11.014,62.462 c -0.058,0.327 -0.022,0.656 0.098,0.957 -1.255,14.755 3.098,28.429 12.299,38.586 9.325,10.292 22.772,15.96 37.862,15.96 11.877,0 23.808,-3.444 34.738,-9.993 l -1.397,7.927 c -0.091,0.512 0.05,1.038 0.385,1.437 0.333,0.399 0.827,0.629 1.347,0.629 h 22.877 c 0.854,0 1.584,-0.613 1.732,-1.454 l 20.436,-115.899 c 0.091,-0.512 -0.05,-1.038 -0.385,-1.437 -0.332,-0.398 -0.825,-0.628 -1.346,-0.628 z"
       id="path12"
       inkscape:connector-curvature="0" /><path
       style="fill:#ffffff;fill-opacity:1;stroke-width:0.99999809"
       d="m 719.677,365.136 c -0.333,-0.399 -0.827,-0.629 -1.347,-0.629 h -45.425 c -0.854,0 -1.584,0.613 -1.732,1.454 l -4.033,22.877 c -0.091,0.512 0.05,1.038 0.385,1.437 0.333,0.399 0.827,0.629 1.347,0.629 l 17.611,0.002 C 679,403.042 665.56,411.02 652.18,411.02 h -40.017 c -0.854,0 -1.584,0.614 -1.732,1.454 l -4.033,22.877 c -0.091,0.512 0.05,1.038 0.385,1.437 0.333,0.399 0.827,0.629 1.347,0.629 h 40.017 c 32.767,0 64.124,-26.649 69.9,-59.405 l 2.016,-11.438 c 0.091,-0.514 -0.05,-1.04 -0.386,-1.438 z"
       id="path14"
       inkscape:connector-curvature="0" /><path
       style="fill:#ffffff;fill-opacity:1;stroke-width:0.99999809"
       d="m 646.069,389.449 4.033,-22.877 c 0.091,-0.512 -0.05,-1.038 -0.385,-1.437 -0.333,-0.399 -0.827,-0.629 -1.347,-0.629 h -18.123 c 7.482,-12.136 20.923,-20.113 34.301,-20.113 h 40.017 c 0.854,0 1.584,-0.613 1.732,-1.454 l 4.035,-22.877 c 0.091,-0.512 -0.05,-1.038 -0.385,-1.437 -0.333,-0.399 -0.827,-0.629 -1.347,-0.629 h -40.017 c -32.768,0 -64.126,26.649 -69.9,59.404 l -2.024,11.476 c -0.091,0.512 0.05,1.04 0.385,1.438 0.333,0.397 0.827,0.627 1.347,0.627 h 0.002 l 45.946,-0.04 c 0.852,0.002 1.582,-0.612 1.73,-1.452 z"
       id="path16"
       inkscape:connector-curvature="0" /><path
       style="fill:#ffffff;fill-opacity:1;stroke-width:0.99999809"
       d="m 338.117,283.213 c -0.333,-0.399 -0.827,-0.629 -1.347,-0.629 h -22.877 c -0.854,0 -1.584,0.613 -1.732,1.454 l -1.533,8.693 c 0.133,0 0.25,0 0.385,0 14.86,0 21.224,13.043 22.634,16.45 0.368,-0.26 0.644,-0.644 0.727,-1.115 l 4.13,-23.416 c 0.089,-0.512 -0.052,-1.038 -0.387,-1.437 z"
       id="path18"
       inkscape:connector-curvature="0" /></g></svg>