<?xml version="1.0" encoding="UTF-8" standalone="no"?>
<!-- Generator: Adobe Illustrator 17.0.0, SVG Export Plug-In . SVG Version: 6.00 Build 0)  -->

<svg
   xmlns:dc="http://purl.org/dc/elements/1.1/"
   xmlns:cc="http://creativecommons.org/ns#"
   xmlns:rdf="http://www.w3.org/1999/02/22-rdf-syntax-ns#"
   xmlns:svg="http://www.w3.org/2000/svg"
   xmlns="http://www.w3.org/2000/svg"
   xmlns:sodipodi="http://sodipodi.sourceforge.net/DTD/sodipodi-0.dtd"
   xmlns:inkscape="http://www.inkscape.org/namespaces/inkscape"
   version="1.1"
   id="Layer_1"
   x="0px"
   y="0px"
   width="800.19897"
   height="172.037"
   viewBox="0 0 720.17908 154.8333"
   enable-background="new 0 0 720 720"
   xml:space="preserve"
   sodipodi:docname="OrcinusFix_Logotype_black.svg"
   inkscape:version="0.92.1 unknown"><metadata
     id="metadata27"><rdf:RDF><cc:Work
         rdf:about=""><dc:format>image/svg+xml</dc:format><dc:type
           rdf:resource="http://purl.org/dc/dcmitype/StillImage" /><dc:title /></cc:Work></rdf:RDF></metadata><defs
     id="defs25" /><sodipodi:namedview
     pagecolor="#ffffff"
     bordercolor="#666666"
     borderopacity="1"
     objecttolerance="10"
     gridtolerance="10"
     guidetolerance="10"
     inkscape:pageopacity="0"
     inkscape:pageshadow="2"
     inkscape:window-width="1200"
     inkscape:window-height="1899"
     id="namedview23"
     showgrid="false"
     inkscape:zoom="1.4468316"
     inkscape:cx="300.82145"
     inkscape:cy="-61.231601"
     inkscape:window-x="1366"
     inkscape:window-y="21"
     inkscape:window-maximized="1"
     inkscape:current-layer="Layer_1"
     fit-margin-top="1"
     fit-margin-left="1"
     fit-margin-bottom="1"
     fit-margin-right="1" /><path
     inkscape:connector-curvature="0"
     id="path2"
     d="m 70.835556,35.413074 c -32.768063,0 -64.1261222,26.649051 -69.90013314,59.404113 -2.84800546,16.144033 0.85200164,31.311063 10.41602014,42.710083 9.364017,11.16002 23.231044,17.30503 39.048074,17.30503 32.767062,0 64.124123,-26.64905 69.900133,-59.404112 2.84801,-16.14403 -0.852,-31.313059 -10.41802,-42.710081 C 100.51761,41.559086 86.650586,35.413074 70.835556,35.413074 Z M 93.9576,94.817187 c -3.270007,18.538033 -21.00204,33.619063 -39.526075,33.619063 -8.723017,0 -16.348032,-3.36101 -21.469041,-9.46602 -5.24301,-6.24701 -7.262014,-14.60702 -5.687011,-23.542042 3.269006,-18.537035 20.99804,-33.619064 39.524075,-33.619064 8.723017,0 16.348031,3.361007 21.469041,9.464018 5.24401,6.249012 7.263014,14.609028 5.689011,23.544045 z"
     style="fill:#000000;fill-opacity:1;stroke-width:1" /><path
     inkscape:connector-curvature="0"
     id="path4"
     d="m 443.48626,51.725105 c -9.34001,-10.51902 -22.90104,-16.312031 -38.18307,-16.312031 -11.87802,0 -23.81004,3.444007 -34.73806,9.993019 l 1.397,-7.927015 c 0.091,-0.512001 -0.05,-1.038002 -0.385,-1.437003 -0.333,-0.399 -0.827,-0.629001 -1.34701,-0.629001 h -22.87704 c -0.854,0 -1.584,0.614001 -1.732,1.454003 L 325.18404,152.7663 c -0.091,0.512 0.05,1.038 0.385,1.437 0.333,0.399 0.827,0.629 1.347,0.629 h 22.87705 c 0.854,0 1.584,-0.613 1.732,-1.454 l 10.21802,-57.950112 c 3.269,-18.537035 20.99804,-33.619064 39.52407,-33.619064 8.72302,0 16.34803,3.361007 21.46904,9.464018 5.24301,6.248012 7.26202,14.609028 5.68802,23.543045 L 418.20622,152.7663 c -0.091,0.512 0.05,1.038 0.385,1.437 0.333,0.399 0.827,0.629 1.347,0.629 h 22.87704 c 0.854,0 1.58401,-0.613 1.73201,-1.454 l 10.80802,-61.297118 c 0.04,-0.217001 0.026,-0.435001 -0.026,-0.644001 1.666,-15.141029 -2.53001,-29.225056 -11.84303,-39.712076 z"
     style="fill:#000000;fill-opacity:1;stroke-width:1" /><path
     inkscape:connector-curvature="0"
     id="path6"
     d="m 290.85897,42.023087 c -0.132,-0.479001 -0.461,-0.882002 -0.906,-1.105002 -7.02201,-3.528007 -14.86503,-5.374011 -23.31304,-5.485011 -0.082,-0.012 -0.167,-0.019 -0.253,-0.019 l -0.357,0.005 c -0.022,-0.002 -0.18,-0.005 -0.203,-0.005 -32.76807,0 -64.12613,26.649051 -69.90014,59.404113 -2.848,16.144033 0.852,31.311063 10.41602,42.710083 9.36402,11.16002 23.23105,17.30503 39.04808,17.30503 l 0.359,-0.005 c 0.024,0.002 0.177,0.005 0.201,0.005 0.076,0 0.15,-0.005 0.223,-0.014 6.80001,-0.088 13.63602,-1.297 20.32304,-3.59701 0.827,-0.284 1.32,-1.133 1.157,-1.992 l -4.07101,-21.48504 c -0.095,-0.502 -0.404,-0.937 -0.845,-1.194 -0.442,-0.256 -0.973,-0.311 -1.456,-0.141 -3.79101,1.304 -7.68302,1.981 -11.54102,2.012 -8.65802,-0.064 -16.21904,-3.44901 -21.28904,-9.53602 -5.19301,-6.23601 -7.19002,-14.56602 -5.62302,-23.458042 3.25001,-18.433035 20.89704,-33.509063 39.31408,-33.609064 4.72901,0.046 9.09602,1.060002 12.97802,3.013006 0.80601,0.406001 1.78701,0.134 2.27401,-0.626001 l 13.25102,-20.77004 c 0.268,-0.42 0.345,-0.932001 0.213,-1.413002 z"
     style="fill:#000000;fill-opacity:1;stroke-width:1" /><path
     inkscape:connector-curvature="0"
     id="path8"
     d="m 201.0648,60.356122 4.03501,-22.877044 c 0.091,-0.512001 -0.05,-1.038002 -0.385,-1.437003 -0.333,-0.399 -0.827,-0.629001 -1.347,-0.629001 -11.87803,0 -23.81005,3.444007 -34.73807,9.993019 l 1.397,-7.927015 c 0.091,-0.512001 -0.05,-1.038002 -0.385,-1.437003 -0.333,-0.399 -0.827,-0.629001 -1.347,-0.629001 H 145.4187 c -0.854,0 -1.58401,0.614001 -1.73201,1.454003 L 123.24966,152.7663 c -0.091,0.512 0.05,1.038 0.385,1.437 0.333,0.399 0.827,0.629 1.347,0.629 h 22.87704 c 0.854,0 1.58401,-0.613 1.73201,-1.454 l 10.21801,-57.950112 c 3.26901,-18.537035 20.99804,-33.619064 39.52408,-33.619064 0.854,0 1.585,-0.613001 1.732,-1.453002 z"
     style="fill:#000000;fill-opacity:1;stroke-width:1" /><path
     inkscape:connector-curvature="0"
     id="path10"
     d="m 331.96205,36.042075 c -0.333,-0.399 -0.827,-0.629001 -1.347,-0.629001 h -22.87704 c -0.85401,0 -1.58401,0.614001 -1.73201,1.454003 L 285.56896,152.7663 c -0.091,0.512 0.05,1.038 0.385,1.437 0.33301,0.399 0.82701,0.629 1.34701,0.629 h 22.87704 c 0.854,0 1.584,-0.613 1.732,-1.454 L 332.34605,37.479078 c 0.092,-0.512001 -0.049,-1.038002 -0.384,-1.437003 z"
     style="fill:#000000;fill-opacity:1;stroke-width:1" /><path
     inkscape:connector-curvature="0"
     id="path12"
     d="m 594.70955,35.413074 h -22.87704 c -0.854,0 -1.58401,0.614001 -1.73201,1.454003 l -10.21802,57.95011 c -3.27,18.538033 -21.00204,33.619063 -39.52607,33.619063 -8.72302,0 -16.34803,-3.36101 -21.46904,-9.46602 -5.24301,-6.24701 -7.26201,-14.60702 -5.68701,-23.542042 l 10.21802,-57.95011 c 0.091,-0.512001 -0.05,-1.038002 -0.385,-1.437003 -0.333,-0.399 -0.827,-0.629001 -1.34701,-0.629001 h -22.87704 c -0.854,0 -1.584,0.614001 -1.732,1.454003 l -11.01402,62.462119 c -0.058,0.327 -0.022,0.656001 0.098,0.957004 -1.25501,14.75503 3.098,28.42905 12.29902,38.58607 9.32502,10.29202 22.77204,15.96003 37.86207,15.96003 11.87702,0 23.80805,-3.44401 34.73807,-9.99302 l -1.397,7.92702 c -0.091,0.512 0.05,1.038 0.385,1.437 0.333,0.399 0.827,0.629 1.347,0.629 h 22.87704 c 0.854,0 1.58401,-0.613 1.73201,-1.454 L 596.44055,37.478078 c 0.091,-0.512001 -0.05,-1.038002 -0.385,-1.437003 -0.332,-0.398 -0.825,-0.628001 -1.346,-0.628001 z"
     style="fill:#000000;fill-opacity:1;stroke-width:1" /><path
     inkscape:connector-curvature="0"
     id="path14"
     d="m 719.76679,82.552164 c -0.333,-0.399001 -0.827,-0.629001 -1.347,-0.629001 H 672.9947 c -0.854,0 -1.584,0.613001 -1.732,1.454002 l -4.03301,22.877045 c -0.091,0.512 0.05,1.038 0.385,1.437 0.333,0.399 0.827,0.629 1.347,0.629 l 17.61104,0.002 c -7.48302,12.13603 -20.92304,20.11404 -34.30307,20.11404 h -40.01708 c -0.854,0 -1.584,0.614 -1.732,1.454 l -4.03301,22.87705 c -0.091,0.512 0.05,1.038 0.385,1.437 0.333,0.399 0.82701,0.629 1.34701,0.629 h 40.01707 c 32.76706,0 64.12412,-26.64905 69.90014,-59.405112 l 2.016,-11.438022 c 0.091,-0.514 -0.05,-1.040001 -0.386,-1.438002 z"
     style="fill:#000000;fill-opacity:1;stroke-width:1" /><path
     inkscape:connector-curvature="0"
     id="path16"
     d="m 646.15865,106.86521 4.03301,-22.877044 c 0.091,-0.512 -0.05,-1.038001 -0.385,-1.437002 -0.333,-0.399001 -0.82701,-0.629001 -1.34701,-0.629001 h -18.12303 c 7.48201,-12.136023 20.92304,-20.113039 34.30106,-20.113039 h 40.01708 c 0.854,0 1.584,-0.613001 1.732,-1.454002 l 4.03501,-22.877044 c 0.091,-0.512001 -0.05,-1.038002 -0.385,-1.437003 -0.333,-0.399 -0.827,-0.629001 -1.347,-0.629001 h -40.01708 c -32.76806,0 -64.12612,26.649051 -69.90013,59.404113 l -2.02401,11.476023 c -0.091,0.512 0.05,1.04 0.38501,1.438 0.333,0.397 0.827,0.627 1.347,0.627 h 0.002 l 45.94609,-0.04 c 0.852,0.002 1.582,-0.612 1.73,-1.452 z"
     style="fill:#000000;fill-opacity:1;stroke-width:1" /><path
     inkscape:connector-curvature="0"
     id="path18"
     d="m 338.20606,0.6290081 c -0.333,-0.39900075 -0.827,-0.6290011904 -1.347,-0.6290011904 h -22.87704 c -0.854,0 -1.58401,0.6130011604 -1.73201,1.4540027904 l -1.533,8.6930163 c 0.133,0 0.25,0 0.385,0 14.86003,0 21.22404,13.043025 22.63405,16.450031 0.368,-0.26 0.644,-0.644001 0.727,-1.115002 l 4.13,-23.4160442 c 0.089,-0.5120009 -0.052,-1.0380019 -0.387,-1.4370027 z"
     style="fill:#000000;fill-opacity:1;stroke-width:1" /></svg>