<?xml version="1.0" encoding="UTF-8" standalone="no"?>
<!-- Generator: Adobe Illustrator 17.0.0, SVG Export Plug-In . SVG Version: 6.00 Build 0)  -->

<svg
   xmlns:dc="http://purl.org/dc/elements/1.1/"
   xmlns:cc="http://creativecommons.org/ns#"
   xmlns:rdf="http://www.w3.org/1999/02/22-rdf-syntax-ns#"
   xmlns:svg="http://www.w3.org/2000/svg"
   xmlns="http://www.w3.org/2000/svg"
   xmlns:sodipodi="http://sodipodi.sourceforge.net/DTD/sodipodi-0.dtd"
   xmlns:inkscape="http://www.inkscape.org/namespaces/inkscape"
   version="1.1"
   id="Layer_1"
   x="0px"
   y="0px"
   width="512"
   height="512"
   viewBox="0 0 512 512"
   enable-background="new 0 0 720 720"
   xml:space="preserve"
   sodipodi:docname="OrcinusFix_black.svg"
   inkscape:version="0.92.1 unknown"><metadata
     id="metadata31"><rdf:RDF><cc:Work
         rdf:about=""><dc:format>image/svg+xml</dc:format><dc:type
           rdf:resource="http://purl.org/dc/dcmitype/StillImage" /><dc:title /></cc:Work></rdf:RDF></metadata><defs
     id="defs29" /><sodipodi:namedview
     pagecolor="#ffffff"
     bordercolor="#666666"
     borderopacity="1"
     objecttolerance="10"
     gridtolerance="10"
     guidetolerance="10"
     inkscape:pageopacity="0"
     inkscape:pageshadow="2"
     inkscape:window-width="1325"
     inkscape:window-height="747"
     id="namedview27"
     showgrid="false"
     inkscape:zoom="0.44046862"
     inkscape:cx="87.853664"
     inkscape:cy="-1.9967545"
     inkscape:window-x="41"
     inkscape:window-y="38"
     inkscape:window-maximized="1"
     inkscape:current-layer="Layer_1" /><g
     id="g20"
     style="fill:#727272;fill-opacity:1"
     transform="matrix(0.95000828,0,0,0.95000828,-85.683462,-105.3575)"><path
       d="m 195.29,535.208 c -18.621,0 -36.44,15.144 -39.722,33.757 -1.618,9.174 0.484,17.793 5.919,24.271 5.321,6.342 13.201,9.834 22.189,9.834 18.62,0 36.439,-15.144 39.722,-33.757 1.618,-9.174 -0.484,-17.794 -5.92,-24.271 -5.321,-6.342 -13.2,-9.834 -22.188,-9.834 z m 13.14,33.757 c -1.858,10.534 -11.935,19.104 -22.461,19.104 -4.957,0 -9.29,-1.91 -12.2,-5.379 -2.979,-3.55 -4.127,-8.301 -3.231,-13.378 1.857,-10.534 11.933,-19.104 22.46,-19.104 4.957,0 9.29,1.91 12.2,5.378 2.979,3.551 4.126,8.302 3.232,13.379 z"
       id="path2"
       style="fill:#727272;fill-opacity:1"
       inkscape:connector-curvature="0" /><path
       d="m 407.054,544.478 c -5.308,-5.978 -13.014,-9.27 -21.698,-9.27 -6.75,0 -13.53,1.957 -19.74,5.679 l 0.794,-4.505 c 0.052,-0.291 -0.028,-0.59 -0.219,-0.816 -0.189,-0.227 -0.47,-0.357 -0.766,-0.357 h -13 c -0.485,0 -0.9,0.349 -0.984,0.826 l -11.613,65.861 c -0.052,0.291 0.028,0.59 0.219,0.816 0.189,0.227 0.47,0.357 0.766,0.357 h 13 c 0.485,0 0.9,-0.349 0.984,-0.826 l 5.807,-32.931 c 1.857,-10.534 11.933,-19.104 22.46,-19.104 4.957,0 9.29,1.91 12.2,5.378 2.979,3.551 4.127,8.302 3.232,13.379 l -5.807,32.931 c -0.052,0.291 0.028,0.59 0.219,0.816 0.189,0.227 0.47,0.357 0.766,0.357 h 13 c 0.485,0 0.9,-0.349 0.984,-0.826 L 413.8,567.41 c 0.022,-0.123 0.015,-0.247 -0.015,-0.366 0.946,-8.604 -1.439,-16.607 -6.731,-22.566 z"
       id="path4"
       style="fill:#727272;fill-opacity:1"
       inkscape:connector-curvature="0" /><path
       d="m 320.322,538.964 c -0.075,-0.272 -0.262,-0.501 -0.515,-0.628 -3.99,-2.005 -8.447,-3.054 -13.248,-3.117 -0.047,-0.007 -0.095,-0.011 -0.144,-0.011 l -0.203,0.003 c -0.013,-10e-4 -0.103,-0.003 -0.115,-0.003 -18.621,0 -36.44,15.144 -39.722,33.757 -1.618,9.174 0.484,17.793 5.919,24.271 5.321,6.342 13.201,9.834 22.189,9.834 l 0.204,-0.003 c 0.014,10e-4 0.101,0.003 0.114,0.003 0.043,0 0.085,-0.003 0.127,-0.008 3.864,-0.05 7.749,-0.737 11.549,-2.044 0.47,-0.161 0.75,-0.644 0.657,-1.132 l -2.313,-12.209 c -0.054,-0.285 -0.229,-0.532 -0.48,-0.679 -0.251,-0.146 -0.553,-0.177 -0.827,-0.08 -2.154,0.741 -4.366,1.126 -6.559,1.144 -4.92,-0.036 -9.217,-1.96 -12.098,-5.419 -2.951,-3.544 -4.086,-8.277 -3.195,-13.33 1.847,-10.475 11.875,-19.042 22.341,-19.099 2.688,0.026 5.169,0.603 7.375,1.712 0.458,0.23 1.016,0.076 1.292,-0.355 l 7.53,-11.803 c 0.153,-0.24 0.197,-0.531 0.122,-0.804 z"
       id="path6"
       style="fill:#727272;fill-opacity:1"
       inkscape:connector-curvature="0" /><path
       d="m 269.295,549.382 2.293,-13 c 0.052,-0.291 -0.028,-0.59 -0.219,-0.816 -0.189,-0.227 -0.47,-0.357 -0.766,-0.357 -6.75,0 -13.53,1.957 -19.74,5.679 l 0.794,-4.505 c 0.052,-0.291 -0.028,-0.59 -0.219,-0.816 -0.189,-0.227 -0.47,-0.357 -0.766,-0.357 h -13 c -0.485,0 -0.9,0.349 -0.984,0.826 l -11.613,65.861 c -0.052,0.291 0.028,0.59 0.219,0.816 0.189,0.227 0.47,0.357 0.766,0.357 h 13 c 0.485,0 0.9,-0.349 0.984,-0.826 l 5.807,-32.931 c 1.857,-10.534 11.933,-19.104 22.46,-19.104 0.485,-10e-4 0.9,-0.35 0.984,-0.827 z"
       id="path8"
       style="fill:#727272;fill-opacity:1"
       inkscape:connector-curvature="0" /><path
       d="m 343.679,535.565 c -0.189,-0.227 -0.47,-0.357 -0.766,-0.357 h -13 c -0.485,0 -0.9,0.349 -0.984,0.826 l -11.613,65.861 c -0.052,0.291 0.028,0.59 0.219,0.816 0.189,0.227 0.47,0.357 0.766,0.357 h 13 c 0.485,0 0.9,-0.349 0.984,-0.826 l 11.613,-65.861 c 0.051,-0.29 -0.029,-0.589 -0.219,-0.816 z"
       id="path10"
       style="fill:#727272;fill-opacity:1"
       inkscape:connector-curvature="0" /><path
       d="m 492.989,535.208 h -13 c -0.485,0 -0.9,0.349 -0.984,0.826 l -5.807,32.931 c -1.858,10.534 -11.935,19.104 -22.461,19.104 -4.957,0 -9.29,-1.91 -12.2,-5.379 -2.979,-3.55 -4.127,-8.301 -3.231,-13.378 l 5.807,-32.931 c 0.052,-0.291 -0.028,-0.59 -0.219,-0.816 -0.189,-0.227 -0.47,-0.357 -0.766,-0.357 h -13 c -0.485,0 -0.9,0.349 -0.984,0.826 l -6.259,35.495 c -0.033,0.186 -0.013,0.373 0.056,0.544 -0.713,8.385 1.761,16.155 6.989,21.927 5.299,5.849 12.94,9.069 21.516,9.069 6.749,0 13.529,-1.957 19.74,-5.679 l -0.794,4.505 c -0.052,0.291 0.028,0.59 0.219,0.816 0.189,0.227 0.47,0.357 0.766,0.357 h 13 c 0.485,0 0.9,-0.349 0.984,-0.826 l 11.613,-65.861 c 0.052,-0.291 -0.028,-0.59 -0.219,-0.816 -0.19,-0.226 -0.471,-0.357 -0.766,-0.357 z"
       id="path12"
       style="fill:#727272;fill-opacity:1"
       inkscape:connector-curvature="0" /><path
       d="m 564.054,561.995 c -0.189,-0.227 -0.47,-0.357 -0.766,-0.357 h -25.813 c -0.485,0 -0.9,0.349 -0.984,0.826 l -2.292,13 c -0.052,0.291 0.028,0.59 0.219,0.816 0.189,0.227 0.47,0.357 0.766,0.357 l 10.008,0.001 c -4.252,6.897 -11.89,11.431 -19.493,11.431 h -22.74 c -0.485,0 -0.9,0.349 -0.984,0.826 l -2.292,13 c -0.052,0.291 0.028,0.59 0.219,0.816 0.189,0.227 0.47,0.357 0.766,0.357 h 22.74 c 18.62,0 36.439,-15.144 39.722,-33.758 l 1.146,-6.5 c 0.048,-0.289 -0.032,-0.588 -0.222,-0.815 z"
       id="path14"
       style="fill:#727272;fill-opacity:1"
       inkscape:connector-curvature="0" /><path
       d="m 522.225,575.812 2.292,-13 c 0.052,-0.291 -0.028,-0.59 -0.219,-0.816 -0.189,-0.227 -0.47,-0.357 -0.766,-0.357 h -10.299 c 4.252,-6.896 11.89,-11.43 19.492,-11.43 h 22.74 c 0.485,0 0.9,-0.349 0.984,-0.826 l 2.293,-13 c 0.052,-0.291 -0.028,-0.59 -0.219,-0.816 -0.189,-0.227 -0.47,-0.357 -0.766,-0.357 h -22.74 c -18.621,0 -36.44,15.144 -39.722,33.757 l -1.15,6.521 c -0.052,0.291 0.028,0.591 0.219,0.817 0.189,0.226 0.47,0.356 0.766,0.356 h 10e-4 l 26.109,-0.022 c 0.486,-10e-4 0.901,-0.35 0.985,-0.827 z"
       id="path16"
       style="fill:#727272;fill-opacity:1"
       inkscape:connector-curvature="0" /><path
       d="m 347.227,515.441 c -0.189,-0.227 -0.47,-0.357 -0.766,-0.357 h -13 c -0.485,0 -0.9,0.349 -0.984,0.826 l -0.871,4.94 c 0.076,0 0.142,0 0.219,0 8.444,0 12.061,7.412 12.862,9.348 0.209,-0.148 0.366,-0.366 0.413,-0.634 l 2.347,-13.307 c 0.05,-0.29 -0.03,-0.589 -0.22,-0.816 z"
       id="path18"
       style="fill:#727272;fill-opacity:1"
       inkscape:connector-curvature="0" /></g><path
     d="m 488.28494,127.41733 c 0,0 -29.189,22.17984 -54.90478,29.00185 3.99859,-7.07091 5.5946,-12.4907 5.8397,-13.37136 l 4.78709,-17.23695 -17.64545,2.94122 c -3.88173,0.64791 -7.55732,0.97471 -10.92509,0.97566 -10.10144,0 -17.59416,-2.86142 -22.90565,-8.74672 -5.2374,-5.80171 -13.49677,-20.65793 -9.97319,-54.963684 l 0.0456,-0.598505 c 0.3838,-7.736867 -2.54032,-12.519209 -5.06164,-15.168782 -2.52418,-2.652423 -7.15832,-5.814051 -14.90468,-5.814051 -10.07674,0 -21.27829,5.502448 -22.5228,6.129454 l -0.81321,0.410403 -0.73815,0.533905 c -33.34149,24.13686 -43.68424,61.28028 -46.71286,77.52448 -5.33145,1.15521 -11.3982,1.73851 -18.11761,1.73851 -24.25941,9.5e-4 -52.0538,-7.60957 -67.61209,-14.68143 -11.92925,-5.42169 -73.27699,-32.559631 -109.702205,-34.380797 -1.242611,-0.06175 -2.490922,-0.0931 -3.710732,-0.0931 -26.555582,0 -40.773406,14.420176 -46.395555,21.967037 -13.397016,4.86785 -19.026765,14.48003 -19.980574,23.81766 -0.279302,0.4047 -0.540554,0.82461 -0.781857,1.26161 -1.844916,3.33358 -2.31517,7.17446 -1.332861,10.8453 l 3.47418,12.09265 0.06935,0.23085 c 0.300202,0.96806 0.633655,1.92377 0.969958,2.87948 0.147251,0.4218 0.296403,0.84456 0.470254,1.35756 l 2.691374,7.74352 0.121601,0.3344 c 0.684956,1.78792 1.398412,3.52358 2.087168,5.2032 0.353403,0.8588 0.706806,1.71951 1.077309,2.63627 l 1.552314,3.79718 0.110201,0.26126 c 0.412303,0.94145 0.856907,1.86866 1.305311,2.79302 0.190952,0.39615 0.382854,0.79136 0.607056,1.26826 l 3.54543,7.39677 4.198087,7.78721 c 0.217552,0.39331 0.429404,0.78851 0.642206,1.18371 0.475954,0.88351 0.953808,1.76607 1.457312,2.63438 l 2.23062,3.68603 0.0532,0.0864 c 0.480704,0.77711 0.950959,1.56276 1.421213,2.34652 0.958558,1.59696 1.950367,3.24808 3.060926,4.92959 l 4.60469,6.82486 c 1.174211,1.79077 2.369321,3.36303 3.525481,4.88684 0.533905,0.70206 1.067809,1.40412 1.586514,2.11757 l 0.461704,0.62131 c 1.564664,2.09952 3.182528,4.27029 5.007494,6.4363 l 5.141444,6.27196 5.64115,6.38976 c 1.520013,1.76606 3.046676,3.34402 4.525839,4.86879 0.475954,0.49115 0.950958,0.98136 1.487713,1.54376 l 2.847175,2.93458 0.09405,0.096 c 0.687806,0.69255 1.393662,1.36706 2.099518,2.04157 0.329653,0.31445 0.659306,0.6289 0.986109,0.9462 l 0.111151,0.10545 c 0.662155,0.62606 1.316711,1.25972 1.972217,1.89337 1.330011,1.28631 2.705623,2.61727 4.176236,3.93019 l 6.080059,5.44924 1.007,0.85976 c 3.91404,3.32218 7.96012,6.75551 12.25606,9.99884 2.39402,1.89431 4.77759,3.64328 6.72701,5.05309 2.28857,1.68532 4.54104,3.33358 6.91701,4.94099 4.38334,3.08088 9.12578,6.19406 14.09052,9.24833 4.8517,2.99063 9.72619,5.84351 14.48668,8.47883 2.83577,1.57036 5.21555,2.83767 7.48226,3.98338 2.39973,1.24926 4.92865,2.51468 7.43762,3.72214 4.83459,2.37597 9.88864,4.65124 15.41293,6.93696 5.3761,2.24962 10.78735,4.25413 16.08459,5.95845 0,0 64.07046,25.23127 143.0532,10.03399 17.84116,0 32.67649,-4.67594 39.68375,-12.50781 4.37669,-4.8916 6.0297,-9.94279 4.90964,-15.01203 -1.73852,-7.87082 -8.68688,-10.8586 -14.81633,-13.49392 -9.79648,-4.21234 -22.85815,-9.82974 -29.06835,-31.64478 36.47272,-3.34023 64.49796,-44.03763 64.49796,-44.03763 0,0 -7.87842,3.61193 -18.96122,6.65006 l 0.92816,-0.83696 c 25.38802,-14.66243 46.53331,-38.26443 46.53331,-38.26443 0,0 -11.76395,5.24024 -26.93274,9.65968 l 6.04301,-7.65802 c 32.62423,-13.69437 64.80291,-62.16664 64.80291,-62.16664 z"
     id="path22"
     inkscape:connector-curvature="0"
     style="fill:#ffffff;stroke-width:0.95000827" /><path
     d="M 428.23587,139.99829 C 370.09346,149.68838 368.14879,94.728497 371.21637,64.854536 372.08563,47.364884 345.34669,60.6954 345.24599,60.74575 306.21965,88.998047 302.03772,138.00422 302.03772,138.00422 270.9924,148.87042 222.74433,136.17356 201.40049,126.47207 180.05665,116.77059 126.89134,94.650596 95.84602,93.098282 64.8007,91.545969 53.546901,113.27741 53.546901,113.27741 38.000966,117.23419 37.073758,127.36223 37.716914,132.57493 l -0.260303,0.0741 -0.0095,0.003 c -1.707165,0.4902 -2.693273,2.27242 -2.202119,3.97958 l 0.0028,0.0114 2.26292,7.87082 1.13336,3.93778 c 0.405653,1.30342 0.883507,2.58403 1.321461,3.87699 l 2.691374,7.74447 c 0.976608,2.55077 2.049167,5.06639 3.069476,7.60291 l 1.552314,3.79719 c 0.549105,1.25211 1.16946,2.47097 1.750865,3.70788 l 3.545431,7.39676 3.902634,7.21342 c 0.659306,1.19701 1.286311,2.41397 1.973167,3.59483 l 2.124219,3.50648 c 1.436412,2.32467 2.789224,4.70444 4.294987,6.98446 l 4.58569,6.79636 c 1.495313,2.28952 3.233828,4.40234 4.839342,6.61205 1.633065,2.18977 3.252829,4.38809 5.015094,6.47431 l 5.190845,6.33181 5.422648,6.12945 c 1.776515,2.07197 3.717382,3.99003 5.599348,5.96225 l 2.847175,2.93458 c 0.960459,0.96711 1.959868,1.89336 2.937428,2.84147 1.97982,1.87057 3.89693,3.80764 5.929,5.62025 l 6.08005,5.44925 c 4.14869,3.52073 8.28312,7.05666 12.62751,10.32849 2.12897,1.69006 4.31494,3.30223 6.51516,4.89539 2.18692,1.61122 4.37669,3.21388 6.62726,4.73389 4.43939,3.12268 8.98423,6.08956 13.60222,8.93103 4.61609,2.84528 9.28918,5.58795 14.02687,8.20997 2.36932,1.31101 4.75194,2.59447 7.16876,3.81524 2.39877,1.25116 4.81939,2.45862 7.25616,3.63188 4.85265,2.38452 9.79364,4.58569 14.78403,6.651 4.9809,2.08432 10.04824,3.97294 15.17828,5.62405 -4.94099,-2.14891 -9.72618,-4.61989 -14.50472,-7.06901 -4.76809,-2.47287 -9.45733,-5.08919 -14.10572,-7.76062 -4.6579,-2.65337 -9.21318,-5.48439 -13.73997,-8.33822 -4.53154,-2.84907 -8.98803,-5.81025 -13.37612,-8.86358 -4.37194,-3.07612 -8.71633,-6.18455 -12.96476,-9.41553 -2.14987,-1.58081 -4.23799,-3.24238 -6.32041,-4.90964 -2.09572,-1.64921 -4.17624,-3.31553 -6.195,-5.05689 -4.10309,-3.40293 -8.08457,-6.94076 -12.05751,-10.4824 l -5.8131,-5.47014 c -1.94087,-1.81832 -3.76488,-3.75539 -5.65255,-5.62595 -0.93196,-0.94811 -1.88481,-1.87437 -2.79777,-2.83958 l -2.70373,-2.92697 c -1.775562,-1.97602 -3.684128,-3.82949 -5.384643,-5.86915 l -5.227896,-6.00501 -4.994193,-6.195 c -1.696715,-2.04062 -3.251878,-4.18764 -4.819392,-6.32611 -1.539013,-2.15651 -3.213878,-4.21898 -4.642691,-6.4515 l -4.460288,-6.57786 c -1.478213,-2.19832 -2.803475,-4.49259 -4.214237,-6.73366 l -2.086218,-3.38108 c -0.673556,-1.13906 -1.288212,-2.31232 -1.936117,-3.46658 l -3.837084,-6.95501 -3.48843,-7.13456 c -0.571905,-1.19321 -1.18466,-2.36932 -1.725215,-3.57678 l -1.586514,-3.64043 c -1.046909,-2.43202 -2.146069,-4.8441 -3.153077,-7.29322 l -2.787325,-7.44331 c -0.455054,-1.24356 -0.951908,-2.47477 -1.374662,-3.73068 l -1.19036,-3.79339 -1.451613,-4.62084 1.486763,-0.48545 0.771407,-0.25175 0.0703,-0.0228 0.117801,-0.0256 0.367653,-0.0807 c 1.948467,-0.47596 3.949184,-0.80656 5.976502,-1.03361 1.021259,-0.0751 2.037768,-0.19191 3.064727,-0.23751 l 3.095127,-0.0741 3.116027,0.0779 3.127427,0.21756 c 2.086218,0.19665 4.174336,0.44365 6.261505,0.7657 2.089068,0.30401 4.178136,0.66406 6.258654,1.09821 2.085268,0.40756 4.159136,0.89966 6.233954,1.39841 2.071969,0.51491 4.139187,1.06496 6.199755,1.65017 8.239421,2.36077 16.422793,5.09774 24.587163,7.96582 1.17991,0.4009 2.36362,0.79991 3.54448,1.19986 8.51778,3.87223 15.27139,7.07091 19.02772,7.84517 13.19466,2.71607 27.94069,-1.93992 41.91151,23.6723 13.97083,25.61223 83.82208,76.83667 83.82208,76.83667 26.38838,77.61283 107.10584,72.95684 120.3005,58.20986 13.19467,-14.74603 -33.37379,-2.32847 -43.46383,-58.20986 11.1398,-6.0183 21.04174,-13.27826 29.82456,-21.19943 -36.99332,4.84029 -82.32866,-11.6908 -109.95395,-25.53717 116.93651,20.69688 133.82101,-0.69921 133.82101,-0.69921 -36.54112,11.6699 -76.90507,-9.13148 -76.90507,-9.13148 65.71302,8.27837 84.33984,-11.2614 84.33984,-11.2614 -16.29835,8.53773 -40.87696,-7.10701 -40.87696,-7.10701 56.65659,3.10558 69.59761,-43.47903 69.59761,-43.47903 z M 214.4023,166.01712 c -2.96972,6.2216 -18.54986,4.97804 -34.79975,-2.77688 -16.24989,-7.75586 -27.01539,-19.08661 -24.04566,-25.30822 2.96973,-6.2216 18.54891,-4.97804 34.79975,2.77688 16.24895,7.75491 27.01539,19.08661 24.04566,25.30822 z"
     id="path24"
     inkscape:connector-curvature="0"
     style="stroke-width:0.95000827" /></svg>