<?xml version="1.0" encoding="utf-8"?>
<!-- Generator: Adobe Illustrator 17.0.0, SVG Export Plug-In . SVG Version: 6.00 Build 0)  -->
<!DOCTYPE svg PUBLIC "-//W3C//DTD SVG 1.1//EN" "http://www.w3.org/Graphics/SVG/1.1/DTD/svg11.dtd">
<svg version="1.1" id="Layer_1" xmlns="http://www.w3.org/2000/svg" xmlns:xlink="http://www.w3.org/1999/xlink" x="0px" y="0px"
	 width="720px" height="720px" viewBox="0 0 720 720" enable-background="new 0 0 720 720" xml:space="preserve">
<g>
	<path d="M70.747,317.997c-32.768,0-64.126,26.649-69.9,59.404c-2.848,16.144,0.852,31.311,10.416,42.71
		c9.364,11.16,23.231,17.305,39.048,17.305c32.767,0,64.124-26.649,69.9-59.404c2.848-16.144-0.852-31.313-10.418-42.71
		C100.429,324.143,86.562,317.997,70.747,317.997z M93.869,377.401c-3.27,18.538-21.002,33.619-39.526,33.619
		c-8.723,0-16.348-3.361-21.469-9.466c-5.243-6.247-7.262-14.607-5.687-23.542c3.269-18.537,20.998-33.619,39.524-33.619
		c8.723,0,16.348,3.361,21.469,9.464C93.424,360.106,95.443,368.466,93.869,377.401z"/>
	<path d="M443.397,334.309c-9.34-10.519-22.901-16.312-38.183-16.312c-11.878,0-23.81,3.444-34.738,9.993l1.397-7.927
		c0.091-0.512-0.05-1.038-0.385-1.437c-0.333-0.399-0.827-0.629-1.347-0.629h-22.877c-0.854,0-1.584,0.614-1.732,1.454
		L325.095,435.35c-0.091,0.512,0.05,1.038,0.385,1.437c0.333,0.399,0.827,0.629,1.347,0.629h22.877c0.854,0,1.584-0.613,1.732-1.454
		l10.218-57.95c3.269-18.537,20.998-33.619,39.524-33.619c8.723,0,16.348,3.361,21.469,9.464c5.243,6.248,7.262,14.609,5.688,23.543
		l-10.218,57.95c-0.091,0.512,0.05,1.038,0.385,1.437c0.333,0.399,0.827,0.629,1.347,0.629h22.877c0.854,0,1.584-0.613,1.732-1.454
		l10.808-61.297c0.04-0.217,0.026-0.435-0.026-0.644C456.906,358.88,452.71,344.796,443.397,334.309z"/>
	<path d="M290.77,324.607c-0.132-0.479-0.461-0.882-0.906-1.105c-7.022-3.528-14.865-5.374-23.313-5.485
		c-0.082-0.012-0.167-0.019-0.253-0.019l-0.357,0.005c-0.022-0.002-0.18-0.005-0.203-0.005c-32.768,0-64.126,26.649-69.9,59.404
		c-2.848,16.144,0.852,31.311,10.416,42.71c9.364,11.16,23.231,17.305,39.048,17.305l0.359-0.005
		c0.024,0.002,0.177,0.005,0.201,0.005c0.076,0,0.15-0.005,0.223-0.014c6.8-0.088,13.636-1.297,20.323-3.597
		c0.827-0.284,1.32-1.133,1.157-1.992l-4.071-21.485c-0.095-0.502-0.404-0.937-0.845-1.194c-0.442-0.256-0.973-0.311-1.456-0.141
		c-3.791,1.304-7.683,1.981-11.541,2.012c-8.658-0.064-16.219-3.449-21.289-9.536c-5.193-6.236-7.19-14.566-5.623-23.458
		c3.25-18.433,20.897-33.509,39.314-33.609c4.729,0.046,9.096,1.06,12.978,3.013c0.806,0.406,1.787,0.134,2.274-0.626l13.251-20.77
		C290.825,325.6,290.902,325.088,290.77,324.607z"/>
	<path d="M200.976,342.94l4.035-22.877c0.091-0.512-0.05-1.038-0.385-1.437c-0.333-0.399-0.827-0.629-1.347-0.629
		c-11.878,0-23.81,3.444-34.738,9.993l1.397-7.927c0.091-0.512-0.05-1.038-0.385-1.437c-0.333-0.399-0.827-0.629-1.347-0.629H145.33
		c-0.854,0-1.584,0.614-1.732,1.454L123.161,435.35c-0.091,0.512,0.05,1.038,0.385,1.437c0.333,0.399,0.827,0.629,1.347,0.629
		h22.877c0.854,0,1.584-0.613,1.732-1.454l10.218-57.95c3.269-18.537,20.998-33.619,39.524-33.619
		C200.098,344.393,200.829,343.78,200.976,342.94z"/>
	<path d="M331.873,318.626c-0.333-0.399-0.827-0.629-1.347-0.629h-22.877c-0.854,0-1.584,0.614-1.732,1.454L285.48,435.35
		c-0.091,0.512,0.05,1.038,0.385,1.437c0.333,0.399,0.827,0.629,1.347,0.629h22.877c0.854,0,1.584-0.613,1.732-1.454l20.436-115.899
		C332.349,319.551,332.208,319.025,331.873,318.626z"/>
	<path d="M594.62,317.997h-22.877c-0.854,0-1.584,0.614-1.732,1.454l-10.218,57.95c-3.27,18.538-21.002,33.619-39.526,33.619
		c-8.723,0-16.348-3.361-21.469-9.466c-5.243-6.247-7.262-14.607-5.687-23.542l10.218-57.95c0.091-0.512-0.05-1.038-0.385-1.437
		c-0.333-0.399-0.827-0.629-1.347-0.629h-22.877c-0.854,0-1.584,0.614-1.732,1.454l-11.014,62.462
		c-0.058,0.327-0.022,0.656,0.098,0.957c-1.255,14.755,3.098,28.429,12.299,38.586c9.325,10.292,22.772,15.96,37.862,15.96
		c11.877,0,23.808-3.444,34.738-9.993l-1.397,7.927c-0.091,0.512,0.05,1.038,0.385,1.437c0.333,0.399,0.827,0.629,1.347,0.629
		h22.877c0.854,0,1.584-0.613,1.732-1.454l20.436-115.899c0.091-0.512-0.05-1.038-0.385-1.437
		C595.634,318.227,595.141,317.997,594.62,317.997z"/>
	<path d="M719.677,365.136c-0.333-0.399-0.827-0.629-1.347-0.629h-45.425c-0.854,0-1.584,0.613-1.732,1.454l-4.033,22.877
		c-0.091,0.512,0.05,1.038,0.385,1.437c0.333,0.399,0.827,0.629,1.347,0.629l17.611,0.002C679,403.042,665.56,411.02,652.18,411.02
		h-40.017c-0.854,0-1.584,0.614-1.732,1.454l-4.033,22.877c-0.091,0.512,0.05,1.038,0.385,1.437
		c0.333,0.399,0.827,0.629,1.347,0.629h40.017c32.767,0,64.124-26.649,69.9-59.405l2.016-11.438
		C720.154,366.06,720.013,365.534,719.677,365.136z"/>
	<path d="M646.069,389.449l4.033-22.877c0.091-0.512-0.05-1.038-0.385-1.437c-0.333-0.399-0.827-0.629-1.347-0.629h-18.123
		c7.482-12.136,20.923-20.113,34.301-20.113h40.017c0.854,0,1.584-0.613,1.732-1.454l4.035-22.877
		c0.091-0.512-0.05-1.038-0.385-1.437c-0.333-0.399-0.827-0.629-1.347-0.629h-40.017c-32.768,0-64.126,26.649-69.9,59.404
		l-2.024,11.476c-0.091,0.512,0.05,1.04,0.385,1.438c0.333,0.397,0.827,0.627,1.347,0.627h0.002l45.946-0.04
		C645.191,390.903,645.921,390.289,646.069,389.449z"/>
	<path d="M338.117,283.213c-0.333-0.399-0.827-0.629-1.347-0.629h-22.877c-0.854,0-1.584,0.613-1.732,1.454l-1.533,8.693
		c0.133,0,0.25,0,0.385,0c14.86,0,21.224,13.043,22.634,16.45c0.368-0.26,0.644-0.644,0.727-1.115l4.13-23.416
		C338.593,284.138,338.452,283.612,338.117,283.213z"/>
</g>
</svg>
