<?xml version="1.0" encoding="UTF-8" standalone="no"?>
<!-- Generator: Adobe Illustrator 17.0.0, SVG Export Plug-In . SVG Version: 6.00 Build 0)  -->

<svg
   xmlns:dc="http://purl.org/dc/elements/1.1/"
   xmlns:cc="http://creativecommons.org/ns#"
   xmlns:rdf="http://www.w3.org/1999/02/22-rdf-syntax-ns#"
   xmlns:svg="http://www.w3.org/2000/svg"
   xmlns="http://www.w3.org/2000/svg"
   xmlns:sodipodi="http://sodipodi.sourceforge.net/DTD/sodipodi-0.dtd"
   xmlns:inkscape="http://www.inkscape.org/namespaces/inkscape"
   version="1.1"
   id="Layer_1"
   x="0px"
   y="0px"
   width="512"
   height="512"
   viewBox="0 0 512 512"
   enable-background="new 0 0 720 720"
   xml:space="preserve"
   sodipodi:docname="OrcinusFix.svg"
   inkscape:version="0.92.1 unknown"><metadata
     id="metadata31"><rdf:RDF><cc:Work
         rdf:about=""><dc:format>image/svg+xml</dc:format><dc:type
           rdf:resource="http://purl.org/dc/dcmitype/StillImage" /><dc:title></dc:title></cc:Work></rdf:RDF></metadata><defs
     id="defs29" /><sodipodi:namedview
     pagecolor="#ffffff"
     bordercolor="#666666"
     borderopacity="1"
     objecttolerance="10"
     gridtolerance="10"
     guidetolerance="10"
     inkscape:pageopacity="0"
     inkscape:pageshadow="2"
     inkscape:window-width="1325"
     inkscape:window-height="747"
     id="namedview27"
     showgrid="false"
     inkscape:zoom="0.51153222"
     inkscape:cx="566.23667"
     inkscape:cy="277.72537"
     inkscape:window-x="41"
     inkscape:window-y="21"
     inkscape:window-maximized="1"
     inkscape:current-layer="Layer_1" /><g
     id="g7558"
     transform="matrix(0.95000828,0,0,0.95000828,-85.683462,92.244225)"><g
       transform="translate(0,-208)"
       style="fill:#ffffff;fill-opacity:1"
       id="g20"><path
         inkscape:connector-curvature="0"
         style="fill:#ffffff;fill-opacity:1"
         id="path2"
         d="m 195.29,535.208 c -18.621,0 -36.44,15.144 -39.722,33.757 -1.618,9.174 0.484,17.793 5.919,24.271 5.321,6.342 13.201,9.834 22.189,9.834 18.62,0 36.439,-15.144 39.722,-33.757 1.618,-9.174 -0.484,-17.794 -5.92,-24.271 -5.321,-6.342 -13.2,-9.834 -22.188,-9.834 z m 13.14,33.757 c -1.858,10.534 -11.935,19.104 -22.461,19.104 -4.957,0 -9.29,-1.91 -12.2,-5.379 -2.979,-3.55 -4.127,-8.301 -3.231,-13.378 1.857,-10.534 11.933,-19.104 22.46,-19.104 4.957,0 9.29,1.91 12.2,5.378 2.979,3.551 4.126,8.302 3.232,13.379 z" /><path
         inkscape:connector-curvature="0"
         style="fill:#ffffff;fill-opacity:1"
         id="path4"
         d="m 407.054,544.478 c -5.308,-5.978 -13.014,-9.27 -21.698,-9.27 -6.75,0 -13.53,1.957 -19.74,5.679 l 0.794,-4.505 c 0.052,-0.291 -0.028,-0.59 -0.219,-0.816 -0.189,-0.227 -0.47,-0.357 -0.766,-0.357 h -13 c -0.485,0 -0.9,0.349 -0.984,0.826 l -11.613,65.861 c -0.052,0.291 0.028,0.59 0.219,0.816 0.189,0.227 0.47,0.357 0.766,0.357 h 13 c 0.485,0 0.9,-0.349 0.984,-0.826 l 5.807,-32.931 c 1.857,-10.534 11.933,-19.104 22.46,-19.104 4.957,0 9.29,1.91 12.2,5.378 2.979,3.551 4.127,8.302 3.232,13.379 l -5.807,32.931 c -0.052,0.291 0.028,0.59 0.219,0.816 0.189,0.227 0.47,0.357 0.766,0.357 h 13 c 0.485,0 0.9,-0.349 0.984,-0.826 L 413.8,567.41 c 0.022,-0.123 0.015,-0.247 -0.015,-0.366 0.946,-8.604 -1.439,-16.607 -6.731,-22.566 z" /><path
         inkscape:connector-curvature="0"
         style="fill:#ffffff;fill-opacity:1"
         id="path6"
         d="m 320.322,538.964 c -0.075,-0.272 -0.262,-0.501 -0.515,-0.628 -3.99,-2.005 -8.447,-3.054 -13.248,-3.117 -0.047,-0.007 -0.095,-0.011 -0.144,-0.011 l -0.203,0.003 c -0.013,-10e-4 -0.103,-0.003 -0.115,-0.003 -18.621,0 -36.44,15.144 -39.722,33.757 -1.618,9.174 0.484,17.793 5.919,24.271 5.321,6.342 13.201,9.834 22.189,9.834 l 0.204,-0.003 c 0.014,10e-4 0.101,0.003 0.114,0.003 0.043,0 0.085,-0.003 0.127,-0.008 3.864,-0.05 7.749,-0.737 11.549,-2.044 0.47,-0.161 0.75,-0.644 0.657,-1.132 l -2.313,-12.209 c -0.054,-0.285 -0.229,-0.532 -0.48,-0.679 -0.251,-0.146 -0.553,-0.177 -0.827,-0.08 -2.154,0.741 -4.366,1.126 -6.559,1.144 -4.92,-0.036 -9.217,-1.96 -12.098,-5.419 -2.951,-3.544 -4.086,-8.277 -3.195,-13.33 1.847,-10.475 11.875,-19.042 22.341,-19.099 2.688,0.026 5.169,0.603 7.375,1.712 0.458,0.23 1.016,0.076 1.292,-0.355 l 7.53,-11.803 c 0.153,-0.24 0.197,-0.531 0.122,-0.804 z" /><path
         inkscape:connector-curvature="0"
         style="fill:#ffffff;fill-opacity:1"
         id="path8"
         d="m 269.295,549.382 2.293,-13 c 0.052,-0.291 -0.028,-0.59 -0.219,-0.816 -0.189,-0.227 -0.47,-0.357 -0.766,-0.357 -6.75,0 -13.53,1.957 -19.74,5.679 l 0.794,-4.505 c 0.052,-0.291 -0.028,-0.59 -0.219,-0.816 -0.189,-0.227 -0.47,-0.357 -0.766,-0.357 h -13 c -0.485,0 -0.9,0.349 -0.984,0.826 l -11.613,65.861 c -0.052,0.291 0.028,0.59 0.219,0.816 0.189,0.227 0.47,0.357 0.766,0.357 h 13 c 0.485,0 0.9,-0.349 0.984,-0.826 l 5.807,-32.931 c 1.857,-10.534 11.933,-19.104 22.46,-19.104 0.485,-10e-4 0.9,-0.35 0.984,-0.827 z" /><path
         inkscape:connector-curvature="0"
         style="fill:#ffffff;fill-opacity:1"
         id="path10"
         d="m 343.679,535.565 c -0.189,-0.227 -0.47,-0.357 -0.766,-0.357 h -13 c -0.485,0 -0.9,0.349 -0.984,0.826 l -11.613,65.861 c -0.052,0.291 0.028,0.59 0.219,0.816 0.189,0.227 0.47,0.357 0.766,0.357 h 13 c 0.485,0 0.9,-0.349 0.984,-0.826 l 11.613,-65.861 c 0.051,-0.29 -0.029,-0.589 -0.219,-0.816 z" /><path
         inkscape:connector-curvature="0"
         style="fill:#ffffff;fill-opacity:1"
         id="path12"
         d="m 492.989,535.208 h -13 c -0.485,0 -0.9,0.349 -0.984,0.826 l -5.807,32.931 c -1.858,10.534 -11.935,19.104 -22.461,19.104 -4.957,0 -9.29,-1.91 -12.2,-5.379 -2.979,-3.55 -4.127,-8.301 -3.231,-13.378 l 5.807,-32.931 c 0.052,-0.291 -0.028,-0.59 -0.219,-0.816 -0.189,-0.227 -0.47,-0.357 -0.766,-0.357 h -13 c -0.485,0 -0.9,0.349 -0.984,0.826 l -6.259,35.495 c -0.033,0.186 -0.013,0.373 0.056,0.544 -0.713,8.385 1.761,16.155 6.989,21.927 5.299,5.849 12.94,9.069 21.516,9.069 6.749,0 13.529,-1.957 19.74,-5.679 l -0.794,4.505 c -0.052,0.291 0.028,0.59 0.219,0.816 0.189,0.227 0.47,0.357 0.766,0.357 h 13 c 0.485,0 0.9,-0.349 0.984,-0.826 l 11.613,-65.861 c 0.052,-0.291 -0.028,-0.59 -0.219,-0.816 -0.19,-0.226 -0.471,-0.357 -0.766,-0.357 z" /><path
         inkscape:connector-curvature="0"
         style="fill:#ffffff;fill-opacity:1"
         id="path14"
         d="m 564.054,561.995 c -0.189,-0.227 -0.47,-0.357 -0.766,-0.357 h -25.813 c -0.485,0 -0.9,0.349 -0.984,0.826 l -2.292,13 c -0.052,0.291 0.028,0.59 0.219,0.816 0.189,0.227 0.47,0.357 0.766,0.357 l 10.008,0.001 c -4.252,6.897 -11.89,11.431 -19.493,11.431 h -22.74 c -0.485,0 -0.9,0.349 -0.984,0.826 l -2.292,13 c -0.052,0.291 0.028,0.59 0.219,0.816 0.189,0.227 0.47,0.357 0.766,0.357 h 22.74 c 18.62,0 36.439,-15.144 39.722,-33.758 l 1.146,-6.5 c 0.048,-0.289 -0.032,-0.588 -0.222,-0.815 z" /><path
         inkscape:connector-curvature="0"
         style="fill:#ffffff;fill-opacity:1"
         id="path16"
         d="m 522.225,575.812 2.292,-13 c 0.052,-0.291 -0.028,-0.59 -0.219,-0.816 -0.189,-0.227 -0.47,-0.357 -0.766,-0.357 h -10.299 c 4.252,-6.896 11.89,-11.43 19.492,-11.43 h 22.74 c 0.485,0 0.9,-0.349 0.984,-0.826 l 2.293,-13 c 0.052,-0.291 -0.028,-0.59 -0.219,-0.816 -0.189,-0.227 -0.47,-0.357 -0.766,-0.357 h -22.74 c -18.621,0 -36.44,15.144 -39.722,33.757 l -1.15,6.521 c -0.052,0.291 0.028,0.591 0.219,0.817 0.189,0.226 0.47,0.356 0.766,0.356 h 10e-4 l 26.109,-0.022 c 0.486,-10e-4 0.901,-0.35 0.985,-0.827 z" /><path
         inkscape:connector-curvature="0"
         style="fill:#ffffff;fill-opacity:1"
         id="path18"
         d="m 347.227,515.441 c -0.189,-0.227 -0.47,-0.357 -0.766,-0.357 h -13 c -0.485,0 -0.9,0.349 -0.984,0.826 l -0.871,4.94 c 0.076,0 0.142,0 0.219,0 8.444,0 12.061,7.412 12.862,9.348 0.209,-0.148 0.366,-0.366 0.413,-0.634 l 2.347,-13.307 c 0.05,-0.29 -0.03,-0.589 -0.22,-0.816 z" /></g><path
       style="fill:#ffffff"
       inkscape:connector-curvature="0"
       id="path22"
       d="m 604.172,37.024 c 0,0 -30.725,23.347 -57.794,30.528 4.209,-7.443 5.889,-13.148 6.147,-14.075 l 5.039,-18.144 -18.574,3.096 c -4.086,0.682 -7.955,1.026 -11.5,1.027 -10.633,0 -18.52,-3.012 -24.111,-9.207 -5.513,-6.107 -14.207,-21.745 -10.498,-57.856 l 0.048,-0.63 c 0.404,-8.144 -2.674,-13.178 -5.328,-15.967 -2.657,-2.792 -7.535,-6.12 -15.689,-6.12 -10.607,0 -22.398,5.792 -23.708,6.452 l -0.856,0.432 -0.777,0.562 c -35.096,25.407 -45.983,64.505 -49.171,81.604 -5.612,1.216 -11.998,1.83 -19.071,1.83 -25.536,0.001 -54.793,-8.01 -71.17,-15.454 -12.557,-5.707 -77.133,-34.273 -115.475,-36.19 -1.308,-0.065 -2.622,-0.098 -3.906,-0.098 -27.953,0 -42.919,15.179 -48.837,23.123 -14.102,5.124 -20.028,15.242 -21.032,25.071 -0.294,0.426 -0.569,0.868 -0.823,1.328 -1.942,3.509 -2.437,7.552 -1.403,11.416 l 3.657,12.729 0.073,0.243 c 0.316,1.019 0.667,2.025 1.021,3.031 0.155,0.444 0.312,0.889 0.495,1.429 l 2.833,8.151 0.128,0.352 c 0.721,1.882 1.472,3.709 2.197,5.477 0.372,0.904 0.744,1.81 1.134,2.775 l 1.634,3.997 0.116,0.275 c 0.434,0.991 0.902,1.967 1.374,2.94 0.201,0.417 0.403,0.833 0.639,1.335 l 3.732,7.786 4.419,8.197 c 0.229,0.414 0.452,0.83 0.676,1.246 0.501,0.93 1.004,1.859 1.534,2.773 l 2.348,3.88 0.056,0.091 c 0.506,0.818 1.001,1.645 1.496,2.47 1.009,1.681 2.053,3.419 3.222,5.189 l 4.847,7.184 c 1.236,1.885 2.494,3.54 3.711,5.144 0.562,0.739 1.124,1.478 1.67,2.229 l 0.486,0.654 c 1.647,2.21 3.35,4.495 5.271,6.775 l 5.412,6.602 5.938,6.726 c 1.6,1.859 3.207,3.52 4.764,5.125 0.501,0.517 1.001,1.033 1.566,1.625 l 2.997,3.089 0.099,0.101 c 0.724,0.729 1.467,1.439 2.21,2.149 0.347,0.331 0.694,0.662 1.038,0.996 l 0.117,0.111 c 0.697,0.659 1.386,1.326 2.076,1.993 1.4,1.354 2.848,2.755 4.396,4.137 l 6.4,5.736 1.06,0.905 c 4.12,3.497 8.379,7.111 12.901,10.525 2.52,1.994 5.029,3.835 7.081,5.319 2.409,1.774 4.78,3.509 7.281,5.201 4.614,3.243 9.606,6.52 14.832,9.735 5.107,3.148 10.238,6.151 15.249,8.925 2.985,1.653 5.49,2.987 7.876,4.193 2.526,1.315 5.188,2.647 7.829,3.918 5.089,2.501 10.409,4.896 16.224,7.302 5.659,2.368 11.355,4.478 16.931,6.272 0,0 67.442,26.559 150.581,10.562 18.78,0 34.396,-4.922 41.772,-13.166 4.607,-5.149 6.347,-10.466 5.168,-15.802 -1.83,-8.285 -9.144,-11.43 -15.596,-14.204 -10.312,-4.434 -24.061,-10.347 -30.598,-33.31 38.392,-3.516 67.892,-46.355 67.892,-46.355 0,0 -8.293,3.802 -19.959,7 l 0.977,-0.881 c 26.724,-15.434 48.982,-40.278 48.982,-40.278 0,0 -12.383,5.516 -28.35,10.168 l 6.361,-8.061 C 570.3,88.047 604.172,37.024 604.172,37.024 Z" /><path
       inkscape:connector-curvature="0"
       id="path24"
       d="m 540.963,50.267 c -61.202,10.2 -63.249,-47.652 -60.02,-79.098 0.915,-18.41 -27.231,-4.378 -27.337,-4.325 -41.08,29.739 -45.482,81.324 -45.482,81.324 C 375.445,59.606 324.658,46.241 302.191,36.029 279.724,25.817 223.761,2.533 191.082,0.899 158.403,-0.735 146.557,22.14 146.557,22.14 c -16.364,4.165 -17.34,14.826 -16.663,20.313 l -0.274,0.078 -0.01,0.003 c -1.797,0.516 -2.835,2.392 -2.318,4.189 l 0.003,0.012 2.382,8.285 1.193,4.145 c 0.427,1.372 0.93,2.72 1.391,4.081 l 2.833,8.152 c 1.028,2.685 2.157,5.333 3.231,8.003 l 1.634,3.997 c 0.578,1.318 1.231,2.601 1.843,3.903 l 3.732,7.786 4.108,7.593 c 0.694,1.26 1.354,2.541 2.077,3.784 l 2.236,3.691 c 1.512,2.447 2.936,4.952 4.521,7.352 l 4.827,7.154 c 1.574,2.41 3.404,4.634 5.094,6.96 1.719,2.305 3.424,4.619 5.279,6.815 l 5.464,6.665 5.708,6.452 c 1.87,2.181 3.913,4.2 5.894,6.276 l 2.997,3.089 c 1.011,1.018 2.063,1.993 3.092,2.991 2.084,1.969 4.102,4.008 6.241,5.916 l 6.4,5.736 c 4.367,3.706 8.719,7.428 13.292,10.872 2.241,1.779 4.542,3.476 6.858,5.153 2.302,1.696 4.607,3.383 6.976,4.983 4.673,3.287 9.457,6.41 14.318,9.401 4.859,2.995 9.778,5.882 14.765,8.642 2.494,1.38 5.002,2.731 7.546,4.016 2.525,1.317 5.073,2.588 7.638,3.823 5.108,2.51 10.309,4.827 15.562,7.001 5.243,2.194 10.577,4.182 15.977,5.92 -5.201,-2.262 -10.238,-4.863 -15.268,-7.441 -5.019,-2.603 -9.955,-5.357 -14.848,-8.169 -4.903,-2.793 -9.698,-5.773 -14.463,-8.777 -4.77,-2.999 -9.461,-6.116 -14.08,-9.33 -4.602,-3.238 -9.175,-6.51 -13.647,-9.911 -2.263,-1.664 -4.461,-3.413 -6.653,-5.168 -2.206,-1.736 -4.396,-3.49 -6.521,-5.323 -4.319,-3.582 -8.51,-7.306 -12.692,-11.034 l -6.119,-5.758 c -2.043,-1.914 -3.963,-3.953 -5.95,-5.922 -0.981,-0.998 -1.984,-1.973 -2.945,-2.989 l -2.846,-3.081 c -1.869,-2.08 -3.878,-4.031 -5.668,-6.178 l -5.503,-6.321 -5.257,-6.521 c -1.786,-2.148 -3.423,-4.408 -5.073,-6.659 -1.62,-2.27 -3.383,-4.441 -4.887,-6.791 l -4.695,-6.924 c -1.556,-2.314 -2.951,-4.729 -4.436,-7.088 l -2.196,-3.559 c -0.709,-1.199 -1.356,-2.434 -2.038,-3.649 l -4.039,-7.321 -3.672,-7.51 c -0.602,-1.256 -1.247,-2.494 -1.816,-3.765 l -1.67,-3.832 c -1.102,-2.56 -2.259,-5.099 -3.319,-7.677 l -2.934,-7.835 c -0.479,-1.309 -1.002,-2.605 -1.447,-3.927 l -1.253,-3.993 -1.528,-4.864 1.565,-0.511 0.812,-0.265 0.074,-0.024 0.124,-0.027 0.387,-0.085 c 2.051,-0.501 4.157,-0.849 6.291,-1.088 1.075,-0.079 2.145,-0.202 3.226,-0.25 l 3.258,-0.078 3.28,0.082 3.292,0.229 c 2.196,0.207 4.394,0.467 6.591,0.806 2.199,0.32 4.398,0.699 6.588,1.156 2.195,0.429 4.378,0.947 6.562,1.472 2.181,0.542 4.357,1.121 6.526,1.737 8.673,2.485 17.287,5.366 25.881,8.385 1.242,0.422 2.488,0.842 3.731,1.263 8.966,4.076 16.075,7.443 20.029,8.258 13.889,2.859 29.411,-2.042 44.117,24.918 14.706,26.96 88.233,80.88 88.233,80.88 27.777,81.697 112.742,76.796 126.631,61.273 13.889,-15.522 -35.13,-2.451 -45.751,-61.273 11.726,-6.335 22.149,-13.977 31.394,-22.315 -38.94,5.095 -86.661,-12.306 -115.74,-26.881 123.09,21.786 140.863,-0.736 140.863,-0.736 -38.464,12.284 -80.952,-9.612 -80.952,-9.612 69.171,8.714 88.778,-11.854 88.778,-11.854 -17.156,8.987 -43.028,-7.481 -43.028,-7.481 59.638,3.269 73.26,-45.767 73.26,-45.767 z M 315.877,77.655 c -3.126,6.549 -19.526,5.24 -36.631,-2.923 -17.105,-8.164 -28.437,-20.091 -25.311,-26.64 3.126,-6.549 19.525,-5.24 36.631,2.923 17.104,8.163 28.437,20.091 25.311,26.64 z" /></g></svg>